<mxfile host="65bd71144e">
    <diagram id="JpjIRmXY-95svIUPVe_g" name="PÃ¡gina-1">
        <mxGraphModel dx="595" dy="2805" grid="1" gridSize="10" guides="1" tooltips="1" connect="1" arrows="1" fold="1" page="1" pageScale="1" pageWidth="827" pageHeight="1169" math="0" shadow="0">
            <root>
                <mxCell id="0"/>
                <mxCell id="1" parent="0"/>
                <UserObject label="" mermaidData="{&#xa;  &quot;data&quot;: &quot;erDiagram\n    covid_data {\n        TEXT hash PK\n        INTEGER date\n        INTEGER positive\n        INTEGER death\n        INTEGER hospitalizedCurrently\n        INTEGER totalTestResults\n        INTEGER positiveIncrease\n        INTEGER deathIncrease\n        TEXT lastModified\n    }\n\n    covid_data_dirty {\n        TEXT hash PK\n        INTEGER date\n        TEXT positive\n        TEXT death\n        INTEGER hospitalizedCurrently\n        INTEGER totalTestResults\n        INTEGER positiveIncrease\n        INTEGER deathIncrease\n        TEXT lastModified\n        TEXT registro_nulo\n        INTEGER fecha_duplicada\n        TEXT positive_duplicada\n        TEXT death_duplicada\n        TEXT columna_inutil_1\n        TEXT columna_inutil_2\n        INTEGER fecha_sucia\n    }\n\n    covid_data_cleaned {\n        TEXT hash PK\n        INTEGER fecha\n        INTEGER casos_positivos\n        INTEGER fallecidos\n        INTEGER hospitalizados\n        INTEGER total_resultados\n        INTEGER incremento_positivos\n        INTEGER incremento_fallecidos\n        TEXT ultima_modificacion\n        TEXT anio_auditoria\n        TEXT mes_auditoria\n        TEXT dia_auditoria\n        TEXT fecha_completa_auditoria\n        FLOAT tasa_positividad\n        FLOAT tasa_mortalidad\n    }\n\n    delitos_informaticos {\n        TEXT criminalidad\n        TEXT es_archivo\n        TEXT es_preclusion\n        TEXT estado\n        TEXT etapa_caso\n        TEXT ley\n        TEXT pais_hecho\n        TEXT departamento_hecho\n        TEXT municipio PK\n        TEXT seccional\n        INTEGER a_o_hechos\n        INTEGER a_o_entrada\n        INTEGER a_o_denuncia\n        TEXT delito\n        TEXT grupo_delito\n        TEXT consumado\n        INTEGER total_procesos\n    }\n\n    inventario_bovinos {\n        INTEGER anio\n        TEXT subregion\n        TEXT rubro\n        INTEGER bovinos_cria_macho\n        INTEGER bovinos_novillo_levante\n        INTEGER bovinos_novillo_ceba\n        INTEGER bovinos_toros\n        INTEGER total_machos\n        INTEGER bovinos_cria_hembra\n        INTEGER bovinos_novilla_levante\n        INTEGER bovinos_novilla_vientre\n        INTEGER bovinos_vaca\n        INTEGER total_hembras\n        INTEGER total_bovinos\n        FLOAT total_pastos\n        FLOAT pasto_corte\n        FLOAT pasto_natural\n        FLOAT pasto_mejorado\n        TEXT municipio PK\n    }\n\n    covid_data ||--o{ covid_data_dirty : \&quot;Simulates Dirty Data\&quot;\n    covid_data_dirty ||--o{ covid_data_cleaned : \&quot;Cleans and Transforms\&quot;\n    covid_data_cleaned ||--o{ delitos_informaticos : \&quot;Enriches (via Concatenation)\&quot;\n    covid_data_cleaned ||--o{ inventario_bovinos : \&quot;Enriches (via Concatenation)\&quot;\n    delitos_informaticos ||--o{ inventario_bovinos : \&quot;Merges on municipio\&quot;&quot;&#xa;}" id="2">
                    <mxCell style="shape=image;noLabel=1;verticalAlign=top;imageAspect=1;image=data:image/svg+xml,PHN2ZyBhcmlhLXJvbGVkZXNjcmlwdGlvbj0iZXIiIHJvbGU9ImdyYXBoaWNzLWRvY3VtZW50IGRvY3VtZW50IiB2aWV3Qm94PSItNzAuNjgzMjM1MTY4NDU3MDMgMCAzOTcuODYyOTE1MDM5MDYyNSAyMjMyIiBzdHlsZT0ibWF4LXdpZHRoOiAzOTcuODYyOTE1MDM5MDYyNXB4OyIgeG1sbnM9Imh0dHA6Ly93d3cudzMub3JnLzIwMDAvc3ZnIiB3aWR0aD0iMTAwJSIgaWQ9ImdlTWVybWFpZE91dHB1dC0xNzQzNjUzNjMxNDg5Ij48c3R5bGU+I2dlTWVybWFpZE91dHB1dC0xNzQzNjUzNjMxNDg5e2ZvbnQtZmFtaWx5OiJ0cmVidWNoZXQgbXMiLHZlcmRhbmEsYXJpYWwsc2Fucy1zZXJpZjtmb250LXNpemU6MTZweDtmaWxsOiMwMDAwMDA7fSNnZU1lcm1haWRPdXRwdXQtMTc0MzY1MzYzMTQ4OSAuZXJyb3ItaWNvbntmaWxsOiM1NTIyMjI7fSNnZU1lcm1haWRPdXRwdXQtMTc0MzY1MzYzMTQ4OSAuZXJyb3ItdGV4dHtmaWxsOiM1NTIyMjI7c3Ryb2tlOiM1NTIyMjI7fSNnZU1lcm1haWRPdXRwdXQtMTc0MzY1MzYzMTQ4OSAuZWRnZS10aGlja25lc3Mtbm9ybWFse3N0cm9rZS13aWR0aDoxcHg7fSNnZU1lcm1haWRPdXRwdXQtMTc0MzY1MzYzMTQ4OSAuZWRnZS10aGlja25lc3MtdGhpY2t7c3Ryb2tlLXdpZHRoOjMuNXB4O30jZ2VNZXJtYWlkT3V0cHV0LTE3NDM2NTM2MzE0ODkgLmVkZ2UtcGF0dGVybi1zb2xpZHtzdHJva2UtZGFzaGFycmF5OjA7fSNnZU1lcm1haWRPdXRwdXQtMTc0MzY1MzYzMTQ4OSAuZWRnZS10aGlja25lc3MtaW52aXNpYmxle3N0cm9rZS13aWR0aDowO2ZpbGw6bm9uZTt9I2dlTWVybWFpZE91dHB1dC0xNzQzNjUzNjMxNDg5IC5lZGdlLXBhdHRlcm4tZGFzaGVke3N0cm9rZS1kYXNoYXJyYXk6Mzt9I2dlTWVybWFpZE91dHB1dC0xNzQzNjUzNjMxNDg5IC5lZGdlLXBhdHRlcm4tZG90dGVke3N0cm9rZS1kYXNoYXJyYXk6Mjt9I2dlTWVybWFpZE91dHB1dC0xNzQzNjUzNjMxNDg5IC5tYXJrZXJ7ZmlsbDojNjY2O3N0cm9rZTojNjY2O30jZ2VNZXJtYWlkT3V0cHV0LTE3NDM2NTM2MzE0ODkgLm1hcmtlci5jcm9zc3tzdHJva2U6IzY2Njt9I2dlTWVybWFpZE91dHB1dC0xNzQzNjUzNjMxNDg5IHN2Z3tmb250LWZhbWlseToidHJlYnVjaGV0IG1zIix2ZXJkYW5hLGFyaWFsLHNhbnMtc2VyaWY7Zm9udC1zaXplOjE2cHg7fSNnZU1lcm1haWRPdXRwdXQtMTc0MzY1MzYzMTQ4OSBwe21hcmdpbjowO30jZ2VNZXJtYWlkT3V0cHV0LTE3NDM2NTM2MzE0ODkgLmVudGl0eUJveHtmaWxsOiNlZWU7c3Ryb2tlOiM5OTk7fSNnZU1lcm1haWRPdXRwdXQtMTc0MzY1MzYzMTQ4OSAuYXR0cmlidXRlQm94T2Rke2ZpbGw6I2ZmZmZmZjtzdHJva2U6Izk5OTt9I2dlTWVybWFpZE91dHB1dC0xNzQzNjUzNjMxNDg5IC5hdHRyaWJ1dGVCb3hFdmVue2ZpbGw6I2YyZjJmMjtzdHJva2U6Izk5OTt9I2dlTWVybWFpZE91dHB1dC0xNzQzNjUzNjMxNDg5IC5yZWxhdGlvbnNoaXBMYWJlbEJveHtmaWxsOmhzbCgtMTYwLCAwJSwgOTMuMzMzMzMzMzMzMyUpO29wYWNpdHk6MC43O2JhY2tncm91bmQtY29sb3I6aHNsKC0xNjAsIDAlLCA5My4zMzMzMzMzMzMzJSk7fSNnZU1lcm1haWRPdXRwdXQtMTc0MzY1MzYzMTQ4OSAucmVsYXRpb25zaGlwTGFiZWxCb3ggcmVjdHtvcGFjaXR5OjAuNTt9I2dlTWVybWFpZE91dHB1dC0xNzQzNjUzNjMxNDg5IC5yZWxhdGlvbnNoaXBMaW5le3N0cm9rZTojNjY2O30jZ2VNZXJtYWlkT3V0cHV0LTE3NDM2NTM2MzE0ODkgLmVudGl0eVRpdGxlVGV4dHt0ZXh0LWFuY2hvcjptaWRkbGU7Zm9udC1zaXplOjE4cHg7ZmlsbDojMDAwMDAwO30jZ2VNZXJtYWlkT3V0cHV0LTE3NDM2NTM2MzE0ODkgI01EX1BBUkVOVF9TVEFSVHtmaWxsOiNmNWY1ZjUhaW1wb3J0YW50O3N0cm9rZTojNjY2IWltcG9ydGFudDtzdHJva2Utd2lkdGg6MTt9I2dlTWVybWFpZE91dHB1dC0xNzQzNjUzNjMxNDg5ICNNRF9QQVJFTlRfRU5Ee2ZpbGw6I2Y1ZjVmNSFpbXBvcnRhbnQ7c3Ryb2tlOiM2NjYhaW1wb3J0YW50O3N0cm9rZS13aWR0aDoxO30jZ2VNZXJtYWlkT3V0cHV0LTE3NDM2NTM2MzE0ODkgOnJvb3R7LS1tZXJtYWlkLWZvbnQtZmFtaWx5OiJ0cmVidWNoZXQgbXMiLHZlcmRhbmEsYXJpYWwsc2Fucy1zZXJpZjt9PC9zdHlsZT48Zz48L2c+PGRlZnM+PG1hcmtlciBvcmllbnQ9ImF1dG8iIG1hcmtlckhlaWdodD0iMjQwIiBtYXJrZXJXaWR0aD0iMTkwIiByZWZZPSI3IiByZWZYPSIwIiBpZD0iTURfUEFSRU5UX1NUQVJUIj48cGF0aCBkPSJNIDE4LDcgTDksMTMgTDEsNyBMOSwxIFoiPjwvcGF0aD48L21hcmtlcj48L2RlZnM+PGRlZnM+PG1hcmtlciBvcmllbnQ9ImF1dG8iIG1hcmtlckhlaWdodD0iMjgiIG1hcmtlcldpZHRoPSIyMCIgcmVmWT0iNyIgcmVmWD0iMTkiIGlkPSJNRF9QQVJFTlRfRU5EIj48cGF0aCBkPSJNIDE4LDcgTDksMTMgTDEsNyBMOSwxIFoiPjwvcGF0aD48L21hcmtlcj48L2RlZnM+PGRlZnM+PG1hcmtlciBvcmllbnQ9ImF1dG8iIG1hcmtlckhlaWdodD0iMTgiIG1hcmtlcldpZHRoPSIxOCIgcmVmWT0iOSIgcmVmWD0iMCIgaWQ9Ik9OTFlfT05FX1NUQVJUIj48cGF0aCBkPSJNOSwwIEw5LDE4IE0xNSwwIEwxNSwxOCIgZmlsbD0ibm9uZSIgc3Ryb2tlPSJncmV5Ij48L3BhdGg+PC9tYXJrZXI+PC9kZWZzPjxkZWZzPjxtYXJrZXIgb3JpZW50PSJhdXRvIiBtYXJrZXJIZWlnaHQ9IjE4IiBtYXJrZXJXaWR0aD0iMTgiIHJlZlk9IjkiIHJlZlg9IjE4IiBpZD0iT05MWV9PTkVfRU5EIj48cGF0aCBkPSJNMywwIEwzLDE4IE05LDAgTDksMTgiIGZpbGw9Im5vbmUiIHN0cm9rZT0iZ3JleSI+PC9wYXRoPjwvbWFya2VyPjwvZGVmcz48ZGVmcz48bWFya2VyIG9yaWVudD0iYXV0byIgbWFya2VySGVpZ2h0PSIxOCIgbWFya2VyV2lkdGg9IjMwIiByZWZZPSI5IiByZWZYPSIwIiBpZD0iWkVST19PUl9PTkVfU1RBUlQiPjxjaXJjbGUgcj0iNiIgY3k9IjkiIGN4PSIyMSIgZmlsbD0id2hpdGUiIHN0cm9rZT0iZ3JleSI+PC9jaXJjbGU+PHBhdGggZD0iTTksMCBMOSwxOCIgZmlsbD0ibm9uZSIgc3Ryb2tlPSJncmV5Ij48L3BhdGg+PC9tYXJrZXI+PC9kZWZzPjxkZWZzPjxtYXJrZXIgb3JpZW50PSJhdXRvIiBtYXJrZXJIZWlnaHQ9IjE4IiBtYXJrZXJXaWR0aD0iMzAiIHJlZlk9IjkiIHJlZlg9IjMwIiBpZD0iWkVST19PUl9PTkVfRU5EIj48Y2lyY2xlIHI9IjYiIGN5PSI5IiBjeD0iOSIgZmlsbD0id2hpdGUiIHN0cm9rZT0iZ3JleSI+PC9jaXJjbGU+PHBhdGggZD0iTTIxLDAgTDIxLDE4IiBmaWxsPSJub25lIiBzdHJva2U9ImdyZXkiPjwvcGF0aD48L21hcmtlcj48L2RlZnM+PGRlZnM+PG1hcmtlciBvcmllbnQ9ImF1dG8iIG1hcmtlckhlaWdodD0iMzYiIG1hcmtlcldpZHRoPSI0NSIgcmVmWT0iMTgiIHJlZlg9IjE4IiBpZD0iT05FX09SX01PUkVfU1RBUlQiPjxwYXRoIGQ9Ik0wLDE4IFEgMTgsMCAzNiwxOCBRIDE4LDM2IDAsMTggTTQyLDkgTDQyLDI3IiBmaWxsPSJub25lIiBzdHJva2U9ImdyZXkiPjwvcGF0aD48L21hcmtlcj48L2RlZnM+PGRlZnM+PG1hcmtlciBvcmllbnQ9ImF1dG8iIG1hcmtlckhlaWdodD0iMzYiIG1hcmtlcldpZHRoPSI0NSIgcmVmWT0iMTgiIHJlZlg9IjI3IiBpZD0iT05FX09SX01PUkVfRU5EIj48cGF0aCBkPSJNMyw5IEwzLDI3IE05LDE4IFEyNywwIDQ1LDE4IFEyNywzNiA5LDE4IiBmaWxsPSJub25lIiBzdHJva2U9ImdyZXkiPjwvcGF0aD48L21hcmtlcj48L2RlZnM+PGRlZnM+PG1hcmtlciBvcmllbnQ9ImF1dG8iIG1hcmtlckhlaWdodD0iMzYiIG1hcmtlcldpZHRoPSI1NyIgcmVmWT0iMTgiIHJlZlg9IjE4IiBpZD0iWkVST19PUl9NT1JFX1NUQVJUIj48Y2lyY2xlIHI9IjYiIGN5PSIxOCIgY3g9IjQ4IiBmaWxsPSJ3aGl0ZSIgc3Ryb2tlPSJncmV5Ij48L2NpcmNsZT48cGF0aCBkPSJNMCwxOCBRMTgsMCAzNiwxOCBRMTgsMzYgMCwxOCIgZmlsbD0ibm9uZSIgc3Ryb2tlPSJncmV5Ij48L3BhdGg+PC9tYXJrZXI+PC9kZWZzPjxkZWZzPjxtYXJrZXIgb3JpZW50PSJhdXRvIiBtYXJrZXJIZWlnaHQ9IjM2IiBtYXJrZXJXaWR0aD0iNTciIHJlZlk9IjE4IiByZWZYPSIzOSIgaWQ9IlpFUk9fT1JfTU9SRV9FTkQiPjxjaXJjbGUgcj0iNiIgY3k9IjE4IiBjeD0iOSIgZmlsbD0id2hpdGUiIHN0cm9rZT0iZ3JleSI+PC9jaXJjbGU+PHBhdGggZD0iTTIxLDE4IFEzOSwwIDU3LDE4IFEzOSwzNiAyMSwxOCIgZmlsbD0ibm9uZSIgc3Ryb2tlPSJncmV5Ij48L3BhdGg+PC9tYXJrZXI+PC9kZWZzPjxwYXRoIHN0eWxlPSJzdHJva2U6IGdyZXk7IGZpbGw6IG5vbmU7IiBtYXJrZXItc3RhcnQ9InVybCgjT05MWV9PTkVfU1RBUlQpIiBtYXJrZXItZW5kPSJ1cmwoI1pFUk9fT1JfTU9SRV9FTkQpIiBkPSJNMTIxLjY3OSwyNDJMMTIxLjY3OSwyNTAuMzMzQzEyMS42NzksMjU4LjY2NywxMjEuNjc5LDI3NS4zMzMsMTIxLjY3OSwyOTJDMTIxLjY3OSwzMDguNjY3LDEyMS42NzksMzI1LjMzMywxMjEuNjc5LDMzMy42NjdMMTIxLjY3OSwzNDIiIGNsYXNzPSJlciByZWxhdGlvbnNoaXBMaW5lIj48L3BhdGg+PHBhdGggc3R5bGU9InN0cm9rZTogZ3JleTsgZmlsbDogbm9uZTsiIG1hcmtlci1zdGFydD0idXJsKCNPTkxZX09ORV9TVEFSVCkiIG1hcmtlci1lbmQ9InVybCgjWkVST19PUl9NT1JFX0VORCkiIGQ9Ik0xMjEuNjc5LDcxOEwxMjEuNjc5LDcyNi4zMzNDMTIxLjY3OSw3MzQuNjY3LDEyMS42NzksNzUxLjMzMywxMjEuNjc5LDc2OEMxMjEuNjc5LDc4NC42NjcsMTIxLjY3OSw4MDEuMzMzLDEyMS42NzksODA5LjY2N0wxMjEuNjc5LDgxOCIgY2xhc3M9ImVyIHJlbGF0aW9uc2hpcExpbmUiPjwvcGF0aD48cGF0aCBzdHlsZT0ic3Ryb2tlOiBncmV5OyBmaWxsOiBub25lOyIgbWFya2VyLXN0YXJ0PSJ1cmwoI09OTFlfT05FX1NUQVJUKSIgbWFya2VyLWVuZD0idXJsKCNaRVJPX09SX01PUkVfRU5EKSIgZD0iTTE5NS44ODQsMTE3MkwxOTkuMzc4LDExODAuMzMzQzIwMi44NzEsMTE4OC42NjcsMjA5Ljg1OSwxMjA1LjMzMywyMTMuMzUyLDEyMjJDMjE2Ljg0NiwxMjM4LjY2NywyMTYuODQ2LDEyNTUuMzMzLDIxNi44NDYsMTI2My42NjdMMjE2Ljg0NiwxMjcyIiBjbGFzcz0iZXIgcmVsYXRpb25zaGlwTGluZSI+PC9wYXRoPjxwYXRoIHN0eWxlPSJzdHJva2U6IGdyZXk7IGZpbGw6IG5vbmU7IiBtYXJrZXItc3RhcnQ9InVybCgjT05MWV9PTkVfU1RBUlQpIiBtYXJrZXItZW5kPSJ1cmwoI1pFUk9fT1JfTU9SRV9FTkQpIiBkPSJNNDcuNDc0LDExNzJMNDMuOTgxLDExODAuMzMzQzQwLjQ4NywxMTg4LjY2NywzMy41LDEyMDUuMzMzLDMwLjAwNiwxMjU1LjE2N0MyNi41MTIsMTMwNSwyNi41MTIsMTM4OCwyNi41MTIsMTQ3MUMyNi41MTIsMTU1NCwyNi41MTIsMTYzNywyOS40MzksMTY4Ni44MzNDMzIuMzY1LDE3MzYuNjY3LDM4LjIxOCwxNzUzLjMzMyw0MS4xNDQsMTc2MS42NjdMNDQuMDcxLDE3NzAiIGNsYXNzPSJlciByZWxhdGlvbnNoaXBMaW5lIj48L3BhdGg+PHBhdGggc3R5bGU9InN0cm9rZTogZ3JleTsgZmlsbDogbm9uZTsiIG1hcmtlci1zdGFydD0idXJsKCNPTkxZX09ORV9TVEFSVCkiIG1hcmtlci1lbmQ9InVybCgjWkVST19PUl9NT1JFX0VORCkiIGQ9Ik0yMTYuODQ2LDE2NzBMMjE2Ljg0NiwxNjc4LjMzM0MyMTYuODQ2LDE2ODYuNjY3LDIxNi44NDYsMTcwMy4zMzMsMjEzLjkyLDE3MjBDMjEwLjk5MywxNzM2LjY2NywyMDUuMTQsMTc1My4zMzMsMjAyLjIxNCwxNzYxLjY2N0wxOTkuMjg4LDE3NzAiIGNsYXNzPSJlciByZWxhdGlvbnNoaXBMaW5lIj48L3BhdGg+PGcgdHJhbnNmb3JtPSJ0cmFuc2xhdGUoMzAuODA1MTE0NzQ2MDkzNzUsMjAgKSIgaWQ9ImVudGl0eS1jb3ZpZGRhdGEtNjU2ZDZiY2YtMWFmNi01NmFlLWE1MGItMTY1MWE5NTFhMjgzIj48cmVjdCBoZWlnaHQ9IjIyMiIgd2lkdGg9IjE4MS43NDgxMDc5MTAxNTYyNSIgeT0iMCIgeD0iMCIgY2xhc3M9ImVyIGVudGl0eUJveCI+PC9yZWN0Pjx0ZXh0IHN0eWxlPSJkb21pbmFudC1iYXNlbGluZTogbWlkZGxlOyB0ZXh0LWFuY2hvcjogbWlkZGxlOyBmb250LXNpemU6IDEycHg7IiB0cmFuc2Zvcm09InRyYW5zbGF0ZSg5MC44NzQwNTM5NTUwNzgxMiwxMikiIHk9IjAiIHg9IjAiIGlkPSJ0ZXh0LWVudGl0eS1jb3ZpZGRhdGEtNjU2ZDZiY2YtMWFmNi01NmFlLWE1MGItMTY1MWE5NTFhMjgzIiBjbGFzcz0iZXIgZW50aXR5TGFiZWwiPmNvdmlkX2RhdGE8L3RleHQ+PHJlY3QgaGVpZ2h0PSIyMiIgd2lkdGg9IjUwLjA5NTE2OTA2NzM4MjgxIiB5PSIyNCIgeD0iMCIgY2xhc3M9ImVyIGF0dHJpYnV0ZUJveE9kZCI+PC9yZWN0Pjx0ZXh0IHN0eWxlPSJkb21pbmFudC1iYXNlbGluZTogbWlkZGxlOyBmb250LXNpemU6IDEwLjJweDsiIHRyYW5zZm9ybT0idHJhbnNsYXRlKDUsMzUpIiB5PSIwIiB4PSIwIiBpZD0idGV4dC1lbnRpdHktY292aWRkYXRhLTY1NmQ2YmNmLTFhZjYtNTZhZS1hNTBiLTE2NTFhOTUxYTI4My1hdHRyLTEtdHlwZSIgY2xhc3M9ImVyIGVudGl0eUxhYmVsIj5URVhUPC90ZXh0PjxyZWN0IGhlaWdodD0iMjIiIHdpZHRoPSIxMDguOTY1MjU1NzM3MzA0NjkiIHk9IjI0IiB4PSI1MC4wOTUxNjkwNjczODI4MSIgY2xhc3M9ImVyIGF0dHJpYnV0ZUJveE9kZCI+PC9yZWN0Pjx0ZXh0IHN0eWxlPSJkb21pbmFudC1iYXNlbGluZTogbWlkZGxlOyBmb250LXNpemU6IDEwLjJweDsiIHRyYW5zZm9ybT0idHJhbnNsYXRlKDU1LjA5NTE2OTA2NzM4MjgxLDM1KSIgeT0iMCIgeD0iMCIgaWQ9InRleHQtZW50aXR5LWNvdmlkZGF0YS02NTZkNmJjZi0xYWY2LTU2YWUtYTUwYi0xNjUxYTk1MWEyODMtYXR0ci0xLW5hbWUiIGNsYXNzPSJlciBlbnRpdHlMYWJlbCI+aGFzaDwvdGV4dD48cmVjdCBoZWlnaHQ9IjIyIiB3aWR0aD0iMjIuNjg3NjgzMTA1NDY4NzUiIHk9IjI0IiB4PSIxNTkuMDYwNDI0ODA0Njg3NSIgY2xhc3M9ImVyIGF0dHJpYnV0ZUJveE9kZCI+PC9yZWN0Pjx0ZXh0IHN0eWxlPSJkb21pbmFudC1iYXNlbGluZTogbWlkZGxlOyBmb250LXNpemU6IDEwLjJweDsiIHRyYW5zZm9ybT0idHJhbnNsYXRlKDE2NC4wNjA0MjQ4MDQ2ODc1LDM1KSIgeT0iMCIgeD0iMCIgaWQ9InRleHQtZW50aXR5LWNvdmlkZGF0YS02NTZkNmJjZi0xYWY2LTU2YWUtYTUwYi0xNjUxYTk1MWEyODMtYXR0ci0xLWtleSIgY2xhc3M9ImVyIGVudGl0eUxhYmVsIj5QSzwvdGV4dD48cmVjdCBoZWlnaHQ9IjIyIiB3aWR0aD0iNTAuMDk1MTY5MDY3MzgyODEiIHk9IjQ2IiB4PSIwIiBjbGFzcz0iZXIgYXR0cmlidXRlQm94RXZlbiI+PC9yZWN0Pjx0ZXh0IHN0eWxlPSJkb21pbmFudC1iYXNlbGluZTogbWlkZGxlOyBmb250LXNpemU6IDEwLjJweDsiIHRyYW5zZm9ybT0idHJhbnNsYXRlKDUsNTcpIiB5PSIwIiB4PSIwIiBpZD0idGV4dC1lbnRpdHktY292aWRkYXRhLTY1NmQ2YmNmLTFhZjYtNTZhZS1hNTBiLTE2NTFhOTUxYTI4My1hdHRyLTItdHlwZSIgY2xhc3M9ImVyIGVudGl0eUxhYmVsIj5JTlRFR0VSPC90ZXh0PjxyZWN0IGhlaWdodD0iMjIiIHdpZHRoPSIxMDguOTY1MjU1NzM3MzA0NjkiIHk9IjQ2IiB4PSI1MC4wOTUxNjkwNjczODI4MSIgY2xhc3M9ImVyIGF0dHJpYnV0ZUJveEV2ZW4iPjwvcmVjdD48dGV4dCBzdHlsZT0iZG9taW5hbnQtYmFzZWxpbmU6IG1pZGRsZTsgZm9udC1zaXplOiAxMC4ycHg7IiB0cmFuc2Zvcm09InRyYW5zbGF0ZSg1NS4wOTUxNjkwNjczODI4MSw1NykiIHk9IjAiIHg9IjAiIGlkPSJ0ZXh0LWVudGl0eS1jb3ZpZGRhdGEtNjU2ZDZiY2YtMWFmNi01NmFlLWE1MGItMTY1MWE5NTFhMjgzLWF0dHItMi1uYW1lIiBjbGFzcz0iZXIgZW50aXR5TGFiZWwiPmRhdGU8L3RleHQ+PHJlY3QgaGVpZ2h0PSIyMiIgd2lkdGg9IjIyLjY4NzY4MzEwNTQ2ODc1IiB5PSI0NiIgeD0iMTU5LjA2MDQyNDgwNDY4NzUiIGNsYXNzPSJlciBhdHRyaWJ1dGVCb3hFdmVuIj48L3JlY3Q+PHRleHQgc3R5bGU9ImRvbWluYW50LWJhc2VsaW5lOiBtaWRkbGU7IGZvbnQtc2l6ZTogMTAuMnB4OyIgdHJhbnNmb3JtPSJ0cmFuc2xhdGUoMTY0LjA2MDQyNDgwNDY4NzUsNTcpIiB5PSIwIiB4PSIwIiBpZD0idGV4dC1lbnRpdHktY292aWRkYXRhLTY1NmQ2YmNmLTFhZjYtNTZhZS1hNTBiLTE2NTFhOTUxYTI4My1hdHRyLTIta2V5IiBjbGFzcz0iZXIgZW50aXR5TGFiZWwiPjwvdGV4dD48cmVjdCBoZWlnaHQ9IjIyIiB3aWR0aD0iNTAuMDk1MTY5MDY3MzgyODEiIHk9IjY4IiB4PSIwIiBjbGFzcz0iZXIgYXR0cmlidXRlQm94T2RkIj48L3JlY3Q+PHRleHQgc3R5bGU9ImRvbWluYW50LWJhc2VsaW5lOiBtaWRkbGU7IGZvbnQtc2l6ZTogMTAuMnB4OyIgdHJhbnNmb3JtPSJ0cmFuc2xhdGUoNSw3OSkiIHk9IjAiIHg9IjAiIGlkPSJ0ZXh0LWVudGl0eS1jb3ZpZGRhdGEtNjU2ZDZiY2YtMWFmNi01NmFlLWE1MGItMTY1MWE5NTFhMjgzLWF0dHItMy10eXBlIiBjbGFzcz0iZXIgZW50aXR5TGFiZWwiPklOVEVHRVI8L3RleHQ+PHJlY3QgaGVpZ2h0PSIyMiIgd2lkdGg9IjEwOC45NjUyNTU3MzczMDQ2OSIgeT0iNjgiIHg9IjUwLjA5NTE2OTA2NzM4MjgxIiBjbGFzcz0iZXIgYXR0cmlidXRlQm94T2RkIj48L3JlY3Q+PHRleHQgc3R5bGU9ImRvbWluYW50LWJhc2VsaW5lOiBtaWRkbGU7IGZvbnQtc2l6ZTogMTAuMnB4OyIgdHJhbnNmb3JtPSJ0cmFuc2xhdGUoNTUuMDk1MTY5MDY3MzgyODEsNzkpIiB5PSIwIiB4PSIwIiBpZD0idGV4dC1lbnRpdHktY292aWRkYXRhLTY1NmQ2YmNmLTFhZjYtNTZhZS1hNTBiLTE2NTFhOTUxYTI4My1hdHRyLTMtbmFtZSIgY2xhc3M9ImVyIGVudGl0eUxhYmVsIj5wb3NpdGl2ZTwvdGV4dD48cmVjdCBoZWlnaHQ9IjIyIiB3aWR0aD0iMjIuNjg3NjgzMTA1NDY4NzUiIHk9IjY4IiB4PSIxNTkuMDYwNDI0ODA0Njg3NSIgY2xhc3M9ImVyIGF0dHJpYnV0ZUJveE9kZCI+PC9yZWN0Pjx0ZXh0IHN0eWxlPSJkb21pbmFudC1iYXNlbGluZTogbWlkZGxlOyBmb250LXNpemU6IDEwLjJweDsiIHRyYW5zZm9ybT0idHJhbnNsYXRlKDE2NC4wNjA0MjQ4MDQ2ODc1LDc5KSIgeT0iMCIgeD0iMCIgaWQ9InRleHQtZW50aXR5LWNvdmlkZGF0YS02NTZkNmJjZi0xYWY2LTU2YWUtYTUwYi0xNjUxYTk1MWEyODMtYXR0ci0zLWtleSIgY2xhc3M9ImVyIGVudGl0eUxhYmVsIj48L3RleHQ+PHJlY3QgaGVpZ2h0PSIyMiIgd2lkdGg9IjUwLjA5NTE2OTA2NzM4MjgxIiB5PSI5MCIgeD0iMCIgY2xhc3M9ImVyIGF0dHJpYnV0ZUJveEV2ZW4iPjwvcmVjdD48dGV4dCBzdHlsZT0iZG9taW5hbnQtYmFzZWxpbmU6IG1pZGRsZTsgZm9udC1zaXplOiAxMC4ycHg7IiB0cmFuc2Zvcm09InRyYW5zbGF0ZSg1LDEwMSkiIHk9IjAiIHg9IjAiIGlkPSJ0ZXh0LWVudGl0eS1jb3ZpZGRhdGEtNjU2ZDZiY2YtMWFmNi01NmFlLWE1MGItMTY1MWE5NTFhMjgzLWF0dHItNC10eXBlIiBjbGFzcz0iZXIgZW50aXR5TGFiZWwiPklOVEVHRVI8L3RleHQ+PHJlY3QgaGVpZ2h0PSIyMiIgd2lkdGg9IjEwOC45NjUyNTU3MzczMDQ2OSIgeT0iOTAiIHg9IjUwLjA5NTE2OTA2NzM4MjgxIiBjbGFzcz0iZXIgYXR0cmlidXRlQm94RXZlbiI+PC9yZWN0Pjx0ZXh0IHN0eWxlPSJkb21pbmFudC1iYXNlbGluZTogbWlkZGxlOyBmb250LXNpemU6IDEwLjJweDsiIHRyYW5zZm9ybT0idHJhbnNsYXRlKDU1LjA5NTE2OTA2NzM4MjgxLDEwMSkiIHk9IjAiIHg9IjAiIGlkPSJ0ZXh0LWVudGl0eS1jb3ZpZGRhdGEtNjU2ZDZiY2YtMWFmNi01NmFlLWE1MGItMTY1MWE5NTFhMjgzLWF0dHItNC1uYW1lIiBjbGFzcz0iZXIgZW50aXR5TGFiZWwiPmRlYXRoPC90ZXh0PjxyZWN0IGhlaWdodD0iMjIiIHdpZHRoPSIyMi42ODc2ODMxMDU0Njg3NSIgeT0iOTAiIHg9IjE1OS4wNjA0MjQ4MDQ2ODc1IiBjbGFzcz0iZXIgYXR0cmlidXRlQm94RXZlbiI+PC9yZWN0Pjx0ZXh0IHN0eWxlPSJkb21pbmFudC1iYXNlbGluZTogbWlkZGxlOyBmb250LXNpemU6IDEwLjJweDsiIHRyYW5zZm9ybT0idHJhbnNsYXRlKDE2NC4wNjA0MjQ4MDQ2ODc1LDEwMSkiIHk9IjAiIHg9IjAiIGlkPSJ0ZXh0LWVudGl0eS1jb3ZpZGRhdGEtNjU2ZDZiY2YtMWFmNi01NmFlLWE1MGItMTY1MWE5NTFhMjgzLWF0dHItNC1rZXkiIGNsYXNzPSJlciBlbnRpdHlMYWJlbCI+PC90ZXh0PjxyZWN0IGhlaWdodD0iMjIiIHdpZHRoPSI1MC4wOTUxNjkwNjczODI4MSIgeT0iMTEyIiB4PSIwIiBjbGFzcz0iZXIgYXR0cmlidXRlQm94T2RkIj48L3JlY3Q+PHRleHQgc3R5bGU9ImRvbWluYW50LWJhc2VsaW5lOiBtaWRkbGU7IGZvbnQtc2l6ZTogMTAuMnB4OyIgdHJhbnNmb3JtPSJ0cmFuc2xhdGUoNSwxMjMpIiB5PSIwIiB4PSIwIiBpZD0idGV4dC1lbnRpdHktY292aWRkYXRhLTY1NmQ2YmNmLTFhZjYtNTZhZS1hNTBiLTE2NTFhOTUxYTI4My1hdHRyLTUtdHlwZSIgY2xhc3M9ImVyIGVudGl0eUxhYmVsIj5JTlRFR0VSPC90ZXh0PjxyZWN0IGhlaWdodD0iMjIiIHdpZHRoPSIxMDguOTY1MjU1NzM3MzA0NjkiIHk9IjExMiIgeD0iNTAuMDk1MTY5MDY3MzgyODEiIGNsYXNzPSJlciBhdHRyaWJ1dGVCb3hPZGQiPjwvcmVjdD48dGV4dCBzdHlsZT0iZG9taW5hbnQtYmFzZWxpbmU6IG1pZGRsZTsgZm9udC1zaXplOiAxMC4ycHg7IiB0cmFuc2Zvcm09InRyYW5zbGF0ZSg1NS4wOTUxNjkwNjczODI4MSwxMjMpIiB5PSIwIiB4PSIwIiBpZD0idGV4dC1lbnRpdHktY292aWRkYXRhLTY1NmQ2YmNmLTFhZjYtNTZhZS1hNTBiLTE2NTFhOTUxYTI4My1hdHRyLTUtbmFtZSIgY2xhc3M9ImVyIGVudGl0eUxhYmVsIj5ob3NwaXRhbGl6ZWRDdXJyZW50bHk8L3RleHQ+PHJlY3QgaGVpZ2h0PSIyMiIgd2lkdGg9IjIyLjY4NzY4MzEwNTQ2ODc1IiB5PSIxMTIiIHg9IjE1OS4wNjA0MjQ4MDQ2ODc1IiBjbGFzcz0iZXIgYXR0cmlidXRlQm94T2RkIj48L3JlY3Q+PHRleHQgc3R5bGU9ImRvbWluYW50LWJhc2VsaW5lOiBtaWRkbGU7IGZvbnQtc2l6ZTogMTAuMnB4OyIgdHJhbnNmb3JtPSJ0cmFuc2xhdGUoMTY0LjA2MDQyNDgwNDY4NzUsMTIzKSIgeT0iMCIgeD0iMCIgaWQ9InRleHQtZW50aXR5LWNvdmlkZGF0YS02NTZkNmJjZi0xYWY2LTU2YWUtYTUwYi0xNjUxYTk1MWEyODMtYXR0ci01LWtleSIgY2xhc3M9ImVyIGVudGl0eUxhYmVsIj48L3RleHQ+PHJlY3QgaGVpZ2h0PSIyMiIgd2lkdGg9IjUwLjA5NTE2OTA2NzM4MjgxIiB5PSIxMzQiIHg9IjAiIGNsYXNzPSJlciBhdHRyaWJ1dGVCb3hFdmVuIj48L3JlY3Q+PHRleHQgc3R5bGU9ImRvbWluYW50LWJhc2VsaW5lOiBtaWRkbGU7IGZvbnQtc2l6ZTogMTAuMnB4OyIgdHJhbnNmb3JtPSJ0cmFuc2xhdGUoNSwxNDUpIiB5PSIwIiB4PSIwIiBpZD0idGV4dC1lbnRpdHktY292aWRkYXRhLTY1NmQ2YmNmLTFhZjYtNTZhZS1hNTBiLTE2NTFhOTUxYTI4My1hdHRyLTYtdHlwZSIgY2xhc3M9ImVyIGVudGl0eUxhYmVsIj5JTlRFR0VSPC90ZXh0PjxyZWN0IGhlaWdodD0iMjIiIHdpZHRoPSIxMDguOTY1MjU1NzM3MzA0NjkiIHk9IjEzNCIgeD0iNTAuMDk1MTY5MDY3MzgyODEiIGNsYXNzPSJlciBhdHRyaWJ1dGVCb3hFdmVuIj48L3JlY3Q+PHRleHQgc3R5bGU9ImRvbWluYW50LWJhc2VsaW5lOiBtaWRkbGU7IGZvbnQtc2l6ZTogMTAuMnB4OyIgdHJhbnNmb3JtPSJ0cmFuc2xhdGUoNTUuMDk1MTY5MDY3MzgyODEsMTQ1KSIgeT0iMCIgeD0iMCIgaWQ9InRleHQtZW50aXR5LWNvdmlkZGF0YS02NTZkNmJjZi0xYWY2LTU2YWUtYTUwYi0xNjUxYTk1MWEyODMtYXR0ci02LW5hbWUiIGNsYXNzPSJlciBlbnRpdHlMYWJlbCI+dG90YWxUZXN0UmVzdWx0czwvdGV4dD48cmVjdCBoZWlnaHQ9IjIyIiB3aWR0aD0iMjIuNjg3NjgzMTA1NDY4NzUiIHk9IjEzNCIgeD0iMTU5LjA2MDQyNDgwNDY4NzUiIGNsYXNzPSJlciBhdHRyaWJ1dGVCb3hFdmVuIj48L3JlY3Q+PHRleHQgc3R5bGU9ImRvbWluYW50LWJhc2VsaW5lOiBtaWRkbGU7IGZvbnQtc2l6ZTogMTAuMnB4OyIgdHJhbnNmb3JtPSJ0cmFuc2xhdGUoMTY0LjA2MDQyNDgwNDY4NzUsMTQ1KSIgeT0iMCIgeD0iMCIgaWQ9InRleHQtZW50aXR5LWNvdmlkZGF0YS02NTZkNmJjZi0xYWY2LTU2YWUtYTUwYi0xNjUxYTk1MWEyODMtYXR0ci02LWtleSIgY2xhc3M9ImVyIGVudGl0eUxhYmVsIj48L3RleHQ+PHJlY3QgaGVpZ2h0PSIyMiIgd2lkdGg9IjUwLjA5NTE2OTA2NzM4MjgxIiB5PSIxNTYiIHg9IjAiIGNsYXNzPSJlciBhdHRyaWJ1dGVCb3hPZGQiPjwvcmVjdD48dGV4dCBzdHlsZT0iZG9taW5hbnQtYmFzZWxpbmU6IG1pZGRsZTsgZm9udC1zaXplOiAxMC4ycHg7IiB0cmFuc2Zvcm09InRyYW5zbGF0ZSg1LDE2NykiIHk9IjAiIHg9IjAiIGlkPSJ0ZXh0LWVudGl0eS1jb3ZpZGRhdGEtNjU2ZDZiY2YtMWFmNi01NmFlLWE1MGItMTY1MWE5NTFhMjgzLWF0dHItNy10eXBlIiBjbGFzcz0iZXIgZW50aXR5TGFiZWwiPklOVEVHRVI8L3RleHQ+PHJlY3QgaGVpZ2h0PSIyMiIgd2lkdGg9IjEwOC45NjUyNTU3MzczMDQ2OSIgeT0iMTU2IiB4PSI1MC4wOTUxNjkwNjczODI4MSIgY2xhc3M9ImVyIGF0dHJpYnV0ZUJveE9kZCI+PC9yZWN0Pjx0ZXh0IHN0eWxlPSJkb21pbmFudC1iYXNlbGluZTogbWlkZGxlOyBmb250LXNpemU6IDEwLjJweDsiIHRyYW5zZm9ybT0idHJhbnNsYXRlKDU1LjA5NTE2OTA2NzM4MjgxLDE2NykiIHk9IjAiIHg9IjAiIGlkPSJ0ZXh0LWVudGl0eS1jb3ZpZGRhdGEtNjU2ZDZiY2YtMWFmNi01NmFlLWE1MGItMTY1MWE5NTFhMjgzLWF0dHItNy1uYW1lIiBjbGFzcz0iZXIgZW50aXR5TGFiZWwiPnBvc2l0aXZlSW5jcmVhc2U8L3RleHQ+PHJlY3QgaGVpZ2h0PSIyMiIgd2lkdGg9IjIyLjY4NzY4MzEwNTQ2ODc1IiB5PSIxNTYiIHg9IjE1OS4wNjA0MjQ4MDQ2ODc1IiBjbGFzcz0iZXIgYXR0cmlidXRlQm94T2RkIj48L3JlY3Q+PHRleHQgc3R5bGU9ImRvbWluYW50LWJhc2VsaW5lOiBtaWRkbGU7IGZvbnQtc2l6ZTogMTAuMnB4OyIgdHJhbnNmb3JtPSJ0cmFuc2xhdGUoMTY0LjA2MDQyNDgwNDY4NzUsMTY3KSIgeT0iMCIgeD0iMCIgaWQ9InRleHQtZW50aXR5LWNvdmlkZGF0YS02NTZkNmJjZi0xYWY2LTU2YWUtYTUwYi0xNjUxYTk1MWEyODMtYXR0ci03LWtleSIgY2xhc3M9ImVyIGVudGl0eUxhYmVsIj48L3RleHQ+PHJlY3QgaGVpZ2h0PSIyMiIgd2lkdGg9IjUwLjA5NTE2OTA2NzM4MjgxIiB5PSIxNzgiIHg9IjAiIGNsYXNzPSJlciBhdHRyaWJ1dGVCb3hFdmVuIj48L3JlY3Q+PHRleHQgc3R5bGU9ImRvbWluYW50LWJhc2VsaW5lOiBtaWRkbGU7IGZvbnQtc2l6ZTogMTAuMnB4OyIgdHJhbnNmb3JtPSJ0cmFuc2xhdGUoNSwxODkpIiB5PSIwIiB4PSIwIiBpZD0idGV4dC1lbnRpdHktY292aWRkYXRhLTY1NmQ2YmNmLTFhZjYtNTZhZS1hNTBiLTE2NTFhOTUxYTI4My1hdHRyLTgtdHlwZSIgY2xhc3M9ImVyIGVudGl0eUxhYmVsIj5JTlRFR0VSPC90ZXh0PjxyZWN0IGhlaWdodD0iMjIiIHdpZHRoPSIxMDguOTY1MjU1NzM3MzA0NjkiIHk9IjE3OCIgeD0iNTAuMDk1MTY5MDY3MzgyODEiIGNsYXNzPSJlciBhdHRyaWJ1dGVCb3hFdmVuIj48L3JlY3Q+PHRleHQgc3R5bGU9ImRvbWluYW50LWJhc2VsaW5lOiBtaWRkbGU7IGZvbnQtc2l6ZTogMTAuMnB4OyIgdHJhbnNmb3JtPSJ0cmFuc2xhdGUoNTUuMDk1MTY5MDY3MzgyODEsMTg5KSIgeT0iMCIgeD0iMCIgaWQ9InRleHQtZW50aXR5LWNvdmlkZGF0YS02NTZkNmJjZi0xYWY2LTU2YWUtYTUwYi0xNjUxYTk1MWEyODMtYXR0ci04LW5hbWUiIGNsYXNzPSJlciBlbnRpdHlMYWJlbCI+ZGVhdGhJbmNyZWFzZTwvdGV4dD48cmVjdCBoZWlnaHQ9IjIyIiB3aWR0aD0iMjIuNjg3NjgzMTA1NDY4NzUiIHk9IjE3OCIgeD0iMTU5LjA2MDQyNDgwNDY4NzUiIGNsYXNzPSJlciBhdHRyaWJ1dGVCb3hFdmVuIj48L3JlY3Q+PHRleHQgc3R5bGU9ImRvbWluYW50LWJhc2VsaW5lOiBtaWRkbGU7IGZvbnQtc2l6ZTogMTAuMnB4OyIgdHJhbnNmb3JtPSJ0cmFuc2xhdGUoMTY0LjA2MDQyNDgwNDY4NzUsMTg5KSIgeT0iMCIgeD0iMCIgaWQ9InRleHQtZW50aXR5LWNvdmlkZGF0YS02NTZkNmJjZi0xYWY2LTU2YWUtYTUwYi0xNjUxYTk1MWEyODMtYXR0ci04LWtleSIgY2xhc3M9ImVyIGVudGl0eUxhYmVsIj48L3RleHQ+PHJlY3QgaGVpZ2h0PSIyMiIgd2lkdGg9IjUwLjA5NTE2OTA2NzM4MjgxIiB5PSIyMDAiIHg9IjAiIGNsYXNzPSJlciBhdHRyaWJ1dGVCb3hPZGQiPjwvcmVjdD48dGV4dCBzdHlsZT0iZG9taW5hbnQtYmFzZWxpbmU6IG1pZGRsZTsgZm9udC1zaXplOiAxMC4ycHg7IiB0cmFuc2Zvcm09InRyYW5zbGF0ZSg1LDIxMSkiIHk9IjAiIHg9IjAiIGlkPSJ0ZXh0LWVudGl0eS1jb3ZpZGRhdGEtNjU2ZDZiY2YtMWFmNi01NmFlLWE1MGItMTY1MWE5NTFhMjgzLWF0dHItOS10eXBlIiBjbGFzcz0iZXIgZW50aXR5TGFiZWwiPlRFWFQ8L3RleHQ+PHJlY3QgaGVpZ2h0PSIyMiIgd2lkdGg9IjEwOC45NjUyNTU3MzczMDQ2OSIgeT0iMjAwIiB4PSI1MC4wOTUxNjkwNjczODI4MSIgY2xhc3M9ImVyIGF0dHJpYnV0ZUJveE9kZCI+PC9yZWN0Pjx0ZXh0IHN0eWxlPSJkb21pbmFudC1iYXNlbGluZTogbWlkZGxlOyBmb250LXNpemU6IDEwLjJweDsiIHRyYW5zZm9ybT0idHJhbnNsYXRlKDU1LjA5NTE2OTA2NzM4MjgxLDIxMSkiIHk9IjAiIHg9IjAiIGlkPSJ0ZXh0LWVudGl0eS1jb3ZpZGRhdGEtNjU2ZDZiY2YtMWFmNi01NmFlLWE1MGItMTY1MWE5NTFhMjgzLWF0dHItOS1uYW1lIiBjbGFzcz0iZXIgZW50aXR5TGFiZWwiPmxhc3RNb2RpZmllZDwvdGV4dD48cmVjdCBoZWlnaHQ9IjIyIiB3aWR0aD0iMjIuNjg3NjgzMTA1NDY4NzUiIHk9IjIwMCIgeD0iMTU5LjA2MDQyNDgwNDY4NzUiIGNsYXNzPSJlciBhdHRyaWJ1dGVCb3hPZGQiPjwvcmVjdD48dGV4dCBzdHlsZT0iZG9taW5hbnQtYmFzZWxpbmU6IG1pZGRsZTsgZm9udC1zaXplOiAxMC4ycHg7IiB0cmFuc2Zvcm09InRyYW5zbGF0ZSgxNjQuMDYwNDI0ODA0Njg3NSwyMTEpIiB5PSIwIiB4PSIwIiBpZD0idGV4dC1lbnRpdHktY292aWRkYXRhLTY1NmQ2YmNmLTFhZjYtNTZhZS1hNTBiLTE2NTFhOTUxYTI4My1hdHRyLTkta2V5IiBjbGFzcz0iZXIgZW50aXR5TGFiZWwiPjwvdGV4dD48L2c+PGcgdHJhbnNmb3JtPSJ0cmFuc2xhdGUoMzAuODA1MTE0NzQ2MDkzNzUsMzQyICkiIGlkPSJlbnRpdHktY292aWRkYXRhZGlydHktMTk1ZDc1M2YtMTNiYy01ZjI3LTk5ZDYtZDdkYjIxMzNmMTFlIj48cmVjdCBoZWlnaHQ9IjM3NiIgd2lkdGg9IjE4MS43NDgxMDc5MTAxNTYyNSIgeT0iMCIgeD0iMCIgY2xhc3M9ImVyIGVudGl0eUJveCI+PC9yZWN0Pjx0ZXh0IHN0eWxlPSJkb21pbmFudC1iYXNlbGluZTogbWlkZGxlOyB0ZXh0LWFuY2hvcjogbWlkZGxlOyBmb250LXNpemU6IDEycHg7IiB0cmFuc2Zvcm09InRyYW5zbGF0ZSg5MC44NzQwNTM5NTUwNzgxMiwxMikiIHk9IjAiIHg9IjAiIGlkPSJ0ZXh0LWVudGl0eS1jb3ZpZGRhdGFkaXJ0eS0xOTVkNzUzZi0xM2JjLTVmMjctOTlkNi1kN2RiMjEzM2YxMWUiIGNsYXNzPSJlciBlbnRpdHlMYWJlbCI+Y292aWRfZGF0YV9kaXJ0eTwvdGV4dD48cmVjdCBoZWlnaHQ9IjIyIiB3aWR0aD0iNTAuMDk1MTY5MDY3MzgyODEiIHk9IjI0IiB4PSIwIiBjbGFzcz0iZXIgYXR0cmlidXRlQm94T2RkIj48L3JlY3Q+PHRleHQgc3R5bGU9ImRvbWluYW50LWJhc2VsaW5lOiBtaWRkbGU7IGZvbnQtc2l6ZTogMTAuMnB4OyIgdHJhbnNmb3JtPSJ0cmFuc2xhdGUoNSwzNSkiIHk9IjAiIHg9IjAiIGlkPSJ0ZXh0LWVudGl0eS1jb3ZpZGRhdGFkaXJ0eS0xOTVkNzUzZi0xM2JjLTVmMjctOTlkNi1kN2RiMjEzM2YxMWUtYXR0ci0xLXR5cGUiIGNsYXNzPSJlciBlbnRpdHlMYWJlbCI+VEVYVDwvdGV4dD48cmVjdCBoZWlnaHQ9IjIyIiB3aWR0aD0iMTA4Ljk2NTI1NTczNzMwNDY5IiB5PSIyNCIgeD0iNTAuMDk1MTY5MDY3MzgyODEiIGNsYXNzPSJlciBhdHRyaWJ1dGVCb3hPZGQiPjwvcmVjdD48dGV4dCBzdHlsZT0iZG9taW5hbnQtYmFzZWxpbmU6IG1pZGRsZTsgZm9udC1zaXplOiAxMC4ycHg7IiB0cmFuc2Zvcm09InRyYW5zbGF0ZSg1NS4wOTUxNjkwNjczODI4MSwzNSkiIHk9IjAiIHg9IjAiIGlkPSJ0ZXh0LWVudGl0eS1jb3ZpZGRhdGFkaXJ0eS0xOTVkNzUzZi0xM2JjLTVmMjctOTlkNi1kN2RiMjEzM2YxMWUtYXR0ci0xLW5hbWUiIGNsYXNzPSJlciBlbnRpdHlMYWJlbCI+aGFzaDwvdGV4dD48cmVjdCBoZWlnaHQ9IjIyIiB3aWR0aD0iMjIuNjg3NjgzMTA1NDY4NzUiIHk9IjI0IiB4PSIxNTkuMDYwNDI0ODA0Njg3NSIgY2xhc3M9ImVyIGF0dHJpYnV0ZUJveE9kZCI+PC9yZWN0Pjx0ZXh0IHN0eWxlPSJkb21pbmFudC1iYXNlbGluZTogbWlkZGxlOyBmb250LXNpemU6IDEwLjJweDsiIHRyYW5zZm9ybT0idHJhbnNsYXRlKDE2NC4wNjA0MjQ4MDQ2ODc1LDM1KSIgeT0iMCIgeD0iMCIgaWQ9InRleHQtZW50aXR5LWNvdmlkZGF0YWRpcnR5LTE5NWQ3NTNmLTEzYmMtNWYyNy05OWQ2LWQ3ZGIyMTMzZjExZS1hdHRyLTEta2V5IiBjbGFzcz0iZXIgZW50aXR5TGFiZWwiPlBLPC90ZXh0PjxyZWN0IGhlaWdodD0iMjIiIHdpZHRoPSI1MC4wOTUxNjkwNjczODI4MSIgeT0iNDYiIHg9IjAiIGNsYXNzPSJlciBhdHRyaWJ1dGVCb3hFdmVuIj48L3JlY3Q+PHRleHQgc3R5bGU9ImRvbWluYW50LWJhc2VsaW5lOiBtaWRkbGU7IGZvbnQtc2l6ZTogMTAuMnB4OyIgdHJhbnNmb3JtPSJ0cmFuc2xhdGUoNSw1NykiIHk9IjAiIHg9IjAiIGlkPSJ0ZXh0LWVudGl0eS1jb3ZpZGRhdGFkaXJ0eS0xOTVkNzUzZi0xM2JjLTVmMjctOTlkNi1kN2RiMjEzM2YxMWUtYXR0ci0yLXR5cGUiIGNsYXNzPSJlciBlbnRpdHlMYWJlbCI+SU5URUdFUjwvdGV4dD48cmVjdCBoZWlnaHQ9IjIyIiB3aWR0aD0iMTA4Ljk2NTI1NTczNzMwNDY5IiB5PSI0NiIgeD0iNTAuMDk1MTY5MDY3MzgyODEiIGNsYXNzPSJlciBhdHRyaWJ1dGVCb3hFdmVuIj48L3JlY3Q+PHRleHQgc3R5bGU9ImRvbWluYW50LWJhc2VsaW5lOiBtaWRkbGU7IGZvbnQtc2l6ZTogMTAuMnB4OyIgdHJhbnNmb3JtPSJ0cmFuc2xhdGUoNTUuMDk1MTY5MDY3MzgyODEsNTcpIiB5PSIwIiB4PSIwIiBpZD0idGV4dC1lbnRpdHktY292aWRkYXRhZGlydHktMTk1ZDc1M2YtMTNiYy01ZjI3LTk5ZDYtZDdkYjIxMzNmMTFlLWF0dHItMi1uYW1lIiBjbGFzcz0iZXIgZW50aXR5TGFiZWwiPmRhdGU8L3RleHQ+PHJlY3QgaGVpZ2h0PSIyMiIgd2lkdGg9IjIyLjY4NzY4MzEwNTQ2ODc1IiB5PSI0NiIgeD0iMTU5LjA2MDQyNDgwNDY4NzUiIGNsYXNzPSJlciBhdHRyaWJ1dGVCb3hFdmVuIj48L3JlY3Q+PHRleHQgc3R5bGU9ImRvbWluYW50LWJhc2VsaW5lOiBtaWRkbGU7IGZvbnQtc2l6ZTogMTAuMnB4OyIgdHJhbnNmb3JtPSJ0cmFuc2xhdGUoMTY0LjA2MDQyNDgwNDY4NzUsNTcpIiB5PSIwIiB4PSIwIiBpZD0idGV4dC1lbnRpdHktY292aWRkYXRhZGlydHktMTk1ZDc1M2YtMTNiYy01ZjI3LTk5ZDYtZDdkYjIxMzNmMTFlLWF0dHItMi1rZXkiIGNsYXNzPSJlciBlbnRpdHlMYWJlbCI+PC90ZXh0PjxyZWN0IGhlaWdodD0iMjIiIHdpZHRoPSI1MC4wOTUxNjkwNjczODI4MSIgeT0iNjgiIHg9IjAiIGNsYXNzPSJlciBhdHRyaWJ1dGVCb3hPZGQiPjwvcmVjdD48dGV4dCBzdHlsZT0iZG9taW5hbnQtYmFzZWxpbmU6IG1pZGRsZTsgZm9udC1zaXplOiAxMC4ycHg7IiB0cmFuc2Zvcm09InRyYW5zbGF0ZSg1LDc5KSIgeT0iMCIgeD0iMCIgaWQ9InRleHQtZW50aXR5LWNvdmlkZGF0YWRpcnR5LTE5NWQ3NTNmLTEzYmMtNWYyNy05OWQ2LWQ3ZGIyMTMzZjExZS1hdHRyLTMtdHlwZSIgY2xhc3M9ImVyIGVudGl0eUxhYmVsIj5URVhUPC90ZXh0PjxyZWN0IGhlaWdodD0iMjIiIHdpZHRoPSIxMDguOTY1MjU1NzM3MzA0NjkiIHk9IjY4IiB4PSI1MC4wOTUxNjkwNjczODI4MSIgY2xhc3M9ImVyIGF0dHJpYnV0ZUJveE9kZCI+PC9yZWN0Pjx0ZXh0IHN0eWxlPSJkb21pbmFudC1iYXNlbGluZTogbWlkZGxlOyBmb250LXNpemU6IDEwLjJweDsiIHRyYW5zZm9ybT0idHJhbnNsYXRlKDU1LjA5NTE2OTA2NzM4MjgxLDc5KSIgeT0iMCIgeD0iMCIgaWQ9InRleHQtZW50aXR5LWNvdmlkZGF0YWRpcnR5LTE5NWQ3NTNmLTEzYmMtNWYyNy05OWQ2LWQ3ZGIyMTMzZjExZS1hdHRyLTMtbmFtZSIgY2xhc3M9ImVyIGVudGl0eUxhYmVsIj5wb3NpdGl2ZTwvdGV4dD48cmVjdCBoZWlnaHQ9IjIyIiB3aWR0aD0iMjIuNjg3NjgzMTA1NDY4NzUiIHk9IjY4IiB4PSIxNTkuMDYwNDI0ODA0Njg3NSIgY2xhc3M9ImVyIGF0dHJpYnV0ZUJveE9kZCI+PC9yZWN0Pjx0ZXh0IHN0eWxlPSJkb21pbmFudC1iYXNlbGluZTogbWlkZGxlOyBmb250LXNpemU6IDEwLjJweDsiIHRyYW5zZm9ybT0idHJhbnNsYXRlKDE2NC4wNjA0MjQ4MDQ2ODc1LDc5KSIgeT0iMCIgeD0iMCIgaWQ9InRleHQtZW50aXR5LWNvdmlkZGF0YWRpcnR5LTE5NWQ3NTNmLTEzYmMtNWYyNy05OWQ2LWQ3ZGIyMTMzZjExZS1hdHRyLTMta2V5IiBjbGFzcz0iZXIgZW50aXR5TGFiZWwiPjwvdGV4dD48cmVjdCBoZWlnaHQ9IjIyIiB3aWR0aD0iNTAuMDk1MTY5MDY3MzgyODEiIHk9IjkwIiB4PSIwIiBjbGFzcz0iZXIgYXR0cmlidXRlQm94RXZlbiI+PC9yZWN0Pjx0ZXh0IHN0eWxlPSJkb21pbmFudC1iYXNlbGluZTogbWlkZGxlOyBmb250LXNpemU6IDEwLjJweDsiIHRyYW5zZm9ybT0idHJhbnNsYXRlKDUsMTAxKSIgeT0iMCIgeD0iMCIgaWQ9InRleHQtZW50aXR5LWNvdmlkZGF0YWRpcnR5LTE5NWQ3NTNmLTEzYmMtNWYyNy05OWQ2LWQ3ZGIyMTMzZjExZS1hdHRyLTQtdHlwZSIgY2xhc3M9ImVyIGVudGl0eUxhYmVsIj5URVhUPC90ZXh0PjxyZWN0IGhlaWdodD0iMjIiIHdpZHRoPSIxMDguOTY1MjU1NzM3MzA0NjkiIHk9IjkwIiB4PSI1MC4wOTUxNjkwNjczODI4MSIgY2xhc3M9ImVyIGF0dHJpYnV0ZUJveEV2ZW4iPjwvcmVjdD48dGV4dCBzdHlsZT0iZG9taW5hbnQtYmFzZWxpbmU6IG1pZGRsZTsgZm9udC1zaXplOiAxMC4ycHg7IiB0cmFuc2Zvcm09InRyYW5zbGF0ZSg1NS4wOTUxNjkwNjczODI4MSwxMDEpIiB5PSIwIiB4PSIwIiBpZD0idGV4dC1lbnRpdHktY292aWRkYXRhZGlydHktMTk1ZDc1M2YtMTNiYy01ZjI3LTk5ZDYtZDdkYjIxMzNmMTFlLWF0dHItNC1uYW1lIiBjbGFzcz0iZXIgZW50aXR5TGFiZWwiPmRlYXRoPC90ZXh0PjxyZWN0IGhlaWdodD0iMjIiIHdpZHRoPSIyMi42ODc2ODMxMDU0Njg3NSIgeT0iOTAiIHg9IjE1OS4wNjA0MjQ4MDQ2ODc1IiBjbGFzcz0iZXIgYXR0cmlidXRlQm94RXZlbiI+PC9yZWN0Pjx0ZXh0IHN0eWxlPSJkb21pbmFudC1iYXNlbGluZTogbWlkZGxlOyBmb250LXNpemU6IDEwLjJweDsiIHRyYW5zZm9ybT0idHJhbnNsYXRlKDE2NC4wNjA0MjQ4MDQ2ODc1LDEwMSkiIHk9IjAiIHg9IjAiIGlkPSJ0ZXh0LWVudGl0eS1jb3ZpZGRhdGFkaXJ0eS0xOTVkNzUzZi0xM2JjLTVmMjctOTlkNi1kN2RiMjEzM2YxMWUtYXR0ci00LWtleSIgY2xhc3M9ImVyIGVudGl0eUxhYmVsIj48L3RleHQ+PHJlY3QgaGVpZ2h0PSIyMiIgd2lkdGg9IjUwLjA5NTE2OTA2NzM4MjgxIiB5PSIxMTIiIHg9IjAiIGNsYXNzPSJlciBhdHRyaWJ1dGVCb3hPZGQiPjwvcmVjdD48dGV4dCBzdHlsZT0iZG9taW5hbnQtYmFzZWxpbmU6IG1pZGRsZTsgZm9udC1zaXplOiAxMC4ycHg7IiB0cmFuc2Zvcm09InRyYW5zbGF0ZSg1LDEyMykiIHk9IjAiIHg9IjAiIGlkPSJ0ZXh0LWVudGl0eS1jb3ZpZGRhdGFkaXJ0eS0xOTVkNzUzZi0xM2JjLTVmMjctOTlkNi1kN2RiMjEzM2YxMWUtYXR0ci01LXR5cGUiIGNsYXNzPSJlciBlbnRpdHlMYWJlbCI+SU5URUdFUjwvdGV4dD48cmVjdCBoZWlnaHQ9IjIyIiB3aWR0aD0iMTA4Ljk2NTI1NTczNzMwNDY5IiB5PSIxMTIiIHg9IjUwLjA5NTE2OTA2NzM4MjgxIiBjbGFzcz0iZXIgYXR0cmlidXRlQm94T2RkIj48L3JlY3Q+PHRleHQgc3R5bGU9ImRvbWluYW50LWJhc2VsaW5lOiBtaWRkbGU7IGZvbnQtc2l6ZTogMTAuMnB4OyIgdHJhbnNmb3JtPSJ0cmFuc2xhdGUoNTUuMDk1MTY5MDY3MzgyODEsMTIzKSIgeT0iMCIgeD0iMCIgaWQ9InRleHQtZW50aXR5LWNvdmlkZGF0YWRpcnR5LTE5NWQ3NTNmLTEzYmMtNWYyNy05OWQ2LWQ3ZGIyMTMzZjExZS1hdHRyLTUtbmFtZSIgY2xhc3M9ImVyIGVudGl0eUxhYmVsIj5ob3NwaXRhbGl6ZWRDdXJyZW50bHk8L3RleHQ+PHJlY3QgaGVpZ2h0PSIyMiIgd2lkdGg9IjIyLjY4NzY4MzEwNTQ2ODc1IiB5PSIxMTIiIHg9IjE1OS4wNjA0MjQ4MDQ2ODc1IiBjbGFzcz0iZXIgYXR0cmlidXRlQm94T2RkIj48L3JlY3Q+PHRleHQgc3R5bGU9ImRvbWluYW50LWJhc2VsaW5lOiBtaWRkbGU7IGZvbnQtc2l6ZTogMTAuMnB4OyIgdHJhbnNmb3JtPSJ0cmFuc2xhdGUoMTY0LjA2MDQyNDgwNDY4NzUsMTIzKSIgeT0iMCIgeD0iMCIgaWQ9InRleHQtZW50aXR5LWNvdmlkZGF0YWRpcnR5LTE5NWQ3NTNmLTEzYmMtNWYyNy05OWQ2LWQ3ZGIyMTMzZjExZS1hdHRyLTUta2V5IiBjbGFzcz0iZXIgZW50aXR5TGFiZWwiPjwvdGV4dD48cmVjdCBoZWlnaHQ9IjIyIiB3aWR0aD0iNTAuMDk1MTY5MDY3MzgyODEiIHk9IjEzNCIgeD0iMCIgY2xhc3M9ImVyIGF0dHJpYnV0ZUJveEV2ZW4iPjwvcmVjdD48dGV4dCBzdHlsZT0iZG9taW5hbnQtYmFzZWxpbmU6IG1pZGRsZTsgZm9udC1zaXplOiAxMC4ycHg7IiB0cmFuc2Zvcm09InRyYW5zbGF0ZSg1LDE0NSkiIHk9IjAiIHg9IjAiIGlkPSJ0ZXh0LWVudGl0eS1jb3ZpZGRhdGFkaXJ0eS0xOTVkNzUzZi0xM2JjLTVmMjctOTlkNi1kN2RiMjEzM2YxMWUtYXR0ci02LXR5cGUiIGNsYXNzPSJlciBlbnRpdHlMYWJlbCI+SU5URUdFUjwvdGV4dD48cmVjdCBoZWlnaHQ9IjIyIiB3aWR0aD0iMTA4Ljk2NTI1NTczNzMwNDY5IiB5PSIxMzQiIHg9IjUwLjA5NTE2OTA2NzM4MjgxIiBjbGFzcz0iZXIgYXR0cmlidXRlQm94RXZlbiI+PC9yZWN0Pjx0ZXh0IHN0eWxlPSJkb21pbmFudC1iYXNlbGluZTogbWlkZGxlOyBmb250LXNpemU6IDEwLjJweDsiIHRyYW5zZm9ybT0idHJhbnNsYXRlKDU1LjA5NTE2OTA2NzM4MjgxLDE0NSkiIHk9IjAiIHg9IjAiIGlkPSJ0ZXh0LWVudGl0eS1jb3ZpZGRhdGFkaXJ0eS0xOTVkNzUzZi0xM2JjLTVmMjctOTlkNi1kN2RiMjEzM2YxMWUtYXR0ci02LW5hbWUiIGNsYXNzPSJlciBlbnRpdHlMYWJlbCI+dG90YWxUZXN0UmVzdWx0czwvdGV4dD48cmVjdCBoZWlnaHQ9IjIyIiB3aWR0aD0iMjIuNjg3NjgzMTA1NDY4NzUiIHk9IjEzNCIgeD0iMTU5LjA2MDQyNDgwNDY4NzUiIGNsYXNzPSJlciBhdHRyaWJ1dGVCb3hFdmVuIj48L3JlY3Q+PHRleHQgc3R5bGU9ImRvbWluYW50LWJhc2VsaW5lOiBtaWRkbGU7IGZvbnQtc2l6ZTogMTAuMnB4OyIgdHJhbnNmb3JtPSJ0cmFuc2xhdGUoMTY0LjA2MDQyNDgwNDY4NzUsMTQ1KSIgeT0iMCIgeD0iMCIgaWQ9InRleHQtZW50aXR5LWNvdmlkZGF0YWRpcnR5LTE5NWQ3NTNmLTEzYmMtNWYyNy05OWQ2LWQ3ZGIyMTMzZjExZS1hdHRyLTYta2V5IiBjbGFzcz0iZXIgZW50aXR5TGFiZWwiPjwvdGV4dD48cmVjdCBoZWlnaHQ9IjIyIiB3aWR0aD0iNTAuMDk1MTY5MDY3MzgyODEiIHk9IjE1NiIgeD0iMCIgY2xhc3M9ImVyIGF0dHJpYnV0ZUJveE9kZCI+PC9yZWN0Pjx0ZXh0IHN0eWxlPSJkb21pbmFudC1iYXNlbGluZTogbWlkZGxlOyBmb250LXNpemU6IDEwLjJweDsiIHRyYW5zZm9ybT0idHJhbnNsYXRlKDUsMTY3KSIgeT0iMCIgeD0iMCIgaWQ9InRleHQtZW50aXR5LWNvdmlkZGF0YWRpcnR5LTE5NWQ3NTNmLTEzYmMtNWYyNy05OWQ2LWQ3ZGIyMTMzZjExZS1hdHRyLTctdHlwZSIgY2xhc3M9ImVyIGVudGl0eUxhYmVsIj5JTlRFR0VSPC90ZXh0PjxyZWN0IGhlaWdodD0iMjIiIHdpZHRoPSIxMDguOTY1MjU1NzM3MzA0NjkiIHk9IjE1NiIgeD0iNTAuMDk1MTY5MDY3MzgyODEiIGNsYXNzPSJlciBhdHRyaWJ1dGVCb3hPZGQiPjwvcmVjdD48dGV4dCBzdHlsZT0iZG9taW5hbnQtYmFzZWxpbmU6IG1pZGRsZTsgZm9udC1zaXplOiAxMC4ycHg7IiB0cmFuc2Zvcm09InRyYW5zbGF0ZSg1NS4wOTUxNjkwNjczODI4MSwxNjcpIiB5PSIwIiB4PSIwIiBpZD0idGV4dC1lbnRpdHktY292aWRkYXRhZGlydHktMTk1ZDc1M2YtMTNiYy01ZjI3LTk5ZDYtZDdkYjIxMzNmMTFlLWF0dHItNy1uYW1lIiBjbGFzcz0iZXIgZW50aXR5TGFiZWwiPnBvc2l0aXZlSW5jcmVhc2U8L3RleHQ+PHJlY3QgaGVpZ2h0PSIyMiIgd2lkdGg9IjIyLjY4NzY4MzEwNTQ2ODc1IiB5PSIxNTYiIHg9IjE1OS4wNjA0MjQ4MDQ2ODc1IiBjbGFzcz0iZXIgYXR0cmlidXRlQm94T2RkIj48L3JlY3Q+PHRleHQgc3R5bGU9ImRvbWluYW50LWJhc2VsaW5lOiBtaWRkbGU7IGZvbnQtc2l6ZTogMTAuMnB4OyIgdHJhbnNmb3JtPSJ0cmFuc2xhdGUoMTY0LjA2MDQyNDgwNDY4NzUsMTY3KSIgeT0iMCIgeD0iMCIgaWQ9InRleHQtZW50aXR5LWNvdmlkZGF0YWRpcnR5LTE5NWQ3NTNmLTEzYmMtNWYyNy05OWQ2LWQ3ZGIyMTMzZjExZS1hdHRyLTcta2V5IiBjbGFzcz0iZXIgZW50aXR5TGFiZWwiPjwvdGV4dD48cmVjdCBoZWlnaHQ9IjIyIiB3aWR0aD0iNTAuMDk1MTY5MDY3MzgyODEiIHk9IjE3OCIgeD0iMCIgY2xhc3M9ImVyIGF0dHJpYnV0ZUJveEV2ZW4iPjwvcmVjdD48dGV4dCBzdHlsZT0iZG9taW5hbnQtYmFzZWxpbmU6IG1pZGRsZTsgZm9udC1zaXplOiAxMC4ycHg7IiB0cmFuc2Zvcm09InRyYW5zbGF0ZSg1LDE4OSkiIHk9IjAiIHg9IjAiIGlkPSJ0ZXh0LWVudGl0eS1jb3ZpZGRhdGFkaXJ0eS0xOTVkNzUzZi0xM2JjLTVmMjctOTlkNi1kN2RiMjEzM2YxMWUtYXR0ci04LXR5cGUiIGNsYXNzPSJlciBlbnRpdHlMYWJlbCI+SU5URUdFUjwvdGV4dD48cmVjdCBoZWlnaHQ9IjIyIiB3aWR0aD0iMTA4Ljk2NTI1NTczNzMwNDY5IiB5PSIxNzgiIHg9IjUwLjA5NTE2OTA2NzM4MjgxIiBjbGFzcz0iZXIgYXR0cmlidXRlQm94RXZlbiI+PC9yZWN0Pjx0ZXh0IHN0eWxlPSJkb21pbmFudC1iYXNlbGluZTogbWlkZGxlOyBmb250LXNpemU6IDEwLjJweDsiIHRyYW5zZm9ybT0idHJhbnNsYXRlKDU1LjA5NTE2OTA2NzM4MjgxLDE4OSkiIHk9IjAiIHg9IjAiIGlkPSJ0ZXh0LWVudGl0eS1jb3ZpZGRhdGFkaXJ0eS0xOTVkNzUzZi0xM2JjLTVmMjctOTlkNi1kN2RiMjEzM2YxMWUtYXR0ci04LW5hbWUiIGNsYXNzPSJlciBlbnRpdHlMYWJlbCI+ZGVhdGhJbmNyZWFzZTwvdGV4dD48cmVjdCBoZWlnaHQ9IjIyIiB3aWR0aD0iMjIuNjg3NjgzMTA1NDY4NzUiIHk9IjE3OCIgeD0iMTU5LjA2MDQyNDgwNDY4NzUiIGNsYXNzPSJlciBhdHRyaWJ1dGVCb3hFdmVuIj48L3JlY3Q+PHRleHQgc3R5bGU9ImRvbWluYW50LWJhc2VsaW5lOiBtaWRkbGU7IGZvbnQtc2l6ZTogMTAuMnB4OyIgdHJhbnNmb3JtPSJ0cmFuc2xhdGUoMTY0LjA2MDQyNDgwNDY4NzUsMTg5KSIgeT0iMCIgeD0iMCIgaWQ9InRleHQtZW50aXR5LWNvdmlkZGF0YWRpcnR5LTE5NWQ3NTNmLTEzYmMtNWYyNy05OWQ2LWQ3ZGIyMTMzZjExZS1hdHRyLTgta2V5IiBjbGFzcz0iZXIgZW50aXR5TGFiZWwiPjwvdGV4dD48cmVjdCBoZWlnaHQ9IjIyIiB3aWR0aD0iNTAuMDk1MTY5MDY3MzgyODEiIHk9IjIwMCIgeD0iMCIgY2xhc3M9ImVyIGF0dHJpYnV0ZUJveE9kZCI+PC9yZWN0Pjx0ZXh0IHN0eWxlPSJkb21pbmFudC1iYXNlbGluZTogbWlkZGxlOyBmb250LXNpemU6IDEwLjJweDsiIHRyYW5zZm9ybT0idHJhbnNsYXRlKDUsMjExKSIgeT0iMCIgeD0iMCIgaWQ9InRleHQtZW50aXR5LWNvdmlkZGF0YWRpcnR5LTE5NWQ3NTNmLTEzYmMtNWYyNy05OWQ2LWQ3ZGIyMTMzZjExZS1hdHRyLTktdHlwZSIgY2xhc3M9ImVyIGVudGl0eUxhYmVsIj5URVhUPC90ZXh0PjxyZWN0IGhlaWdodD0iMjIiIHdpZHRoPSIxMDguOTY1MjU1NzM3MzA0NjkiIHk9IjIwMCIgeD0iNTAuMDk1MTY5MDY3MzgyODEiIGNsYXNzPSJlciBhdHRyaWJ1dGVCb3hPZGQiPjwvcmVjdD48dGV4dCBzdHlsZT0iZG9taW5hbnQtYmFzZWxpbmU6IG1pZGRsZTsgZm9udC1zaXplOiAxMC4ycHg7IiB0cmFuc2Zvcm09InRyYW5zbGF0ZSg1NS4wOTUxNjkwNjczODI4MSwyMTEpIiB5PSIwIiB4PSIwIiBpZD0idGV4dC1lbnRpdHktY292aWRkYXRhZGlydHktMTk1ZDc1M2YtMTNiYy01ZjI3LTk5ZDYtZDdkYjIxMzNmMTFlLWF0dHItOS1uYW1lIiBjbGFzcz0iZXIgZW50aXR5TGFiZWwiPmxhc3RNb2RpZmllZDwvdGV4dD48cmVjdCBoZWlnaHQ9IjIyIiB3aWR0aD0iMjIuNjg3NjgzMTA1NDY4NzUiIHk9IjIwMCIgeD0iMTU5LjA2MDQyNDgwNDY4NzUiIGNsYXNzPSJlciBhdHRyaWJ1dGVCb3hPZGQiPjwvcmVjdD48dGV4dCBzdHlsZT0iZG9taW5hbnQtYmFzZWxpbmU6IG1pZGRsZTsgZm9udC1zaXplOiAxMC4ycHg7IiB0cmFuc2Zvcm09InRyYW5zbGF0ZSgxNjQuMDYwNDI0ODA0Njg3NSwyMTEpIiB5PSIwIiB4PSIwIiBpZD0idGV4dC1lbnRpdHktY292aWRkYXRhZGlydHktMTk1ZDc1M2YtMTNiYy01ZjI3LTk5ZDYtZDdkYjIxMzNmMTFlLWF0dHItOS1rZXkiIGNsYXNzPSJlciBlbnRpdHlMYWJlbCI+PC90ZXh0PjxyZWN0IGhlaWdodD0iMjIiIHdpZHRoPSI1MC4wOTUxNjkwNjczODI4MSIgeT0iMjIyIiB4PSIwIiBjbGFzcz0iZXIgYXR0cmlidXRlQm94RXZlbiI+PC9yZWN0Pjx0ZXh0IHN0eWxlPSJkb21pbmFudC1iYXNlbGluZTogbWlkZGxlOyBmb250LXNpemU6IDEwLjJweDsiIHRyYW5zZm9ybT0idHJhbnNsYXRlKDUsMjMzKSIgeT0iMCIgeD0iMCIgaWQ9InRleHQtZW50aXR5LWNvdmlkZGF0YWRpcnR5LTE5NWQ3NTNmLTEzYmMtNWYyNy05OWQ2LWQ3ZGIyMTMzZjExZS1hdHRyLTEwLXR5cGUiIGNsYXNzPSJlciBlbnRpdHlMYWJlbCI+VEVYVDwvdGV4dD48cmVjdCBoZWlnaHQ9IjIyIiB3aWR0aD0iMTA4Ljk2NTI1NTczNzMwNDY5IiB5PSIyMjIiIHg9IjUwLjA5NTE2OTA2NzM4MjgxIiBjbGFzcz0iZXIgYXR0cmlidXRlQm94RXZlbiI+PC9yZWN0Pjx0ZXh0IHN0eWxlPSJkb21pbmFudC1iYXNlbGluZTogbWlkZGxlOyBmb250LXNpemU6IDEwLjJweDsiIHRyYW5zZm9ybT0idHJhbnNsYXRlKDU1LjA5NTE2OTA2NzM4MjgxLDIzMykiIHk9IjAiIHg9IjAiIGlkPSJ0ZXh0LWVudGl0eS1jb3ZpZGRhdGFkaXJ0eS0xOTVkNzUzZi0xM2JjLTVmMjctOTlkNi1kN2RiMjEzM2YxMWUtYXR0ci0xMC1uYW1lIiBjbGFzcz0iZXIgZW50aXR5TGFiZWwiPnJlZ2lzdHJvX251bG88L3RleHQ+PHJlY3QgaGVpZ2h0PSIyMiIgd2lkdGg9IjIyLjY4NzY4MzEwNTQ2ODc1IiB5PSIyMjIiIHg9IjE1OS4wNjA0MjQ4MDQ2ODc1IiBjbGFzcz0iZXIgYXR0cmlidXRlQm94RXZlbiI+PC9yZWN0Pjx0ZXh0IHN0eWxlPSJkb21pbmFudC1iYXNlbGluZTogbWlkZGxlOyBmb250LXNpemU6IDEwLjJweDsiIHRyYW5zZm9ybT0idHJhbnNsYXRlKDE2NC4wNjA0MjQ4MDQ2ODc1LDIzMykiIHk9IjAiIHg9IjAiIGlkPSJ0ZXh0LWVudGl0eS1jb3ZpZGRhdGFkaXJ0eS0xOTVkNzUzZi0xM2JjLTVmMjctOTlkNi1kN2RiMjEzM2YxMWUtYXR0ci0xMC1rZXkiIGNsYXNzPSJlciBlbnRpdHlMYWJlbCI+PC90ZXh0PjxyZWN0IGhlaWdodD0iMjIiIHdpZHRoPSI1MC4wOTUxNjkwNjczODI4MSIgeT0iMjQ0IiB4PSIwIiBjbGFzcz0iZXIgYXR0cmlidXRlQm94T2RkIj48L3JlY3Q+PHRleHQgc3R5bGU9ImRvbWluYW50LWJhc2VsaW5lOiBtaWRkbGU7IGZvbnQtc2l6ZTogMTAuMnB4OyIgdHJhbnNmb3JtPSJ0cmFuc2xhdGUoNSwyNTUpIiB5PSIwIiB4PSIwIiBpZD0idGV4dC1lbnRpdHktY292aWRkYXRhZGlydHktMTk1ZDc1M2YtMTNiYy01ZjI3LTk5ZDYtZDdkYjIxMzNmMTFlLWF0dHItMTEtdHlwZSIgY2xhc3M9ImVyIGVudGl0eUxhYmVsIj5JTlRFR0VSPC90ZXh0PjxyZWN0IGhlaWdodD0iMjIiIHdpZHRoPSIxMDguOTY1MjU1NzM3MzA0NjkiIHk9IjI0NCIgeD0iNTAuMDk1MTY5MDY3MzgyODEiIGNsYXNzPSJlciBhdHRyaWJ1dGVCb3hPZGQiPjwvcmVjdD48dGV4dCBzdHlsZT0iZG9taW5hbnQtYmFzZWxpbmU6IG1pZGRsZTsgZm9udC1zaXplOiAxMC4ycHg7IiB0cmFuc2Zvcm09InRyYW5zbGF0ZSg1NS4wOTUxNjkwNjczODI4MSwyNTUpIiB5PSIwIiB4PSIwIiBpZD0idGV4dC1lbnRpdHktY292aWRkYXRhZGlydHktMTk1ZDc1M2YtMTNiYy01ZjI3LTk5ZDYtZDdkYjIxMzNmMTFlLWF0dHItMTEtbmFtZSIgY2xhc3M9ImVyIGVudGl0eUxhYmVsIj5mZWNoYV9kdXBsaWNhZGE8L3RleHQ+PHJlY3QgaGVpZ2h0PSIyMiIgd2lkdGg9IjIyLjY4NzY4MzEwNTQ2ODc1IiB5PSIyNDQiIHg9IjE1OS4wNjA0MjQ4MDQ2ODc1IiBjbGFzcz0iZXIgYXR0cmlidXRlQm94T2RkIj48L3JlY3Q+PHRleHQgc3R5bGU9ImRvbWluYW50LWJhc2VsaW5lOiBtaWRkbGU7IGZvbnQtc2l6ZTogMTAuMnB4OyIgdHJhbnNmb3JtPSJ0cmFuc2xhdGUoMTY0LjA2MDQyNDgwNDY4NzUsMjU1KSIgeT0iMCIgeD0iMCIgaWQ9InRleHQtZW50aXR5LWNvdmlkZGF0YWRpcnR5LTE5NWQ3NTNmLTEzYmMtNWYyNy05OWQ2LWQ3ZGIyMTMzZjExZS1hdHRyLTExLWtleSIgY2xhc3M9ImVyIGVudGl0eUxhYmVsIj48L3RleHQ+PHJlY3QgaGVpZ2h0PSIyMiIgd2lkdGg9IjUwLjA5NTE2OTA2NzM4MjgxIiB5PSIyNjYiIHg9IjAiIGNsYXNzPSJlciBhdHRyaWJ1dGVCb3hFdmVuIj48L3JlY3Q+PHRleHQgc3R5bGU9ImRvbWluYW50LWJhc2VsaW5lOiBtaWRkbGU7IGZvbnQtc2l6ZTogMTAuMnB4OyIgdHJhbnNmb3JtPSJ0cmFuc2xhdGUoNSwyNzcpIiB5PSIwIiB4PSIwIiBpZD0idGV4dC1lbnRpdHktY292aWRkYXRhZGlydHktMTk1ZDc1M2YtMTNiYy01ZjI3LTk5ZDYtZDdkYjIxMzNmMTFlLWF0dHItMTItdHlwZSIgY2xhc3M9ImVyIGVudGl0eUxhYmVsIj5URVhUPC90ZXh0PjxyZWN0IGhlaWdodD0iMjIiIHdpZHRoPSIxMDguOTY1MjU1NzM3MzA0NjkiIHk9IjI2NiIgeD0iNTAuMDk1MTY5MDY3MzgyODEiIGNsYXNzPSJlciBhdHRyaWJ1dGVCb3hFdmVuIj48L3JlY3Q+PHRleHQgc3R5bGU9ImRvbWluYW50LWJhc2VsaW5lOiBtaWRkbGU7IGZvbnQtc2l6ZTogMTAuMnB4OyIgdHJhbnNmb3JtPSJ0cmFuc2xhdGUoNTUuMDk1MTY5MDY3MzgyODEsMjc3KSIgeT0iMCIgeD0iMCIgaWQ9InRleHQtZW50aXR5LWNvdmlkZGF0YWRpcnR5LTE5NWQ3NTNmLTEzYmMtNWYyNy05OWQ2LWQ3ZGIyMTMzZjExZS1hdHRyLTEyLW5hbWUiIGNsYXNzPSJlciBlbnRpdHlMYWJlbCI+cG9zaXRpdmVfZHVwbGljYWRhPC90ZXh0PjxyZWN0IGhlaWdodD0iMjIiIHdpZHRoPSIyMi42ODc2ODMxMDU0Njg3NSIgeT0iMjY2IiB4PSIxNTkuMDYwNDI0ODA0Njg3NSIgY2xhc3M9ImVyIGF0dHJpYnV0ZUJveEV2ZW4iPjwvcmVjdD48dGV4dCBzdHlsZT0iZG9taW5hbnQtYmFzZWxpbmU6IG1pZGRsZTsgZm9udC1zaXplOiAxMC4ycHg7IiB0cmFuc2Zvcm09InRyYW5zbGF0ZSgxNjQuMDYwNDI0ODA0Njg3NSwyNzcpIiB5PSIwIiB4PSIwIiBpZD0idGV4dC1lbnRpdHktY292aWRkYXRhZGlydHktMTk1ZDc1M2YtMTNiYy01ZjI3LTk5ZDYtZDdkYjIxMzNmMTFlLWF0dHItMTIta2V5IiBjbGFzcz0iZXIgZW50aXR5TGFiZWwiPjwvdGV4dD48cmVjdCBoZWlnaHQ9IjIyIiB3aWR0aD0iNTAuMDk1MTY5MDY3MzgyODEiIHk9IjI4OCIgeD0iMCIgY2xhc3M9ImVyIGF0dHJpYnV0ZUJveE9kZCI+PC9yZWN0Pjx0ZXh0IHN0eWxlPSJkb21pbmFudC1iYXNlbGluZTogbWlkZGxlOyBmb250LXNpemU6IDEwLjJweDsiIHRyYW5zZm9ybT0idHJhbnNsYXRlKDUsMjk5KSIgeT0iMCIgeD0iMCIgaWQ9InRleHQtZW50aXR5LWNvdmlkZGF0YWRpcnR5LTE5NWQ3NTNmLTEzYmMtNWYyNy05OWQ2LWQ3ZGIyMTMzZjExZS1hdHRyLTEzLXR5cGUiIGNsYXNzPSJlciBlbnRpdHlMYWJlbCI+VEVYVDwvdGV4dD48cmVjdCBoZWlnaHQ9IjIyIiB3aWR0aD0iMTA4Ljk2NTI1NTczNzMwNDY5IiB5PSIyODgiIHg9IjUwLjA5NTE2OTA2NzM4MjgxIiBjbGFzcz0iZXIgYXR0cmlidXRlQm94T2RkIj48L3JlY3Q+PHRleHQgc3R5bGU9ImRvbWluYW50LWJhc2VsaW5lOiBtaWRkbGU7IGZvbnQtc2l6ZTogMTAuMnB4OyIgdHJhbnNmb3JtPSJ0cmFuc2xhdGUoNTUuMDk1MTY5MDY3MzgyODEsMjk5KSIgeT0iMCIgeD0iMCIgaWQ9InRleHQtZW50aXR5LWNvdmlkZGF0YWRpcnR5LTE5NWQ3NTNmLTEzYmMtNWYyNy05OWQ2LWQ3ZGIyMTMzZjExZS1hdHRyLTEzLW5hbWUiIGNsYXNzPSJlciBlbnRpdHlMYWJlbCI+ZGVhdGhfZHVwbGljYWRhPC90ZXh0PjxyZWN0IGhlaWdodD0iMjIiIHdpZHRoPSIyMi42ODc2ODMxMDU0Njg3NSIgeT0iMjg4IiB4PSIxNTkuMDYwNDI0ODA0Njg3NSIgY2xhc3M9ImVyIGF0dHJpYnV0ZUJveE9kZCI+PC9yZWN0Pjx0ZXh0IHN0eWxlPSJkb21pbmFudC1iYXNlbGluZTogbWlkZGxlOyBmb250LXNpemU6IDEwLjJweDsiIHRyYW5zZm9ybT0idHJhbnNsYXRlKDE2NC4wNjA0MjQ4MDQ2ODc1LDI5OSkiIHk9IjAiIHg9IjAiIGlkPSJ0ZXh0LWVudGl0eS1jb3ZpZGRhdGFkaXJ0eS0xOTVkNzUzZi0xM2JjLTVmMjctOTlkNi1kN2RiMjEzM2YxMWUtYXR0ci0xMy1rZXkiIGNsYXNzPSJlciBlbnRpdHlMYWJlbCI+PC90ZXh0PjxyZWN0IGhlaWdodD0iMjIiIHdpZHRoPSI1MC4wOTUxNjkwNjczODI4MSIgeT0iMzEwIiB4PSIwIiBjbGFzcz0iZXIgYXR0cmlidXRlQm94RXZlbiI+PC9yZWN0Pjx0ZXh0IHN0eWxlPSJkb21pbmFudC1iYXNlbGluZTogbWlkZGxlOyBmb250LXNpemU6IDEwLjJweDsiIHRyYW5zZm9ybT0idHJhbnNsYXRlKDUsMzIxKSIgeT0iMCIgeD0iMCIgaWQ9InRleHQtZW50aXR5LWNvdmlkZGF0YWRpcnR5LTE5NWQ3NTNmLTEzYmMtNWYyNy05OWQ2LWQ3ZGIyMTMzZjExZS1hdHRyLTE0LXR5cGUiIGNsYXNzPSJlciBlbnRpdHlMYWJlbCI+VEVYVDwvdGV4dD48cmVjdCBoZWlnaHQ9IjIyIiB3aWR0aD0iMTA4Ljk2NTI1NTczNzMwNDY5IiB5PSIzMTAiIHg9IjUwLjA5NTE2OTA2NzM4MjgxIiBjbGFzcz0iZXIgYXR0cmlidXRlQm94RXZlbiI+PC9yZWN0Pjx0ZXh0IHN0eWxlPSJkb21pbmFudC1iYXNlbGluZTogbWlkZGxlOyBmb250LXNpemU6IDEwLjJweDsiIHRyYW5zZm9ybT0idHJhbnNsYXRlKDU1LjA5NTE2OTA2NzM4MjgxLDMyMSkiIHk9IjAiIHg9IjAiIGlkPSJ0ZXh0LWVudGl0eS1jb3ZpZGRhdGFkaXJ0eS0xOTVkNzUzZi0xM2JjLTVmMjctOTlkNi1kN2RiMjEzM2YxMWUtYXR0ci0xNC1uYW1lIiBjbGFzcz0iZXIgZW50aXR5TGFiZWwiPmNvbHVtbmFfaW51dGlsXzE8L3RleHQ+PHJlY3QgaGVpZ2h0PSIyMiIgd2lkdGg9IjIyLjY4NzY4MzEwNTQ2ODc1IiB5PSIzMTAiIHg9IjE1OS4wNjA0MjQ4MDQ2ODc1IiBjbGFzcz0iZXIgYXR0cmlidXRlQm94RXZlbiI+PC9yZWN0Pjx0ZXh0IHN0eWxlPSJkb21pbmFudC1iYXNlbGluZTogbWlkZGxlOyBmb250LXNpemU6IDEwLjJweDsiIHRyYW5zZm9ybT0idHJhbnNsYXRlKDE2NC4wNjA0MjQ4MDQ2ODc1LDMyMSkiIHk9IjAiIHg9IjAiIGlkPSJ0ZXh0LWVudGl0eS1jb3ZpZGRhdGFkaXJ0eS0xOTVkNzUzZi0xM2JjLTVmMjctOTlkNi1kN2RiMjEzM2YxMWUtYXR0ci0xNC1rZXkiIGNsYXNzPSJlciBlbnRpdHlMYWJlbCI+PC90ZXh0PjxyZWN0IGhlaWdodD0iMjIiIHdpZHRoPSI1MC4wOTUxNjkwNjczODI4MSIgeT0iMzMyIiB4PSIwIiBjbGFzcz0iZXIgYXR0cmlidXRlQm94T2RkIj48L3JlY3Q+PHRleHQgc3R5bGU9ImRvbWluYW50LWJhc2VsaW5lOiBtaWRkbGU7IGZvbnQtc2l6ZTogMTAuMnB4OyIgdHJhbnNmb3JtPSJ0cmFuc2xhdGUoNSwzNDMpIiB5PSIwIiB4PSIwIiBpZD0idGV4dC1lbnRpdHktY292aWRkYXRhZGlydHktMTk1ZDc1M2YtMTNiYy01ZjI3LTk5ZDYtZDdkYjIxMzNmMTFlLWF0dHItMTUtdHlwZSIgY2xhc3M9ImVyIGVudGl0eUxhYmVsIj5URVhUPC90ZXh0PjxyZWN0IGhlaWdodD0iMjIiIHdpZHRoPSIxMDguOTY1MjU1NzM3MzA0NjkiIHk9IjMzMiIgeD0iNTAuMDk1MTY5MDY3MzgyODEiIGNsYXNzPSJlciBhdHRyaWJ1dGVCb3hPZGQiPjwvcmVjdD48dGV4dCBzdHlsZT0iZG9taW5hbnQtYmFzZWxpbmU6IG1pZGRsZTsgZm9udC1zaXplOiAxMC4ycHg7IiB0cmFuc2Zvcm09InRyYW5zbGF0ZSg1NS4wOTUxNjkwNjczODI4MSwzNDMpIiB5PSIwIiB4PSIwIiBpZD0idGV4dC1lbnRpdHktY292aWRkYXRhZGlydHktMTk1ZDc1M2YtMTNiYy01ZjI3LTk5ZDYtZDdkYjIxMzNmMTFlLWF0dHItMTUtbmFtZSIgY2xhc3M9ImVyIGVudGl0eUxhYmVsIj5jb2x1bW5hX2ludXRpbF8yPC90ZXh0PjxyZWN0IGhlaWdodD0iMjIiIHdpZHRoPSIyMi42ODc2ODMxMDU0Njg3NSIgeT0iMzMyIiB4PSIxNTkuMDYwNDI0ODA0Njg3NSIgY2xhc3M9ImVyIGF0dHJpYnV0ZUJveE9kZCI+PC9yZWN0Pjx0ZXh0IHN0eWxlPSJkb21pbmFudC1iYXNlbGluZTogbWlkZGxlOyBmb250LXNpemU6IDEwLjJweDsiIHRyYW5zZm9ybT0idHJhbnNsYXRlKDE2NC4wNjA0MjQ4MDQ2ODc1LDM0MykiIHk9IjAiIHg9IjAiIGlkPSJ0ZXh0LWVudGl0eS1jb3ZpZGRhdGFkaXJ0eS0xOTVkNzUzZi0xM2JjLTVmMjctOTlkNi1kN2RiMjEzM2YxMWUtYXR0ci0xNS1rZXkiIGNsYXNzPSJlciBlbnRpdHlMYWJlbCI+PC90ZXh0PjxyZWN0IGhlaWdodD0iMjIiIHdpZHRoPSI1MC4wOTUxNjkwNjczODI4MSIgeT0iMzU0IiB4PSIwIiBjbGFzcz0iZXIgYXR0cmlidXRlQm94RXZlbiI+PC9yZWN0Pjx0ZXh0IHN0eWxlPSJkb21pbmFudC1iYXNlbGluZTogbWlkZGxlOyBmb250LXNpemU6IDEwLjJweDsiIHRyYW5zZm9ybT0idHJhbnNsYXRlKDUsMzY1KSIgeT0iMCIgeD0iMCIgaWQ9InRleHQtZW50aXR5LWNvdmlkZGF0YWRpcnR5LTE5NWQ3NTNmLTEzYmMtNWYyNy05OWQ2LWQ3ZGIyMTMzZjExZS1hdHRyLTE2LXR5cGUiIGNsYXNzPSJlciBlbnRpdHlMYWJlbCI+SU5URUdFUjwvdGV4dD48cmVjdCBoZWlnaHQ9IjIyIiB3aWR0aD0iMTA4Ljk2NTI1NTczNzMwNDY5IiB5PSIzNTQiIHg9IjUwLjA5NTE2OTA2NzM4MjgxIiBjbGFzcz0iZXIgYXR0cmlidXRlQm94RXZlbiI+PC9yZWN0Pjx0ZXh0IHN0eWxlPSJkb21pbmFudC1iYXNlbGluZTogbWlkZGxlOyBmb250LXNpemU6IDEwLjJweDsiIHRyYW5zZm9ybT0idHJhbnNsYXRlKDU1LjA5NTE2OTA2NzM4MjgxLDM2NSkiIHk9IjAiIHg9IjAiIGlkPSJ0ZXh0LWVudGl0eS1jb3ZpZGRhdGFkaXJ0eS0xOTVkNzUzZi0xM2JjLTVmMjctOTlkNi1kN2RiMjEzM2YxMWUtYXR0ci0xNi1uYW1lIiBjbGFzcz0iZXIgZW50aXR5TGFiZWwiPmZlY2hhX3N1Y2lhPC90ZXh0PjxyZWN0IGhlaWdodD0iMjIiIHdpZHRoPSIyMi42ODc2ODMxMDU0Njg3NSIgeT0iMzU0IiB4PSIxNTkuMDYwNDI0ODA0Njg3NSIgY2xhc3M9ImVyIGF0dHJpYnV0ZUJveEV2ZW4iPjwvcmVjdD48dGV4dCBzdHlsZT0iZG9taW5hbnQtYmFzZWxpbmU6IG1pZGRsZTsgZm9udC1zaXplOiAxMC4ycHg7IiB0cmFuc2Zvcm09InRyYW5zbGF0ZSgxNjQuMDYwNDI0ODA0Njg3NSwzNjUpIiB5PSIwIiB4PSIwIiBpZD0idGV4dC1lbnRpdHktY292aWRkYXRhZGlydHktMTk1ZDc1M2YtMTNiYy01ZjI3LTk5ZDYtZDdkYjIxMzNmMTFlLWF0dHItMTYta2V5IiBjbGFzcz0iZXIgZW50aXR5TGFiZWwiPjwvdGV4dD48L2c+PGcgdHJhbnNmb3JtPSJ0cmFuc2xhdGUoMjAsODE4ICkiIGlkPSJlbnRpdHktY292aWRkYXRhY2xlYW5lZC03ODc2ZWI3Yy1kNjJhLTU2ODYtODExZC1jMmM5ZDY3NmM0ZjYiPjxyZWN0IGhlaWdodD0iMzU0IiB3aWR0aD0iMjAzLjM1ODMzNzQwMjM0Mzc1IiB5PSIwIiB4PSIwIiBjbGFzcz0iZXIgZW50aXR5Qm94Ij48L3JlY3Q+PHRleHQgc3R5bGU9ImRvbWluYW50LWJhc2VsaW5lOiBtaWRkbGU7IHRleHQtYW5jaG9yOiBtaWRkbGU7IGZvbnQtc2l6ZTogMTJweDsiIHRyYW5zZm9ybT0idHJhbnNsYXRlKDEwMS42NzkxNjg3MDExNzE4OCwxMikiIHk9IjAiIHg9IjAiIGlkPSJ0ZXh0LWVudGl0eS1jb3ZpZGRhdGFjbGVhbmVkLTc4NzZlYjdjLWQ2MmEtNTY4Ni04MTFkLWMyYzlkNjc2YzRmNiIgY2xhc3M9ImVyIGVudGl0eUxhYmVsIj5jb3ZpZF9kYXRhX2NsZWFuZWQ8L3RleHQ+PHJlY3QgaGVpZ2h0PSIyMiIgd2lkdGg9IjUwLjA5NTE2OTA2NzM4MjgxIiB5PSIyNCIgeD0iMCIgY2xhc3M9ImVyIGF0dHJpYnV0ZUJveE9kZCI+PC9yZWN0Pjx0ZXh0IHN0eWxlPSJkb21pbmFudC1iYXNlbGluZTogbWlkZGxlOyBmb250LXNpemU6IDEwLjJweDsiIHRyYW5zZm9ybT0idHJhbnNsYXRlKDUsMzUpIiB5PSIwIiB4PSIwIiBpZD0idGV4dC1lbnRpdHktY292aWRkYXRhY2xlYW5lZC03ODc2ZWI3Yy1kNjJhLTU2ODYtODExZC1jMmM5ZDY3NmM0ZjYtYXR0ci0xLXR5cGUiIGNsYXNzPSJlciBlbnRpdHlMYWJlbCI+VEVYVDwvdGV4dD48cmVjdCBoZWlnaHQ9IjIyIiB3aWR0aD0iMTMwLjU3NTQ4NTIyOTQ5MjIiIHk9IjI0IiB4PSI1MC4wOTUxNjkwNjczODI4MSIgY2xhc3M9ImVyIGF0dHJpYnV0ZUJveE9kZCI+PC9yZWN0Pjx0ZXh0IHN0eWxlPSJkb21pbmFudC1iYXNlbGluZTogbWlkZGxlOyBmb250LXNpemU6IDEwLjJweDsiIHRyYW5zZm9ybT0idHJhbnNsYXRlKDU1LjA5NTE2OTA2NzM4MjgxLDM1KSIgeT0iMCIgeD0iMCIgaWQ9InRleHQtZW50aXR5LWNvdmlkZGF0YWNsZWFuZWQtNzg3NmViN2MtZDYyYS01Njg2LTgxMWQtYzJjOWQ2NzZjNGY2LWF0dHItMS1uYW1lIiBjbGFzcz0iZXIgZW50aXR5TGFiZWwiPmhhc2g8L3RleHQ+PHJlY3QgaGVpZ2h0PSIyMiIgd2lkdGg9IjIyLjY4NzY4MzEwNTQ2ODc1IiB5PSIyNCIgeD0iMTgwLjY3MDY1NDI5Njg3NSIgY2xhc3M9ImVyIGF0dHJpYnV0ZUJveE9kZCI+PC9yZWN0Pjx0ZXh0IHN0eWxlPSJkb21pbmFudC1iYXNlbGluZTogbWlkZGxlOyBmb250LXNpemU6IDEwLjJweDsiIHRyYW5zZm9ybT0idHJhbnNsYXRlKDE4NS42NzA2NTQyOTY4NzUsMzUpIiB5PSIwIiB4PSIwIiBpZD0idGV4dC1lbnRpdHktY292aWRkYXRhY2xlYW5lZC03ODc2ZWI3Yy1kNjJhLTU2ODYtODExZC1jMmM5ZDY3NmM0ZjYtYXR0ci0xLWtleSIgY2xhc3M9ImVyIGVudGl0eUxhYmVsIj5QSzwvdGV4dD48cmVjdCBoZWlnaHQ9IjIyIiB3aWR0aD0iNTAuMDk1MTY5MDY3MzgyODEiIHk9IjQ2IiB4PSIwIiBjbGFzcz0iZXIgYXR0cmlidXRlQm94RXZlbiI+PC9yZWN0Pjx0ZXh0IHN0eWxlPSJkb21pbmFudC1iYXNlbGluZTogbWlkZGxlOyBmb250LXNpemU6IDEwLjJweDsiIHRyYW5zZm9ybT0idHJhbnNsYXRlKDUsNTcpIiB5PSIwIiB4PSIwIiBpZD0idGV4dC1lbnRpdHktY292aWRkYXRhY2xlYW5lZC03ODc2ZWI3Yy1kNjJhLTU2ODYtODExZC1jMmM5ZDY3NmM0ZjYtYXR0ci0yLXR5cGUiIGNsYXNzPSJlciBlbnRpdHlMYWJlbCI+SU5URUdFUjwvdGV4dD48cmVjdCBoZWlnaHQ9IjIyIiB3aWR0aD0iMTMwLjU3NTQ4NTIyOTQ5MjIiIHk9IjQ2IiB4PSI1MC4wOTUxNjkwNjczODI4MSIgY2xhc3M9ImVyIGF0dHJpYnV0ZUJveEV2ZW4iPjwvcmVjdD48dGV4dCBzdHlsZT0iZG9taW5hbnQtYmFzZWxpbmU6IG1pZGRsZTsgZm9udC1zaXplOiAxMC4ycHg7IiB0cmFuc2Zvcm09InRyYW5zbGF0ZSg1NS4wOTUxNjkwNjczODI4MSw1NykiIHk9IjAiIHg9IjAiIGlkPSJ0ZXh0LWVudGl0eS1jb3ZpZGRhdGFjbGVhbmVkLTc4NzZlYjdjLWQ2MmEtNTY4Ni04MTFkLWMyYzlkNjc2YzRmNi1hdHRyLTItbmFtZSIgY2xhc3M9ImVyIGVudGl0eUxhYmVsIj5mZWNoYTwvdGV4dD48cmVjdCBoZWlnaHQ9IjIyIiB3aWR0aD0iMjIuNjg3NjgzMTA1NDY4NzUiIHk9IjQ2IiB4PSIxODAuNjcwNjU0Mjk2ODc1IiBjbGFzcz0iZXIgYXR0cmlidXRlQm94RXZlbiI+PC9yZWN0Pjx0ZXh0IHN0eWxlPSJkb21pbmFudC1iYXNlbGluZTogbWlkZGxlOyBmb250LXNpemU6IDEwLjJweDsiIHRyYW5zZm9ybT0idHJhbnNsYXRlKDE4NS42NzA2NTQyOTY4NzUsNTcpIiB5PSIwIiB4PSIwIiBpZD0idGV4dC1lbnRpdHktY292aWRkYXRhY2xlYW5lZC03ODc2ZWI3Yy1kNjJhLTU2ODYtODExZC1jMmM5ZDY3NmM0ZjYtYXR0ci0yLWtleSIgY2xhc3M9ImVyIGVudGl0eUxhYmVsIj48L3RleHQ+PHJlY3QgaGVpZ2h0PSIyMiIgd2lkdGg9IjUwLjA5NTE2OTA2NzM4MjgxIiB5PSI2OCIgeD0iMCIgY2xhc3M9ImVyIGF0dHJpYnV0ZUJveE9kZCI+PC9yZWN0Pjx0ZXh0IHN0eWxlPSJkb21pbmFudC1iYXNlbGluZTogbWlkZGxlOyBmb250LXNpemU6IDEwLjJweDsiIHRyYW5zZm9ybT0idHJhbnNsYXRlKDUsNzkpIiB5PSIwIiB4PSIwIiBpZD0idGV4dC1lbnRpdHktY292aWRkYXRhY2xlYW5lZC03ODc2ZWI3Yy1kNjJhLTU2ODYtODExZC1jMmM5ZDY3NmM0ZjYtYXR0ci0zLXR5cGUiIGNsYXNzPSJlciBlbnRpdHlMYWJlbCI+SU5URUdFUjwvdGV4dD48cmVjdCBoZWlnaHQ9IjIyIiB3aWR0aD0iMTMwLjU3NTQ4NTIyOTQ5MjIiIHk9IjY4IiB4PSI1MC4wOTUxNjkwNjczODI4MSIgY2xhc3M9ImVyIGF0dHJpYnV0ZUJveE9kZCI+PC9yZWN0Pjx0ZXh0IHN0eWxlPSJkb21pbmFudC1iYXNlbGluZTogbWlkZGxlOyBmb250LXNpemU6IDEwLjJweDsiIHRyYW5zZm9ybT0idHJhbnNsYXRlKDU1LjA5NTE2OTA2NzM4MjgxLDc5KSIgeT0iMCIgeD0iMCIgaWQ9InRleHQtZW50aXR5LWNvdmlkZGF0YWNsZWFuZWQtNzg3NmViN2MtZDYyYS01Njg2LTgxMWQtYzJjOWQ2NzZjNGY2LWF0dHItMy1uYW1lIiBjbGFzcz0iZXIgZW50aXR5TGFiZWwiPmNhc29zX3Bvc2l0aXZvczwvdGV4dD48cmVjdCBoZWlnaHQ9IjIyIiB3aWR0aD0iMjIuNjg3NjgzMTA1NDY4NzUiIHk9IjY4IiB4PSIxODAuNjcwNjU0Mjk2ODc1IiBjbGFzcz0iZXIgYXR0cmlidXRlQm94T2RkIj48L3JlY3Q+PHRleHQgc3R5bGU9ImRvbWluYW50LWJhc2VsaW5lOiBtaWRkbGU7IGZvbnQtc2l6ZTogMTAuMnB4OyIgdHJhbnNmb3JtPSJ0cmFuc2xhdGUoMTg1LjY3MDY1NDI5Njg3NSw3OSkiIHk9IjAiIHg9IjAiIGlkPSJ0ZXh0LWVudGl0eS1jb3ZpZGRhdGFjbGVhbmVkLTc4NzZlYjdjLWQ2MmEtNTY4Ni04MTFkLWMyYzlkNjc2YzRmNi1hdHRyLTMta2V5IiBjbGFzcz0iZXIgZW50aXR5TGFiZWwiPjwvdGV4dD48cmVjdCBoZWlnaHQ9IjIyIiB3aWR0aD0iNTAuMDk1MTY5MDY3MzgyODEiIHk9IjkwIiB4PSIwIiBjbGFzcz0iZXIgYXR0cmlidXRlQm94RXZlbiI+PC9yZWN0Pjx0ZXh0IHN0eWxlPSJkb21pbmFudC1iYXNlbGluZTogbWlkZGxlOyBmb250LXNpemU6IDEwLjJweDsiIHRyYW5zZm9ybT0idHJhbnNsYXRlKDUsMTAxKSIgeT0iMCIgeD0iMCIgaWQ9InRleHQtZW50aXR5LWNvdmlkZGF0YWNsZWFuZWQtNzg3NmViN2MtZDYyYS01Njg2LTgxMWQtYzJjOWQ2NzZjNGY2LWF0dHItNC10eXBlIiBjbGFzcz0iZXIgZW50aXR5TGFiZWwiPklOVEVHRVI8L3RleHQ+PHJlY3QgaGVpZ2h0PSIyMiIgd2lkdGg9IjEzMC41NzU0ODUyMjk0OTIyIiB5PSI5MCIgeD0iNTAuMDk1MTY5MDY3MzgyODEiIGNsYXNzPSJlciBhdHRyaWJ1dGVCb3hFdmVuIj48L3JlY3Q+PHRleHQgc3R5bGU9ImRvbWluYW50LWJhc2VsaW5lOiBtaWRkbGU7IGZvbnQtc2l6ZTogMTAuMnB4OyIgdHJhbnNmb3JtPSJ0cmFuc2xhdGUoNTUuMDk1MTY5MDY3MzgyODEsMTAxKSIgeT0iMCIgeD0iMCIgaWQ9InRleHQtZW50aXR5LWNvdmlkZGF0YWNsZWFuZWQtNzg3NmViN2MtZDYyYS01Njg2LTgxMWQtYzJjOWQ2NzZjNGY2LWF0dHItNC1uYW1lIiBjbGFzcz0iZXIgZW50aXR5TGFiZWwiPmZhbGxlY2lkb3M8L3RleHQ+PHJlY3QgaGVpZ2h0PSIyMiIgd2lkdGg9IjIyLjY4NzY4MzEwNTQ2ODc1IiB5PSI5MCIgeD0iMTgwLjY3MDY1NDI5Njg3NSIgY2xhc3M9ImVyIGF0dHJpYnV0ZUJveEV2ZW4iPjwvcmVjdD48dGV4dCBzdHlsZT0iZG9taW5hbnQtYmFzZWxpbmU6IG1pZGRsZTsgZm9udC1zaXplOiAxMC4ycHg7IiB0cmFuc2Zvcm09InRyYW5zbGF0ZSgxODUuNjcwNjU0Mjk2ODc1LDEwMSkiIHk9IjAiIHg9IjAiIGlkPSJ0ZXh0LWVudGl0eS1jb3ZpZGRhdGFjbGVhbmVkLTc4NzZlYjdjLWQ2MmEtNTY4Ni04MTFkLWMyYzlkNjc2YzRmNi1hdHRyLTQta2V5IiBjbGFzcz0iZXIgZW50aXR5TGFiZWwiPjwvdGV4dD48cmVjdCBoZWlnaHQ9IjIyIiB3aWR0aD0iNTAuMDk1MTY5MDY3MzgyODEiIHk9IjExMiIgeD0iMCIgY2xhc3M9ImVyIGF0dHJpYnV0ZUJveE9kZCI+PC9yZWN0Pjx0ZXh0IHN0eWxlPSJkb21pbmFudC1iYXNlbGluZTogbWlkZGxlOyBmb250LXNpemU6IDEwLjJweDsiIHRyYW5zZm9ybT0idHJhbnNsYXRlKDUsMTIzKSIgeT0iMCIgeD0iMCIgaWQ9InRleHQtZW50aXR5LWNvdmlkZGF0YWNsZWFuZWQtNzg3NmViN2MtZDYyYS01Njg2LTgxMWQtYzJjOWQ2NzZjNGY2LWF0dHItNS10eXBlIiBjbGFzcz0iZXIgZW50aXR5TGFiZWwiPklOVEVHRVI8L3RleHQ+PHJlY3QgaGVpZ2h0PSIyMiIgd2lkdGg9IjEzMC41NzU0ODUyMjk0OTIyIiB5PSIxMTIiIHg9IjUwLjA5NTE2OTA2NzM4MjgxIiBjbGFzcz0iZXIgYXR0cmlidXRlQm94T2RkIj48L3JlY3Q+PHRleHQgc3R5bGU9ImRvbWluYW50LWJhc2VsaW5lOiBtaWRkbGU7IGZvbnQtc2l6ZTogMTAuMnB4OyIgdHJhbnNmb3JtPSJ0cmFuc2xhdGUoNTUuMDk1MTY5MDY3MzgyODEsMTIzKSIgeT0iMCIgeD0iMCIgaWQ9InRleHQtZW50aXR5LWNvdmlkZGF0YWNsZWFuZWQtNzg3NmViN2MtZDYyYS01Njg2LTgxMWQtYzJjOWQ2NzZjNGY2LWF0dHItNS1uYW1lIiBjbGFzcz0iZXIgZW50aXR5TGFiZWwiPmhvc3BpdGFsaXphZG9zPC90ZXh0PjxyZWN0IGhlaWdodD0iMjIiIHdpZHRoPSIyMi42ODc2ODMxMDU0Njg3NSIgeT0iMTEyIiB4PSIxODAuNjcwNjU0Mjk2ODc1IiBjbGFzcz0iZXIgYXR0cmlidXRlQm94T2RkIj48L3JlY3Q+PHRleHQgc3R5bGU9ImRvbWluYW50LWJhc2VsaW5lOiBtaWRkbGU7IGZvbnQtc2l6ZTogMTAuMnB4OyIgdHJhbnNmb3JtPSJ0cmFuc2xhdGUoMTg1LjY3MDY1NDI5Njg3NSwxMjMpIiB5PSIwIiB4PSIwIiBpZD0idGV4dC1lbnRpdHktY292aWRkYXRhY2xlYW5lZC03ODc2ZWI3Yy1kNjJhLTU2ODYtODExZC1jMmM5ZDY3NmM0ZjYtYXR0ci01LWtleSIgY2xhc3M9ImVyIGVudGl0eUxhYmVsIj48L3RleHQ+PHJlY3QgaGVpZ2h0PSIyMiIgd2lkdGg9IjUwLjA5NTE2OTA2NzM4MjgxIiB5PSIxMzQiIHg9IjAiIGNsYXNzPSJlciBhdHRyaWJ1dGVCb3hFdmVuIj48L3JlY3Q+PHRleHQgc3R5bGU9ImRvbWluYW50LWJhc2VsaW5lOiBtaWRkbGU7IGZvbnQtc2l6ZTogMTAuMnB4OyIgdHJhbnNmb3JtPSJ0cmFuc2xhdGUoNSwxNDUpIiB5PSIwIiB4PSIwIiBpZD0idGV4dC1lbnRpdHktY292aWRkYXRhY2xlYW5lZC03ODc2ZWI3Yy1kNjJhLTU2ODYtODExZC1jMmM5ZDY3NmM0ZjYtYXR0ci02LXR5cGUiIGNsYXNzPSJlciBlbnRpdHlMYWJlbCI+SU5URUdFUjwvdGV4dD48cmVjdCBoZWlnaHQ9IjIyIiB3aWR0aD0iMTMwLjU3NTQ4NTIyOTQ5MjIiIHk9IjEzNCIgeD0iNTAuMDk1MTY5MDY3MzgyODEiIGNsYXNzPSJlciBhdHRyaWJ1dGVCb3hFdmVuIj48L3JlY3Q+PHRleHQgc3R5bGU9ImRvbWluYW50LWJhc2VsaW5lOiBtaWRkbGU7IGZvbnQtc2l6ZTogMTAuMnB4OyIgdHJhbnNmb3JtPSJ0cmFuc2xhdGUoNTUuMDk1MTY5MDY3MzgyODEsMTQ1KSIgeT0iMCIgeD0iMCIgaWQ9InRleHQtZW50aXR5LWNvdmlkZGF0YWNsZWFuZWQtNzg3NmViN2MtZDYyYS01Njg2LTgxMWQtYzJjOWQ2NzZjNGY2LWF0dHItNi1uYW1lIiBjbGFzcz0iZXIgZW50aXR5TGFiZWwiPnRvdGFsX3Jlc3VsdGFkb3M8L3RleHQ+PHJlY3QgaGVpZ2h0PSIyMiIgd2lkdGg9IjIyLjY4NzY4MzEwNTQ2ODc1IiB5PSIxMzQiIHg9IjE4MC42NzA2NTQyOTY4NzUiIGNsYXNzPSJlciBhdHRyaWJ1dGVCb3hFdmVuIj48L3JlY3Q+PHRleHQgc3R5bGU9ImRvbWluYW50LWJhc2VsaW5lOiBtaWRkbGU7IGZvbnQtc2l6ZTogMTAuMnB4OyIgdHJhbnNmb3JtPSJ0cmFuc2xhdGUoMTg1LjY3MDY1NDI5Njg3NSwxNDUpIiB5PSIwIiB4PSIwIiBpZD0idGV4dC1lbnRpdHktY292aWRkYXRhY2xlYW5lZC03ODc2ZWI3Yy1kNjJhLTU2ODYtODExZC1jMmM5ZDY3NmM0ZjYtYXR0ci02LWtleSIgY2xhc3M9ImVyIGVudGl0eUxhYmVsIj48L3RleHQ+PHJlY3QgaGVpZ2h0PSIyMiIgd2lkdGg9IjUwLjA5NTE2OTA2NzM4MjgxIiB5PSIxNTYiIHg9IjAiIGNsYXNzPSJlciBhdHRyaWJ1dGVCb3hPZGQiPjwvcmVjdD48dGV4dCBzdHlsZT0iZG9taW5hbnQtYmFzZWxpbmU6IG1pZGRsZTsgZm9udC1zaXplOiAxMC4ycHg7IiB0cmFuc2Zvcm09InRyYW5zbGF0ZSg1LDE2NykiIHk9IjAiIHg9IjAiIGlkPSJ0ZXh0LWVudGl0eS1jb3ZpZGRhdGFjbGVhbmVkLTc4NzZlYjdjLWQ2MmEtNTY4Ni04MTFkLWMyYzlkNjc2YzRmNi1hdHRyLTctdHlwZSIgY2xhc3M9ImVyIGVudGl0eUxhYmVsIj5JTlRFR0VSPC90ZXh0PjxyZWN0IGhlaWdodD0iMjIiIHdpZHRoPSIxMzAuNTc1NDg1MjI5NDkyMiIgeT0iMTU2IiB4PSI1MC4wOTUxNjkwNjczODI4MSIgY2xhc3M9ImVyIGF0dHJpYnV0ZUJveE9kZCI+PC9yZWN0Pjx0ZXh0IHN0eWxlPSJkb21pbmFudC1iYXNlbGluZTogbWlkZGxlOyBmb250LXNpemU6IDEwLjJweDsiIHRyYW5zZm9ybT0idHJhbnNsYXRlKDU1LjA5NTE2OTA2NzM4MjgxLDE2NykiIHk9IjAiIHg9IjAiIGlkPSJ0ZXh0LWVudGl0eS1jb3ZpZGRhdGFjbGVhbmVkLTc4NzZlYjdjLWQ2MmEtNTY4Ni04MTFkLWMyYzlkNjc2YzRmNi1hdHRyLTctbmFtZSIgY2xhc3M9ImVyIGVudGl0eUxhYmVsIj5pbmNyZW1lbnRvX3Bvc2l0aXZvczwvdGV4dD48cmVjdCBoZWlnaHQ9IjIyIiB3aWR0aD0iMjIuNjg3NjgzMTA1NDY4NzUiIHk9IjE1NiIgeD0iMTgwLjY3MDY1NDI5Njg3NSIgY2xhc3M9ImVyIGF0dHJpYnV0ZUJveE9kZCI+PC9yZWN0Pjx0ZXh0IHN0eWxlPSJkb21pbmFudC1iYXNlbGluZTogbWlkZGxlOyBmb250LXNpemU6IDEwLjJweDsiIHRyYW5zZm9ybT0idHJhbnNsYXRlKDE4NS42NzA2NTQyOTY4NzUsMTY3KSIgeT0iMCIgeD0iMCIgaWQ9InRleHQtZW50aXR5LWNvdmlkZGF0YWNsZWFuZWQtNzg3NmViN2MtZDYyYS01Njg2LTgxMWQtYzJjOWQ2NzZjNGY2LWF0dHItNy1rZXkiIGNsYXNzPSJlciBlbnRpdHlMYWJlbCI+PC90ZXh0PjxyZWN0IGhlaWdodD0iMjIiIHdpZHRoPSI1MC4wOTUxNjkwNjczODI4MSIgeT0iMTc4IiB4PSIwIiBjbGFzcz0iZXIgYXR0cmlidXRlQm94RXZlbiI+PC9yZWN0Pjx0ZXh0IHN0eWxlPSJkb21pbmFudC1iYXNlbGluZTogbWlkZGxlOyBmb250LXNpemU6IDEwLjJweDsiIHRyYW5zZm9ybT0idHJhbnNsYXRlKDUsMTg5KSIgeT0iMCIgeD0iMCIgaWQ9InRleHQtZW50aXR5LWNvdmlkZGF0YWNsZWFuZWQtNzg3NmViN2MtZDYyYS01Njg2LTgxMWQtYzJjOWQ2NzZjNGY2LWF0dHItOC10eXBlIiBjbGFzcz0iZXIgZW50aXR5TGFiZWwiPklOVEVHRVI8L3RleHQ+PHJlY3QgaGVpZ2h0PSIyMiIgd2lkdGg9IjEzMC41NzU0ODUyMjk0OTIyIiB5PSIxNzgiIHg9IjUwLjA5NTE2OTA2NzM4MjgxIiBjbGFzcz0iZXIgYXR0cmlidXRlQm94RXZlbiI+PC9yZWN0Pjx0ZXh0IHN0eWxlPSJkb21pbmFudC1iYXNlbGluZTogbWlkZGxlOyBmb250LXNpemU6IDEwLjJweDsiIHRyYW5zZm9ybT0idHJhbnNsYXRlKDU1LjA5NTE2OTA2NzM4MjgxLDE4OSkiIHk9IjAiIHg9IjAiIGlkPSJ0ZXh0LWVudGl0eS1jb3ZpZGRhdGFjbGVhbmVkLTc4NzZlYjdjLWQ2MmEtNTY4Ni04MTFkLWMyYzlkNjc2YzRmNi1hdHRyLTgtbmFtZSIgY2xhc3M9ImVyIGVudGl0eUxhYmVsIj5pbmNyZW1lbnRvX2ZhbGxlY2lkb3M8L3RleHQ+PHJlY3QgaGVpZ2h0PSIyMiIgd2lkdGg9IjIyLjY4NzY4MzEwNTQ2ODc1IiB5PSIxNzgiIHg9IjE4MC42NzA2NTQyOTY4NzUiIGNsYXNzPSJlciBhdHRyaWJ1dGVCb3hFdmVuIj48L3JlY3Q+PHRleHQgc3R5bGU9ImRvbWluYW50LWJhc2VsaW5lOiBtaWRkbGU7IGZvbnQtc2l6ZTogMTAuMnB4OyIgdHJhbnNmb3JtPSJ0cmFuc2xhdGUoMTg1LjY3MDY1NDI5Njg3NSwxODkpIiB5PSIwIiB4PSIwIiBpZD0idGV4dC1lbnRpdHktY292aWRkYXRhY2xlYW5lZC03ODc2ZWI3Yy1kNjJhLTU2ODYtODExZC1jMmM5ZDY3NmM0ZjYtYXR0ci04LWtleSIgY2xhc3M9ImVyIGVudGl0eUxhYmVsIj48L3RleHQ+PHJlY3QgaGVpZ2h0PSIyMiIgd2lkdGg9IjUwLjA5NTE2OTA2NzM4MjgxIiB5PSIyMDAiIHg9IjAiIGNsYXNzPSJlciBhdHRyaWJ1dGVCb3hPZGQiPjwvcmVjdD48dGV4dCBzdHlsZT0iZG9taW5hbnQtYmFzZWxpbmU6IG1pZGRsZTsgZm9udC1zaXplOiAxMC4ycHg7IiB0cmFuc2Zvcm09InRyYW5zbGF0ZSg1LDIxMSkiIHk9IjAiIHg9IjAiIGlkPSJ0ZXh0LWVudGl0eS1jb3ZpZGRhdGFjbGVhbmVkLTc4NzZlYjdjLWQ2MmEtNTY4Ni04MTFkLWMyYzlkNjc2YzRmNi1hdHRyLTktdHlwZSIgY2xhc3M9ImVyIGVudGl0eUxhYmVsIj5URVhUPC90ZXh0PjxyZWN0IGhlaWdodD0iMjIiIHdpZHRoPSIxMzAuNTc1NDg1MjI5NDkyMiIgeT0iMjAwIiB4PSI1MC4wOTUxNjkwNjczODI4MSIgY2xhc3M9ImVyIGF0dHJpYnV0ZUJveE9kZCI+PC9yZWN0Pjx0ZXh0IHN0eWxlPSJkb21pbmFudC1iYXNlbGluZTogbWlkZGxlOyBmb250LXNpemU6IDEwLjJweDsiIHRyYW5zZm9ybT0idHJhbnNsYXRlKDU1LjA5NTE2OTA2NzM4MjgxLDIxMSkiIHk9IjAiIHg9IjAiIGlkPSJ0ZXh0LWVudGl0eS1jb3ZpZGRhdGFjbGVhbmVkLTc4NzZlYjdjLWQ2MmEtNTY4Ni04MTFkLWMyYzlkNjc2YzRmNi1hdHRyLTktbmFtZSIgY2xhc3M9ImVyIGVudGl0eUxhYmVsIj51bHRpbWFfbW9kaWZpY2FjaW9uPC90ZXh0PjxyZWN0IGhlaWdodD0iMjIiIHdpZHRoPSIyMi42ODc2ODMxMDU0Njg3NSIgeT0iMjAwIiB4PSIxODAuNjcwNjU0Mjk2ODc1IiBjbGFzcz0iZXIgYXR0cmlidXRlQm94T2RkIj48L3JlY3Q+PHRleHQgc3R5bGU9ImRvbWluYW50LWJhc2VsaW5lOiBtaWRkbGU7IGZvbnQtc2l6ZTogMTAuMnB4OyIgdHJhbnNmb3JtPSJ0cmFuc2xhdGUoMTg1LjY3MDY1NDI5Njg3NSwyMTEpIiB5PSIwIiB4PSIwIiBpZD0idGV4dC1lbnRpdHktY292aWRkYXRhY2xlYW5lZC03ODc2ZWI3Yy1kNjJhLTU2ODYtODExZC1jMmM5ZDY3NmM0ZjYtYXR0ci05LWtleSIgY2xhc3M9ImVyIGVudGl0eUxhYmVsIj48L3RleHQ+PHJlY3QgaGVpZ2h0PSIyMiIgd2lkdGg9IjUwLjA5NTE2OTA2NzM4MjgxIiB5PSIyMjIiIHg9IjAiIGNsYXNzPSJlciBhdHRyaWJ1dGVCb3hFdmVuIj48L3JlY3Q+PHRleHQgc3R5bGU9ImRvbWluYW50LWJhc2VsaW5lOiBtaWRkbGU7IGZvbnQtc2l6ZTogMTAuMnB4OyIgdHJhbnNmb3JtPSJ0cmFuc2xhdGUoNSwyMzMpIiB5PSIwIiB4PSIwIiBpZD0idGV4dC1lbnRpdHktY292aWRkYXRhY2xlYW5lZC03ODc2ZWI3Yy1kNjJhLTU2ODYtODExZC1jMmM5ZDY3NmM0ZjYtYXR0ci0xMC10eXBlIiBjbGFzcz0iZXIgZW50aXR5TGFiZWwiPlRFWFQ8L3RleHQ+PHJlY3QgaGVpZ2h0PSIyMiIgd2lkdGg9IjEzMC41NzU0ODUyMjk0OTIyIiB5PSIyMjIiIHg9IjUwLjA5NTE2OTA2NzM4MjgxIiBjbGFzcz0iZXIgYXR0cmlidXRlQm94RXZlbiI+PC9yZWN0Pjx0ZXh0IHN0eWxlPSJkb21pbmFudC1iYXNlbGluZTogbWlkZGxlOyBmb250LXNpemU6IDEwLjJweDsiIHRyYW5zZm9ybT0idHJhbnNsYXRlKDU1LjA5NTE2OTA2NzM4MjgxLDIzMykiIHk9IjAiIHg9IjAiIGlkPSJ0ZXh0LWVudGl0eS1jb3ZpZGRhdGFjbGVhbmVkLTc4NzZlYjdjLWQ2MmEtNTY4Ni04MTFkLWMyYzlkNjc2YzRmNi1hdHRyLTEwLW5hbWUiIGNsYXNzPSJlciBlbnRpdHlMYWJlbCI+YW5pb19hdWRpdG9yaWE8L3RleHQ+PHJlY3QgaGVpZ2h0PSIyMiIgd2lkdGg9IjIyLjY4NzY4MzEwNTQ2ODc1IiB5PSIyMjIiIHg9IjE4MC42NzA2NTQyOTY4NzUiIGNsYXNzPSJlciBhdHRyaWJ1dGVCb3hFdmVuIj48L3JlY3Q+PHRleHQgc3R5bGU9ImRvbWluYW50LWJhc2VsaW5lOiBtaWRkbGU7IGZvbnQtc2l6ZTogMTAuMnB4OyIgdHJhbnNmb3JtPSJ0cmFuc2xhdGUoMTg1LjY3MDY1NDI5Njg3NSwyMzMpIiB5PSIwIiB4PSIwIiBpZD0idGV4dC1lbnRpdHktY292aWRkYXRhY2xlYW5lZC03ODc2ZWI3Yy1kNjJhLTU2ODYtODExZC1jMmM5ZDY3NmM0ZjYtYXR0ci0xMC1rZXkiIGNsYXNzPSJlciBlbnRpdHlMYWJlbCI+PC90ZXh0PjxyZWN0IGhlaWdodD0iMjIiIHdpZHRoPSI1MC4wOTUxNjkwNjczODI4MSIgeT0iMjQ0IiB4PSIwIiBjbGFzcz0iZXIgYXR0cmlidXRlQm94T2RkIj48L3JlY3Q+PHRleHQgc3R5bGU9ImRvbWluYW50LWJhc2VsaW5lOiBtaWRkbGU7IGZvbnQtc2l6ZTogMTAuMnB4OyIgdHJhbnNmb3JtPSJ0cmFuc2xhdGUoNSwyNTUpIiB5PSIwIiB4PSIwIiBpZD0idGV4dC1lbnRpdHktY292aWRkYXRhY2xlYW5lZC03ODc2ZWI3Yy1kNjJhLTU2ODYtODExZC1jMmM5ZDY3NmM0ZjYtYXR0ci0xMS10eXBlIiBjbGFzcz0iZXIgZW50aXR5TGFiZWwiPlRFWFQ8L3RleHQ+PHJlY3QgaGVpZ2h0PSIyMiIgd2lkdGg9IjEzMC41NzU0ODUyMjk0OTIyIiB5PSIyNDQiIHg9IjUwLjA5NTE2OTA2NzM4MjgxIiBjbGFzcz0iZXIgYXR0cmlidXRlQm94T2RkIj48L3JlY3Q+PHRleHQgc3R5bGU9ImRvbWluYW50LWJhc2VsaW5lOiBtaWRkbGU7IGZvbnQtc2l6ZTogMTAuMnB4OyIgdHJhbnNmb3JtPSJ0cmFuc2xhdGUoNTUuMDk1MTY5MDY3MzgyODEsMjU1KSIgeT0iMCIgeD0iMCIgaWQ9InRleHQtZW50aXR5LWNvdmlkZGF0YWNsZWFuZWQtNzg3NmViN2MtZDYyYS01Njg2LTgxMWQtYzJjOWQ2NzZjNGY2LWF0dHItMTEtbmFtZSIgY2xhc3M9ImVyIGVudGl0eUxhYmVsIj5tZXNfYXVkaXRvcmlhPC90ZXh0PjxyZWN0IGhlaWdodD0iMjIiIHdpZHRoPSIyMi42ODc2ODMxMDU0Njg3NSIgeT0iMjQ0IiB4PSIxODAuNjcwNjU0Mjk2ODc1IiBjbGFzcz0iZXIgYXR0cmlidXRlQm94T2RkIj48L3JlY3Q+PHRleHQgc3R5bGU9ImRvbWluYW50LWJhc2VsaW5lOiBtaWRkbGU7IGZvbnQtc2l6ZTogMTAuMnB4OyIgdHJhbnNmb3JtPSJ0cmFuc2xhdGUoMTg1LjY3MDY1NDI5Njg3NSwyNTUpIiB5PSIwIiB4PSIwIiBpZD0idGV4dC1lbnRpdHktY292aWRkYXRhY2xlYW5lZC03ODc2ZWI3Yy1kNjJhLTU2ODYtODExZC1jMmM5ZDY3NmM0ZjYtYXR0ci0xMS1rZXkiIGNsYXNzPSJlciBlbnRpdHlMYWJlbCI+PC90ZXh0PjxyZWN0IGhlaWdodD0iMjIiIHdpZHRoPSI1MC4wOTUxNjkwNjczODI4MSIgeT0iMjY2IiB4PSIwIiBjbGFzcz0iZXIgYXR0cmlidXRlQm94RXZlbiI+PC9yZWN0Pjx0ZXh0IHN0eWxlPSJkb21pbmFudC1iYXNlbGluZTogbWlkZGxlOyBmb250LXNpemU6IDEwLjJweDsiIHRyYW5zZm9ybT0idHJhbnNsYXRlKDUsMjc3KSIgeT0iMCIgeD0iMCIgaWQ9InRleHQtZW50aXR5LWNvdmlkZGF0YWNsZWFuZWQtNzg3NmViN2MtZDYyYS01Njg2LTgxMWQtYzJjOWQ2NzZjNGY2LWF0dHItMTItdHlwZSIgY2xhc3M9ImVyIGVudGl0eUxhYmVsIj5URVhUPC90ZXh0PjxyZWN0IGhlaWdodD0iMjIiIHdpZHRoPSIxMzAuNTc1NDg1MjI5NDkyMiIgeT0iMjY2IiB4PSI1MC4wOTUxNjkwNjczODI4MSIgY2xhc3M9ImVyIGF0dHJpYnV0ZUJveEV2ZW4iPjwvcmVjdD48dGV4dCBzdHlsZT0iZG9taW5hbnQtYmFzZWxpbmU6IG1pZGRsZTsgZm9udC1zaXplOiAxMC4ycHg7IiB0cmFuc2Zvcm09InRyYW5zbGF0ZSg1NS4wOTUxNjkwNjczODI4MSwyNzcpIiB5PSIwIiB4PSIwIiBpZD0idGV4dC1lbnRpdHktY292aWRkYXRhY2xlYW5lZC03ODc2ZWI3Yy1kNjJhLTU2ODYtODExZC1jMmM5ZDY3NmM0ZjYtYXR0ci0xMi1uYW1lIiBjbGFzcz0iZXIgZW50aXR5TGFiZWwiPmRpYV9hdWRpdG9yaWE8L3RleHQ+PHJlY3QgaGVpZ2h0PSIyMiIgd2lkdGg9IjIyLjY4NzY4MzEwNTQ2ODc1IiB5PSIyNjYiIHg9IjE4MC42NzA2NTQyOTY4NzUiIGNsYXNzPSJlciBhdHRyaWJ1dGVCb3hFdmVuIj48L3JlY3Q+PHRleHQgc3R5bGU9ImRvbWluYW50LWJhc2VsaW5lOiBtaWRkbGU7IGZvbnQtc2l6ZTogMTAuMnB4OyIgdHJhbnNmb3JtPSJ0cmFuc2xhdGUoMTg1LjY3MDY1NDI5Njg3NSwyNzcpIiB5PSIwIiB4PSIwIiBpZD0idGV4dC1lbnRpdHktY292aWRkYXRhY2xlYW5lZC03ODc2ZWI3Yy1kNjJhLTU2ODYtODExZC1jMmM5ZDY3NmM0ZjYtYXR0ci0xMi1rZXkiIGNsYXNzPSJlciBlbnRpdHlMYWJlbCI+PC90ZXh0PjxyZWN0IGhlaWdodD0iMjIiIHdpZHRoPSI1MC4wOTUxNjkwNjczODI4MSIgeT0iMjg4IiB4PSIwIiBjbGFzcz0iZXIgYXR0cmlidXRlQm94T2RkIj48L3JlY3Q+PHRleHQgc3R5bGU9ImRvbWluYW50LWJhc2VsaW5lOiBtaWRkbGU7IGZvbnQtc2l6ZTogMTAuMnB4OyIgdHJhbnNmb3JtPSJ0cmFuc2xhdGUoNSwyOTkpIiB5PSIwIiB4PSIwIiBpZD0idGV4dC1lbnRpdHktY292aWRkYXRhY2xlYW5lZC03ODc2ZWI3Yy1kNjJhLTU2ODYtODExZC1jMmM5ZDY3NmM0ZjYtYXR0ci0xMy10eXBlIiBjbGFzcz0iZXIgZW50aXR5TGFiZWwiPlRFWFQ8L3RleHQ+PHJlY3QgaGVpZ2h0PSIyMiIgd2lkdGg9IjEzMC41NzU0ODUyMjk0OTIyIiB5PSIyODgiIHg9IjUwLjA5NTE2OTA2NzM4MjgxIiBjbGFzcz0iZXIgYXR0cmlidXRlQm94T2RkIj48L3JlY3Q+PHRleHQgc3R5bGU9ImRvbWluYW50LWJhc2VsaW5lOiBtaWRkbGU7IGZvbnQtc2l6ZTogMTAuMnB4OyIgdHJhbnNmb3JtPSJ0cmFuc2xhdGUoNTUuMDk1MTY5MDY3MzgyODEsMjk5KSIgeT0iMCIgeD0iMCIgaWQ9InRleHQtZW50aXR5LWNvdmlkZGF0YWNsZWFuZWQtNzg3NmViN2MtZDYyYS01Njg2LTgxMWQtYzJjOWQ2NzZjNGY2LWF0dHItMTMtbmFtZSIgY2xhc3M9ImVyIGVudGl0eUxhYmVsIj5mZWNoYV9jb21wbGV0YV9hdWRpdG9yaWE8L3RleHQ+PHJlY3QgaGVpZ2h0PSIyMiIgd2lkdGg9IjIyLjY4NzY4MzEwNTQ2ODc1IiB5PSIyODgiIHg9IjE4MC42NzA2NTQyOTY4NzUiIGNsYXNzPSJlciBhdHRyaWJ1dGVCb3hPZGQiPjwvcmVjdD48dGV4dCBzdHlsZT0iZG9taW5hbnQtYmFzZWxpbmU6IG1pZGRsZTsgZm9udC1zaXplOiAxMC4ycHg7IiB0cmFuc2Zvcm09InRyYW5zbGF0ZSgxODUuNjcwNjU0Mjk2ODc1LDI5OSkiIHk9IjAiIHg9IjAiIGlkPSJ0ZXh0LWVudGl0eS1jb3ZpZGRhdGFjbGVhbmVkLTc4NzZlYjdjLWQ2MmEtNTY4Ni04MTFkLWMyYzlkNjc2YzRmNi1hdHRyLTEzLWtleSIgY2xhc3M9ImVyIGVudGl0eUxhYmVsIj48L3RleHQ+PHJlY3QgaGVpZ2h0PSIyMiIgd2lkdGg9IjUwLjA5NTE2OTA2NzM4MjgxIiB5PSIzMTAiIHg9IjAiIGNsYXNzPSJlciBhdHRyaWJ1dGVCb3hFdmVuIj48L3JlY3Q+PHRleHQgc3R5bGU9ImRvbWluYW50LWJhc2VsaW5lOiBtaWRkbGU7IGZvbnQtc2l6ZTogMTAuMnB4OyIgdHJhbnNmb3JtPSJ0cmFuc2xhdGUoNSwzMjEpIiB5PSIwIiB4PSIwIiBpZD0idGV4dC1lbnRpdHktY292aWRkYXRhY2xlYW5lZC03ODc2ZWI3Yy1kNjJhLTU2ODYtODExZC1jMmM5ZDY3NmM0ZjYtYXR0ci0xNC10eXBlIiBjbGFzcz0iZXIgZW50aXR5TGFiZWwiPkZMT0FUPC90ZXh0PjxyZWN0IGhlaWdodD0iMjIiIHdpZHRoPSIxMzAuNTc1NDg1MjI5NDkyMiIgeT0iMzEwIiB4PSI1MC4wOTUxNjkwNjczODI4MSIgY2xhc3M9ImVyIGF0dHJpYnV0ZUJveEV2ZW4iPjwvcmVjdD48dGV4dCBzdHlsZT0iZG9taW5hbnQtYmFzZWxpbmU6IG1pZGRsZTsgZm9udC1zaXplOiAxMC4ycHg7IiB0cmFuc2Zvcm09InRyYW5zbGF0ZSg1NS4wOTUxNjkwNjczODI4MSwzMjEpIiB5PSIwIiB4PSIwIiBpZD0idGV4dC1lbnRpdHktY292aWRkYXRhY2xlYW5lZC03ODc2ZWI3Yy1kNjJhLTU2ODYtODExZC1jMmM5ZDY3NmM0ZjYtYXR0ci0xNC1uYW1lIiBjbGFzcz0iZXIgZW50aXR5TGFiZWwiPnRhc2FfcG9zaXRpdmlkYWQ8L3RleHQ+PHJlY3QgaGVpZ2h0PSIyMiIgd2lkdGg9IjIyLjY4NzY4MzEwNTQ2ODc1IiB5PSIzMTAiIHg9IjE4MC42NzA2NTQyOTY4NzUiIGNsYXNzPSJlciBhdHRyaWJ1dGVCb3hFdmVuIj48L3JlY3Q+PHRleHQgc3R5bGU9ImRvbWluYW50LWJhc2VsaW5lOiBtaWRkbGU7IGZvbnQtc2l6ZTogMTAuMnB4OyIgdHJhbnNmb3JtPSJ0cmFuc2xhdGUoMTg1LjY3MDY1NDI5Njg3NSwzMjEpIiB5PSIwIiB4PSIwIiBpZD0idGV4dC1lbnRpdHktY292aWRkYXRhY2xlYW5lZC03ODc2ZWI3Yy1kNjJhLTU2ODYtODExZC1jMmM5ZDY3NmM0ZjYtYXR0ci0xNC1rZXkiIGNsYXNzPSJlciBlbnRpdHlMYWJlbCI+PC90ZXh0PjxyZWN0IGhlaWdodD0iMjIiIHdpZHRoPSI1MC4wOTUxNjkwNjczODI4MSIgeT0iMzMyIiB4PSIwIiBjbGFzcz0iZXIgYXR0cmlidXRlQm94T2RkIj48L3JlY3Q+PHRleHQgc3R5bGU9ImRvbWluYW50LWJhc2VsaW5lOiBtaWRkbGU7IGZvbnQtc2l6ZTogMTAuMnB4OyIgdHJhbnNmb3JtPSJ0cmFuc2xhdGUoNSwzNDMpIiB5PSIwIiB4PSIwIiBpZD0idGV4dC1lbnRpdHktY292aWRkYXRhY2xlYW5lZC03ODc2ZWI3Yy1kNjJhLTU2ODYtODExZC1jMmM5ZDY3NmM0ZjYtYXR0ci0xNS10eXBlIiBjbGFzcz0iZXIgZW50aXR5TGFiZWwiPkZMT0FUPC90ZXh0PjxyZWN0IGhlaWdodD0iMjIiIHdpZHRoPSIxMzAuNTc1NDg1MjI5NDkyMiIgeT0iMzMyIiB4PSI1MC4wOTUxNjkwNjczODI4MSIgY2xhc3M9ImVyIGF0dHJpYnV0ZUJveE9kZCI+PC9yZWN0Pjx0ZXh0IHN0eWxlPSJkb21pbmFudC1iYXNlbGluZTogbWlkZGxlOyBmb250LXNpemU6IDEwLjJweDsiIHRyYW5zZm9ybT0idHJhbnNsYXRlKDU1LjA5NTE2OTA2NzM4MjgxLDM0MykiIHk9IjAiIHg9IjAiIGlkPSJ0ZXh0LWVudGl0eS1jb3ZpZGRhdGFjbGVhbmVkLTc4NzZlYjdjLWQ2MmEtNTY4Ni04MTFkLWMyYzlkNjc2YzRmNi1hdHRyLTE1LW5hbWUiIGNsYXNzPSJlciBlbnRpdHlMYWJlbCI+dGFzYV9tb3J0YWxpZGFkPC90ZXh0PjxyZWN0IGhlaWdodD0iMjIiIHdpZHRoPSIyMi42ODc2ODMxMDU0Njg3NSIgeT0iMzMyIiB4PSIxODAuNjcwNjU0Mjk2ODc1IiBjbGFzcz0iZXIgYXR0cmlidXRlQm94T2RkIj48L3JlY3Q+PHRleHQgc3R5bGU9ImRvbWluYW50LWJhc2VsaW5lOiBtaWRkbGU7IGZvbnQtc2l6ZTogMTAuMnB4OyIgdHJhbnNmb3JtPSJ0cmFuc2xhdGUoMTg1LjY3MDY1NDI5Njg3NSwzNDMpIiB5PSIwIiB4PSIwIiBpZD0idGV4dC1lbnRpdHktY292aWRkYXRhY2xlYW5lZC03ODc2ZWI3Yy1kNjJhLTU2ODYtODExZC1jMmM5ZDY3NmM0ZjYtYXR0ci0xNS1rZXkiIGNsYXNzPSJlciBlbnRpdHlMYWJlbCI+PC90ZXh0PjwvZz48ZyB0cmFuc2Zvcm09InRyYW5zbGF0ZSgxMjYuNTEyMzI1Mjg2ODY1MjMsMTI3MiApIiBpZD0iZW50aXR5LWRlbGl0b3NpbmZvcm1hdGljb3MtOTE4YWEyZDctZWMxZC01YzNlLWE5YTAtNDNiZWNhMTcwMTQwIj48cmVjdCBoZWlnaHQ9IjM5OCIgd2lkdGg9IjE4MC42NjczNzM2NTcyMjY1NiIgeT0iMCIgeD0iMCIgY2xhc3M9ImVyIGVudGl0eUJveCI+PC9yZWN0Pjx0ZXh0IHN0eWxlPSJkb21pbmFudC1iYXNlbGluZTogbWlkZGxlOyB0ZXh0LWFuY2hvcjogbWlkZGxlOyBmb250LXNpemU6IDEycHg7IiB0cmFuc2Zvcm09InRyYW5zbGF0ZSg5MC4zMzM2ODY4Mjg2MTMyOCwxMikiIHk9IjAiIHg9IjAiIGlkPSJ0ZXh0LWVudGl0eS1kZWxpdG9zaW5mb3JtYXRpY29zLTkxOGFhMmQ3LWVjMWQtNWMzZS1hOWEwLTQzYmVjYTE3MDE0MCIgY2xhc3M9ImVyIGVudGl0eUxhYmVsIj5kZWxpdG9zX2luZm9ybWF0aWNvczwvdGV4dD48cmVjdCBoZWlnaHQ9IjIyIiB3aWR0aD0iNTAuMDk1MTY5MDY3MzgyODEiIHk9IjI0IiB4PSIwIiBjbGFzcz0iZXIgYXR0cmlidXRlQm94T2RkIj48L3JlY3Q+PHRleHQgc3R5bGU9ImRvbWluYW50LWJhc2VsaW5lOiBtaWRkbGU7IGZvbnQtc2l6ZTogMTAuMnB4OyIgdHJhbnNmb3JtPSJ0cmFuc2xhdGUoNSwzNSkiIHk9IjAiIHg9IjAiIGlkPSJ0ZXh0LWVudGl0eS1kZWxpdG9zaW5mb3JtYXRpY29zLTkxOGFhMmQ3LWVjMWQtNWMzZS1hOWEwLTQzYmVjYTE3MDE0MC1hdHRyLTEtdHlwZSIgY2xhc3M9ImVyIGVudGl0eUxhYmVsIj5URVhUPC90ZXh0PjxyZWN0IGhlaWdodD0iMjIiIHdpZHRoPSIxMDcuODg0NTIxNDg0Mzc1IiB5PSIyNCIgeD0iNTAuMDk1MTY5MDY3MzgyODEiIGNsYXNzPSJlciBhdHRyaWJ1dGVCb3hPZGQiPjwvcmVjdD48dGV4dCBzdHlsZT0iZG9taW5hbnQtYmFzZWxpbmU6IG1pZGRsZTsgZm9udC1zaXplOiAxMC4ycHg7IiB0cmFuc2Zvcm09InRyYW5zbGF0ZSg1NS4wOTUxNjkwNjczODI4MSwzNSkiIHk9IjAiIHg9IjAiIGlkPSJ0ZXh0LWVudGl0eS1kZWxpdG9zaW5mb3JtYXRpY29zLTkxOGFhMmQ3LWVjMWQtNWMzZS1hOWEwLTQzYmVjYTE3MDE0MC1hdHRyLTEtbmFtZSIgY2xhc3M9ImVyIGVudGl0eUxhYmVsIj5jcmltaW5hbGlkYWQ8L3RleHQ+PHJlY3QgaGVpZ2h0PSIyMiIgd2lkdGg9IjIyLjY4NzY4MzEwNTQ2ODc1IiB5PSIyNCIgeD0iMTU3Ljk3OTY5MDU1MTc1NzgiIGNsYXNzPSJlciBhdHRyaWJ1dGVCb3hPZGQiPjwvcmVjdD48dGV4dCBzdHlsZT0iZG9taW5hbnQtYmFzZWxpbmU6IG1pZGRsZTsgZm9udC1zaXplOiAxMC4ycHg7IiB0cmFuc2Zvcm09InRyYW5zbGF0ZSgxNjIuOTc5NjkwNTUxNzU3OCwzNSkiIHk9IjAiIHg9IjAiIGlkPSJ0ZXh0LWVudGl0eS1kZWxpdG9zaW5mb3JtYXRpY29zLTkxOGFhMmQ3LWVjMWQtNWMzZS1hOWEwLTQzYmVjYTE3MDE0MC1hdHRyLTEta2V5IiBjbGFzcz0iZXIgZW50aXR5TGFiZWwiPjwvdGV4dD48cmVjdCBoZWlnaHQ9IjIyIiB3aWR0aD0iNTAuMDk1MTY5MDY3MzgyODEiIHk9IjQ2IiB4PSIwIiBjbGFzcz0iZXIgYXR0cmlidXRlQm94RXZlbiI+PC9yZWN0Pjx0ZXh0IHN0eWxlPSJkb21pbmFudC1iYXNlbGluZTogbWlkZGxlOyBmb250LXNpemU6IDEwLjJweDsiIHRyYW5zZm9ybT0idHJhbnNsYXRlKDUsNTcpIiB5PSIwIiB4PSIwIiBpZD0idGV4dC1lbnRpdHktZGVsaXRvc2luZm9ybWF0aWNvcy05MThhYTJkNy1lYzFkLTVjM2UtYTlhMC00M2JlY2ExNzAxNDAtYXR0ci0yLXR5cGUiIGNsYXNzPSJlciBlbnRpdHlMYWJlbCI+VEVYVDwvdGV4dD48cmVjdCBoZWlnaHQ9IjIyIiB3aWR0aD0iMTA3Ljg4NDUyMTQ4NDM3NSIgeT0iNDYiIHg9IjUwLjA5NTE2OTA2NzM4MjgxIiBjbGFzcz0iZXIgYXR0cmlidXRlQm94RXZlbiI+PC9yZWN0Pjx0ZXh0IHN0eWxlPSJkb21pbmFudC1iYXNlbGluZTogbWlkZGxlOyBmb250LXNpemU6IDEwLjJweDsiIHRyYW5zZm9ybT0idHJhbnNsYXRlKDU1LjA5NTE2OTA2NzM4MjgxLDU3KSIgeT0iMCIgeD0iMCIgaWQ9InRleHQtZW50aXR5LWRlbGl0b3NpbmZvcm1hdGljb3MtOTE4YWEyZDctZWMxZC01YzNlLWE5YTAtNDNiZWNhMTcwMTQwLWF0dHItMi1uYW1lIiBjbGFzcz0iZXIgZW50aXR5TGFiZWwiPmVzX2FyY2hpdm88L3RleHQ+PHJlY3QgaGVpZ2h0PSIyMiIgd2lkdGg9IjIyLjY4NzY4MzEwNTQ2ODc1IiB5PSI0NiIgeD0iMTU3Ljk3OTY5MDU1MTc1NzgiIGNsYXNzPSJlciBhdHRyaWJ1dGVCb3hFdmVuIj48L3JlY3Q+PHRleHQgc3R5bGU9ImRvbWluYW50LWJhc2VsaW5lOiBtaWRkbGU7IGZvbnQtc2l6ZTogMTAuMnB4OyIgdHJhbnNmb3JtPSJ0cmFuc2xhdGUoMTYyLjk3OTY5MDU1MTc1NzgsNTcpIiB5PSIwIiB4PSIwIiBpZD0idGV4dC1lbnRpdHktZGVsaXRvc2luZm9ybWF0aWNvcy05MThhYTJkNy1lYzFkLTVjM2UtYTlhMC00M2JlY2ExNzAxNDAtYXR0ci0yLWtleSIgY2xhc3M9ImVyIGVudGl0eUxhYmVsIj48L3RleHQ+PHJlY3QgaGVpZ2h0PSIyMiIgd2lkdGg9IjUwLjA5NTE2OTA2NzM4MjgxIiB5PSI2OCIgeD0iMCIgY2xhc3M9ImVyIGF0dHJpYnV0ZUJveE9kZCI+PC9yZWN0Pjx0ZXh0IHN0eWxlPSJkb21pbmFudC1iYXNlbGluZTogbWlkZGxlOyBmb250LXNpemU6IDEwLjJweDsiIHRyYW5zZm9ybT0idHJhbnNsYXRlKDUsNzkpIiB5PSIwIiB4PSIwIiBpZD0idGV4dC1lbnRpdHktZGVsaXRvc2luZm9ybWF0aWNvcy05MThhYTJkNy1lYzFkLTVjM2UtYTlhMC00M2JlY2ExNzAxNDAtYXR0ci0zLXR5cGUiIGNsYXNzPSJlciBlbnRpdHlMYWJlbCI+VEVYVDwvdGV4dD48cmVjdCBoZWlnaHQ9IjIyIiB3aWR0aD0iMTA3Ljg4NDUyMTQ4NDM3NSIgeT0iNjgiIHg9IjUwLjA5NTE2OTA2NzM4MjgxIiBjbGFzcz0iZXIgYXR0cmlidXRlQm94T2RkIj48L3JlY3Q+PHRleHQgc3R5bGU9ImRvbWluYW50LWJhc2VsaW5lOiBtaWRkbGU7IGZvbnQtc2l6ZTogMTAuMnB4OyIgdHJhbnNmb3JtPSJ0cmFuc2xhdGUoNTUuMDk1MTY5MDY3MzgyODEsNzkpIiB5PSIwIiB4PSIwIiBpZD0idGV4dC1lbnRpdHktZGVsaXRvc2luZm9ybWF0aWNvcy05MThhYTJkNy1lYzFkLTVjM2UtYTlhMC00M2JlY2ExNzAxNDAtYXR0ci0zLW5hbWUiIGNsYXNzPSJlciBlbnRpdHlMYWJlbCI+ZXNfcHJlY2x1c2lvbjwvdGV4dD48cmVjdCBoZWlnaHQ9IjIyIiB3aWR0aD0iMjIuNjg3NjgzMTA1NDY4NzUiIHk9IjY4IiB4PSIxNTcuOTc5NjkwNTUxNzU3OCIgY2xhc3M9ImVyIGF0dHJpYnV0ZUJveE9kZCI+PC9yZWN0Pjx0ZXh0IHN0eWxlPSJkb21pbmFudC1iYXNlbGluZTogbWlkZGxlOyBmb250LXNpemU6IDEwLjJweDsiIHRyYW5zZm9ybT0idHJhbnNsYXRlKDE2Mi45Nzk2OTA1NTE3NTc4LDc5KSIgeT0iMCIgeD0iMCIgaWQ9InRleHQtZW50aXR5LWRlbGl0b3NpbmZvcm1hdGljb3MtOTE4YWEyZDctZWMxZC01YzNlLWE5YTAtNDNiZWNhMTcwMTQwLWF0dHItMy1rZXkiIGNsYXNzPSJlciBlbnRpdHlMYWJlbCI+PC90ZXh0PjxyZWN0IGhlaWdodD0iMjIiIHdpZHRoPSI1MC4wOTUxNjkwNjczODI4MSIgeT0iOTAiIHg9IjAiIGNsYXNzPSJlciBhdHRyaWJ1dGVCb3hFdmVuIj48L3JlY3Q+PHRleHQgc3R5bGU9ImRvbWluYW50LWJhc2VsaW5lOiBtaWRkbGU7IGZvbnQtc2l6ZTogMTAuMnB4OyIgdHJhbnNmb3JtPSJ0cmFuc2xhdGUoNSwxMDEpIiB5PSIwIiB4PSIwIiBpZD0idGV4dC1lbnRpdHktZGVsaXRvc2luZm9ybWF0aWNvcy05MThhYTJkNy1lYzFkLTVjM2UtYTlhMC00M2JlY2ExNzAxNDAtYXR0ci00LXR5cGUiIGNsYXNzPSJlciBlbnRpdHlMYWJlbCI+VEVYVDwvdGV4dD48cmVjdCBoZWlnaHQ9IjIyIiB3aWR0aD0iMTA3Ljg4NDUyMTQ4NDM3NSIgeT0iOTAiIHg9IjUwLjA5NTE2OTA2NzM4MjgxIiBjbGFzcz0iZXIgYXR0cmlidXRlQm94RXZlbiI+PC9yZWN0Pjx0ZXh0IHN0eWxlPSJkb21pbmFudC1iYXNlbGluZTogbWlkZGxlOyBmb250LXNpemU6IDEwLjJweDsiIHRyYW5zZm9ybT0idHJhbnNsYXRlKDU1LjA5NTE2OTA2NzM4MjgxLDEwMSkiIHk9IjAiIHg9IjAiIGlkPSJ0ZXh0LWVudGl0eS1kZWxpdG9zaW5mb3JtYXRpY29zLTkxOGFhMmQ3LWVjMWQtNWMzZS1hOWEwLTQzYmVjYTE3MDE0MC1hdHRyLTQtbmFtZSIgY2xhc3M9ImVyIGVudGl0eUxhYmVsIj5lc3RhZG88L3RleHQ+PHJlY3QgaGVpZ2h0PSIyMiIgd2lkdGg9IjIyLjY4NzY4MzEwNTQ2ODc1IiB5PSI5MCIgeD0iMTU3Ljk3OTY5MDU1MTc1NzgiIGNsYXNzPSJlciBhdHRyaWJ1dGVCb3hFdmVuIj48L3JlY3Q+PHRleHQgc3R5bGU9ImRvbWluYW50LWJhc2VsaW5lOiBtaWRkbGU7IGZvbnQtc2l6ZTogMTAuMnB4OyIgdHJhbnNmb3JtPSJ0cmFuc2xhdGUoMTYyLjk3OTY5MDU1MTc1NzgsMTAxKSIgeT0iMCIgeD0iMCIgaWQ9InRleHQtZW50aXR5LWRlbGl0b3NpbmZvcm1hdGljb3MtOTE4YWEyZDctZWMxZC01YzNlLWE5YTAtNDNiZWNhMTcwMTQwLWF0dHItNC1rZXkiIGNsYXNzPSJlciBlbnRpdHlMYWJlbCI+PC90ZXh0PjxyZWN0IGhlaWdodD0iMjIiIHdpZHRoPSI1MC4wOTUxNjkwNjczODI4MSIgeT0iMTEyIiB4PSIwIiBjbGFzcz0iZXIgYXR0cmlidXRlQm94T2RkIj48L3JlY3Q+PHRleHQgc3R5bGU9ImRvbWluYW50LWJhc2VsaW5lOiBtaWRkbGU7IGZvbnQtc2l6ZTogMTAuMnB4OyIgdHJhbnNmb3JtPSJ0cmFuc2xhdGUoNSwxMjMpIiB5PSIwIiB4PSIwIiBpZD0idGV4dC1lbnRpdHktZGVsaXRvc2luZm9ybWF0aWNvcy05MThhYTJkNy1lYzFkLTVjM2UtYTlhMC00M2JlY2ExNzAxNDAtYXR0ci01LXR5cGUiIGNsYXNzPSJlciBlbnRpdHlMYWJlbCI+VEVYVDwvdGV4dD48cmVjdCBoZWlnaHQ9IjIyIiB3aWR0aD0iMTA3Ljg4NDUyMTQ4NDM3NSIgeT0iMTEyIiB4PSI1MC4wOTUxNjkwNjczODI4MSIgY2xhc3M9ImVyIGF0dHJpYnV0ZUJveE9kZCI+PC9yZWN0Pjx0ZXh0IHN0eWxlPSJkb21pbmFudC1iYXNlbGluZTogbWlkZGxlOyBmb250LXNpemU6IDEwLjJweDsiIHRyYW5zZm9ybT0idHJhbnNsYXRlKDU1LjA5NTE2OTA2NzM4MjgxLDEyMykiIHk9IjAiIHg9IjAiIGlkPSJ0ZXh0LWVudGl0eS1kZWxpdG9zaW5mb3JtYXRpY29zLTkxOGFhMmQ3LWVjMWQtNWMzZS1hOWEwLTQzYmVjYTE3MDE0MC1hdHRyLTUtbmFtZSIgY2xhc3M9ImVyIGVudGl0eUxhYmVsIj5ldGFwYV9jYXNvPC90ZXh0PjxyZWN0IGhlaWdodD0iMjIiIHdpZHRoPSIyMi42ODc2ODMxMDU0Njg3NSIgeT0iMTEyIiB4PSIxNTcuOTc5NjkwNTUxNzU3OCIgY2xhc3M9ImVyIGF0dHJpYnV0ZUJveE9kZCI+PC9yZWN0Pjx0ZXh0IHN0eWxlPSJkb21pbmFudC1iYXNlbGluZTogbWlkZGxlOyBmb250LXNpemU6IDEwLjJweDsiIHRyYW5zZm9ybT0idHJhbnNsYXRlKDE2Mi45Nzk2OTA1NTE3NTc4LDEyMykiIHk9IjAiIHg9IjAiIGlkPSJ0ZXh0LWVudGl0eS1kZWxpdG9zaW5mb3JtYXRpY29zLTkxOGFhMmQ3LWVjMWQtNWMzZS1hOWEwLTQzYmVjYTE3MDE0MC1hdHRyLTUta2V5IiBjbGFzcz0iZXIgZW50aXR5TGFiZWwiPjwvdGV4dD48cmVjdCBoZWlnaHQ9IjIyIiB3aWR0aD0iNTAuMDk1MTY5MDY3MzgyODEiIHk9IjEzNCIgeD0iMCIgY2xhc3M9ImVyIGF0dHJpYnV0ZUJveEV2ZW4iPjwvcmVjdD48dGV4dCBzdHlsZT0iZG9taW5hbnQtYmFzZWxpbmU6IG1pZGRsZTsgZm9udC1zaXplOiAxMC4ycHg7IiB0cmFuc2Zvcm09InRyYW5zbGF0ZSg1LDE0NSkiIHk9IjAiIHg9IjAiIGlkPSJ0ZXh0LWVudGl0eS1kZWxpdG9zaW5mb3JtYXRpY29zLTkxOGFhMmQ3LWVjMWQtNWMzZS1hOWEwLTQzYmVjYTE3MDE0MC1hdHRyLTYtdHlwZSIgY2xhc3M9ImVyIGVudGl0eUxhYmVsIj5URVhUPC90ZXh0PjxyZWN0IGhlaWdodD0iMjIiIHdpZHRoPSIxMDcuODg0NTIxNDg0Mzc1IiB5PSIxMzQiIHg9IjUwLjA5NTE2OTA2NzM4MjgxIiBjbGFzcz0iZXIgYXR0cmlidXRlQm94RXZlbiI+PC9yZWN0Pjx0ZXh0IHN0eWxlPSJkb21pbmFudC1iYXNlbGluZTogbWlkZGxlOyBmb250LXNpemU6IDEwLjJweDsiIHRyYW5zZm9ybT0idHJhbnNsYXRlKDU1LjA5NTE2OTA2NzM4MjgxLDE0NSkiIHk9IjAiIHg9IjAiIGlkPSJ0ZXh0LWVudGl0eS1kZWxpdG9zaW5mb3JtYXRpY29zLTkxOGFhMmQ3LWVjMWQtNWMzZS1hOWEwLTQzYmVjYTE3MDE0MC1hdHRyLTYtbmFtZSIgY2xhc3M9ImVyIGVudGl0eUxhYmVsIj5sZXk8L3RleHQ+PHJlY3QgaGVpZ2h0PSIyMiIgd2lkdGg9IjIyLjY4NzY4MzEwNTQ2ODc1IiB5PSIxMzQiIHg9IjE1Ny45Nzk2OTA1NTE3NTc4IiBjbGFzcz0iZXIgYXR0cmlidXRlQm94RXZlbiI+PC9yZWN0Pjx0ZXh0IHN0eWxlPSJkb21pbmFudC1iYXNlbGluZTogbWlkZGxlOyBmb250LXNpemU6IDEwLjJweDsiIHRyYW5zZm9ybT0idHJhbnNsYXRlKDE2Mi45Nzk2OTA1NTE3NTc4LDE0NSkiIHk9IjAiIHg9IjAiIGlkPSJ0ZXh0LWVudGl0eS1kZWxpdG9zaW5mb3JtYXRpY29zLTkxOGFhMmQ3LWVjMWQtNWMzZS1hOWEwLTQzYmVjYTE3MDE0MC1hdHRyLTYta2V5IiBjbGFzcz0iZXIgZW50aXR5TGFiZWwiPjwvdGV4dD48cmVjdCBoZWlnaHQ9IjIyIiB3aWR0aD0iNTAuMDk1MTY5MDY3MzgyODEiIHk9IjE1NiIgeD0iMCIgY2xhc3M9ImVyIGF0dHJpYnV0ZUJveE9kZCI+PC9yZWN0Pjx0ZXh0IHN0eWxlPSJkb21pbmFudC1iYXNlbGluZTogbWlkZGxlOyBmb250LXNpemU6IDEwLjJweDsiIHRyYW5zZm9ybT0idHJhbnNsYXRlKDUsMTY3KSIgeT0iMCIgeD0iMCIgaWQ9InRleHQtZW50aXR5LWRlbGl0b3NpbmZvcm1hdGljb3MtOTE4YWEyZDctZWMxZC01YzNlLWE5YTAtNDNiZWNhMTcwMTQwLWF0dHItNy10eXBlIiBjbGFzcz0iZXIgZW50aXR5TGFiZWwiPlRFWFQ8L3RleHQ+PHJlY3QgaGVpZ2h0PSIyMiIgd2lkdGg9IjEwNy44ODQ1MjE0ODQzNzUiIHk9IjE1NiIgeD0iNTAuMDk1MTY5MDY3MzgyODEiIGNsYXNzPSJlciBhdHRyaWJ1dGVCb3hPZGQiPjwvcmVjdD48dGV4dCBzdHlsZT0iZG9taW5hbnQtYmFzZWxpbmU6IG1pZGRsZTsgZm9udC1zaXplOiAxMC4ycHg7IiB0cmFuc2Zvcm09InRyYW5zbGF0ZSg1NS4wOTUxNjkwNjczODI4MSwxNjcpIiB5PSIwIiB4PSIwIiBpZD0idGV4dC1lbnRpdHktZGVsaXRvc2luZm9ybWF0aWNvcy05MThhYTJkNy1lYzFkLTVjM2UtYTlhMC00M2JlY2ExNzAxNDAtYXR0ci03LW5hbWUiIGNsYXNzPSJlciBlbnRpdHlMYWJlbCI+cGFpc19oZWNobzwvdGV4dD48cmVjdCBoZWlnaHQ9IjIyIiB3aWR0aD0iMjIuNjg3NjgzMTA1NDY4NzUiIHk9IjE1NiIgeD0iMTU3Ljk3OTY5MDU1MTc1NzgiIGNsYXNzPSJlciBhdHRyaWJ1dGVCb3hPZGQiPjwvcmVjdD48dGV4dCBzdHlsZT0iZG9taW5hbnQtYmFzZWxpbmU6IG1pZGRsZTsgZm9udC1zaXplOiAxMC4ycHg7IiB0cmFuc2Zvcm09InRyYW5zbGF0ZSgxNjIuOTc5NjkwNTUxNzU3OCwxNjcpIiB5PSIwIiB4PSIwIiBpZD0idGV4dC1lbnRpdHktZGVsaXRvc2luZm9ybWF0aWNvcy05MThhYTJkNy1lYzFkLTVjM2UtYTlhMC00M2JlY2ExNzAxNDAtYXR0ci03LWtleSIgY2xhc3M9ImVyIGVudGl0eUxhYmVsIj48L3RleHQ+PHJlY3QgaGVpZ2h0PSIyMiIgd2lkdGg9IjUwLjA5NTE2OTA2NzM4MjgxIiB5PSIxNzgiIHg9IjAiIGNsYXNzPSJlciBhdHRyaWJ1dGVCb3hFdmVuIj48L3JlY3Q+PHRleHQgc3R5bGU9ImRvbWluYW50LWJhc2VsaW5lOiBtaWRkbGU7IGZvbnQtc2l6ZTogMTAuMnB4OyIgdHJhbnNmb3JtPSJ0cmFuc2xhdGUoNSwxODkpIiB5PSIwIiB4PSIwIiBpZD0idGV4dC1lbnRpdHktZGVsaXRvc2luZm9ybWF0aWNvcy05MThhYTJkNy1lYzFkLTVjM2UtYTlhMC00M2JlY2ExNzAxNDAtYXR0ci04LXR5cGUiIGNsYXNzPSJlciBlbnRpdHlMYWJlbCI+VEVYVDwvdGV4dD48cmVjdCBoZWlnaHQ9IjIyIiB3aWR0aD0iMTA3Ljg4NDUyMTQ4NDM3NSIgeT0iMTc4IiB4PSI1MC4wOTUxNjkwNjczODI4MSIgY2xhc3M9ImVyIGF0dHJpYnV0ZUJveEV2ZW4iPjwvcmVjdD48dGV4dCBzdHlsZT0iZG9taW5hbnQtYmFzZWxpbmU6IG1pZGRsZTsgZm9udC1zaXplOiAxMC4ycHg7IiB0cmFuc2Zvcm09InRyYW5zbGF0ZSg1NS4wOTUxNjkwNjczODI4MSwxODkpIiB5PSIwIiB4PSIwIiBpZD0idGV4dC1lbnRpdHktZGVsaXRvc2luZm9ybWF0aWNvcy05MThhYTJkNy1lYzFkLTVjM2UtYTlhMC00M2JlY2ExNzAxNDAtYXR0ci04LW5hbWUiIGNsYXNzPSJlciBlbnRpdHlMYWJlbCI+ZGVwYXJ0YW1lbnRvX2hlY2hvPC90ZXh0PjxyZWN0IGhlaWdodD0iMjIiIHdpZHRoPSIyMi42ODc2ODMxMDU0Njg3NSIgeT0iMTc4IiB4PSIxNTcuOTc5NjkwNTUxNzU3OCIgY2xhc3M9ImVyIGF0dHJpYnV0ZUJveEV2ZW4iPjwvcmVjdD48dGV4dCBzdHlsZT0iZG9taW5hbnQtYmFzZWxpbmU6IG1pZGRsZTsgZm9udC1zaXplOiAxMC4ycHg7IiB0cmFuc2Zvcm09InRyYW5zbGF0ZSgxNjIuOTc5NjkwNTUxNzU3OCwxODkpIiB5PSIwIiB4PSIwIiBpZD0idGV4dC1lbnRpdHktZGVsaXRvc2luZm9ybWF0aWNvcy05MThhYTJkNy1lYzFkLTVjM2UtYTlhMC00M2JlY2ExNzAxNDAtYXR0ci04LWtleSIgY2xhc3M9ImVyIGVudGl0eUxhYmVsIj48L3RleHQ+PHJlY3QgaGVpZ2h0PSIyMiIgd2lkdGg9IjUwLjA5NTE2OTA2NzM4MjgxIiB5PSIyMDAiIHg9IjAiIGNsYXNzPSJlciBhdHRyaWJ1dGVCb3hPZGQiPjwvcmVjdD48dGV4dCBzdHlsZT0iZG9taW5hbnQtYmFzZWxpbmU6IG1pZGRsZTsgZm9udC1zaXplOiAxMC4ycHg7IiB0cmFuc2Zvcm09InRyYW5zbGF0ZSg1LDIxMSkiIHk9IjAiIHg9IjAiIGlkPSJ0ZXh0LWVudGl0eS1kZWxpdG9zaW5mb3JtYXRpY29zLTkxOGFhMmQ3LWVjMWQtNWMzZS1hOWEwLTQzYmVjYTE3MDE0MC1hdHRyLTktdHlwZSIgY2xhc3M9ImVyIGVudGl0eUxhYmVsIj5URVhUPC90ZXh0PjxyZWN0IGhlaWdodD0iMjIiIHdpZHRoPSIxMDcuODg0NTIxNDg0Mzc1IiB5PSIyMDAiIHg9IjUwLjA5NTE2OTA2NzM4MjgxIiBjbGFzcz0iZXIgYXR0cmlidXRlQm94T2RkIj48L3JlY3Q+PHRleHQgc3R5bGU9ImRvbWluYW50LWJhc2VsaW5lOiBtaWRkbGU7IGZvbnQtc2l6ZTogMTAuMnB4OyIgdHJhbnNmb3JtPSJ0cmFuc2xhdGUoNTUuMDk1MTY5MDY3MzgyODEsMjExKSIgeT0iMCIgeD0iMCIgaWQ9InRleHQtZW50aXR5LWRlbGl0b3NpbmZvcm1hdGljb3MtOTE4YWEyZDctZWMxZC01YzNlLWE5YTAtNDNiZWNhMTcwMTQwLWF0dHItOS1uYW1lIiBjbGFzcz0iZXIgZW50aXR5TGFiZWwiPm11bmljaXBpbzwvdGV4dD48cmVjdCBoZWlnaHQ9IjIyIiB3aWR0aD0iMjIuNjg3NjgzMTA1NDY4NzUiIHk9IjIwMCIgeD0iMTU3Ljk3OTY5MDU1MTc1NzgiIGNsYXNzPSJlciBhdHRyaWJ1dGVCb3hPZGQiPjwvcmVjdD48dGV4dCBzdHlsZT0iZG9taW5hbnQtYmFzZWxpbmU6IG1pZGRsZTsgZm9udC1zaXplOiAxMC4ycHg7IiB0cmFuc2Zvcm09InRyYW5zbGF0ZSgxNjIuOTc5NjkwNTUxNzU3OCwyMTEpIiB5PSIwIiB4PSIwIiBpZD0idGV4dC1lbnRpdHktZGVsaXRvc2luZm9ybWF0aWNvcy05MThhYTJkNy1lYzFkLTVjM2UtYTlhMC00M2JlY2ExNzAxNDAtYXR0ci05LWtleSIgY2xhc3M9ImVyIGVudGl0eUxhYmVsIj5QSzwvdGV4dD48cmVjdCBoZWlnaHQ9IjIyIiB3aWR0aD0iNTAuMDk1MTY5MDY3MzgyODEiIHk9IjIyMiIgeD0iMCIgY2xhc3M9ImVyIGF0dHJpYnV0ZUJveEV2ZW4iPjwvcmVjdD48dGV4dCBzdHlsZT0iZG9taW5hbnQtYmFzZWxpbmU6IG1pZGRsZTsgZm9udC1zaXplOiAxMC4ycHg7IiB0cmFuc2Zvcm09InRyYW5zbGF0ZSg1LDIzMykiIHk9IjAiIHg9IjAiIGlkPSJ0ZXh0LWVudGl0eS1kZWxpdG9zaW5mb3JtYXRpY29zLTkxOGFhMmQ3LWVjMWQtNWMzZS1hOWEwLTQzYmVjYTE3MDE0MC1hdHRyLTEwLXR5cGUiIGNsYXNzPSJlciBlbnRpdHlMYWJlbCI+VEVYVDwvdGV4dD48cmVjdCBoZWlnaHQ9IjIyIiB3aWR0aD0iMTA3Ljg4NDUyMTQ4NDM3NSIgeT0iMjIyIiB4PSI1MC4wOTUxNjkwNjczODI4MSIgY2xhc3M9ImVyIGF0dHJpYnV0ZUJveEV2ZW4iPjwvcmVjdD48dGV4dCBzdHlsZT0iZG9taW5hbnQtYmFzZWxpbmU6IG1pZGRsZTsgZm9udC1zaXplOiAxMC4ycHg7IiB0cmFuc2Zvcm09InRyYW5zbGF0ZSg1NS4wOTUxNjkwNjczODI4MSwyMzMpIiB5PSIwIiB4PSIwIiBpZD0idGV4dC1lbnRpdHktZGVsaXRvc2luZm9ybWF0aWNvcy05MThhYTJkNy1lYzFkLTVjM2UtYTlhMC00M2JlY2ExNzAxNDAtYXR0ci0xMC1uYW1lIiBjbGFzcz0iZXIgZW50aXR5TGFiZWwiPnNlY2Npb25hbDwvdGV4dD48cmVjdCBoZWlnaHQ9IjIyIiB3aWR0aD0iMjIuNjg3NjgzMTA1NDY4NzUiIHk9IjIyMiIgeD0iMTU3Ljk3OTY5MDU1MTc1NzgiIGNsYXNzPSJlciBhdHRyaWJ1dGVCb3hFdmVuIj48L3JlY3Q+PHRleHQgc3R5bGU9ImRvbWluYW50LWJhc2VsaW5lOiBtaWRkbGU7IGZvbnQtc2l6ZTogMTAuMnB4OyIgdHJhbnNmb3JtPSJ0cmFuc2xhdGUoMTYyLjk3OTY5MDU1MTc1NzgsMjMzKSIgeT0iMCIgeD0iMCIgaWQ9InRleHQtZW50aXR5LWRlbGl0b3NpbmZvcm1hdGljb3MtOTE4YWEyZDctZWMxZC01YzNlLWE5YTAtNDNiZWNhMTcwMTQwLWF0dHItMTAta2V5IiBjbGFzcz0iZXIgZW50aXR5TGFiZWwiPjwvdGV4dD48cmVjdCBoZWlnaHQ9IjIyIiB3aWR0aD0iNTAuMDk1MTY5MDY3MzgyODEiIHk9IjI0NCIgeD0iMCIgY2xhc3M9ImVyIGF0dHJpYnV0ZUJveE9kZCI+PC9yZWN0Pjx0ZXh0IHN0eWxlPSJkb21pbmFudC1iYXNlbGluZTogbWlkZGxlOyBmb250LXNpemU6IDEwLjJweDsiIHRyYW5zZm9ybT0idHJhbnNsYXRlKDUsMjU1KSIgeT0iMCIgeD0iMCIgaWQ9InRleHQtZW50aXR5LWRlbGl0b3NpbmZvcm1hdGljb3MtOTE4YWEyZDctZWMxZC01YzNlLWE5YTAtNDNiZWNhMTcwMTQwLWF0dHItMTEtdHlwZSIgY2xhc3M9ImVyIGVudGl0eUxhYmVsIj5JTlRFR0VSPC90ZXh0PjxyZWN0IGhlaWdodD0iMjIiIHdpZHRoPSIxMDcuODg0NTIxNDg0Mzc1IiB5PSIyNDQiIHg9IjUwLjA5NTE2OTA2NzM4MjgxIiBjbGFzcz0iZXIgYXR0cmlidXRlQm94T2RkIj48L3JlY3Q+PHRleHQgc3R5bGU9ImRvbWluYW50LWJhc2VsaW5lOiBtaWRkbGU7IGZvbnQtc2l6ZTogMTAuMnB4OyIgdHJhbnNmb3JtPSJ0cmFuc2xhdGUoNTUuMDk1MTY5MDY3MzgyODEsMjU1KSIgeT0iMCIgeD0iMCIgaWQ9InRleHQtZW50aXR5LWRlbGl0b3NpbmZvcm1hdGljb3MtOTE4YWEyZDctZWMxZC01YzNlLWE5YTAtNDNiZWNhMTcwMTQwLWF0dHItMTEtbmFtZSIgY2xhc3M9ImVyIGVudGl0eUxhYmVsIj5hX29faGVjaG9zPC90ZXh0PjxyZWN0IGhlaWdodD0iMjIiIHdpZHRoPSIyMi42ODc2ODMxMDU0Njg3NSIgeT0iMjQ0IiB4PSIxNTcuOTc5NjkwNTUxNzU3OCIgY2xhc3M9ImVyIGF0dHJpYnV0ZUJveE9kZCI+PC9yZWN0Pjx0ZXh0IHN0eWxlPSJkb21pbmFudC1iYXNlbGluZTogbWlkZGxlOyBmb250LXNpemU6IDEwLjJweDsiIHRyYW5zZm9ybT0idHJhbnNsYXRlKDE2Mi45Nzk2OTA1NTE3NTc4LDI1NSkiIHk9IjAiIHg9IjAiIGlkPSJ0ZXh0LWVudGl0eS1kZWxpdG9zaW5mb3JtYXRpY29zLTkxOGFhMmQ3LWVjMWQtNWMzZS1hOWEwLTQzYmVjYTE3MDE0MC1hdHRyLTExLWtleSIgY2xhc3M9ImVyIGVudGl0eUxhYmVsIj48L3RleHQ+PHJlY3QgaGVpZ2h0PSIyMiIgd2lkdGg9IjUwLjA5NTE2OTA2NzM4MjgxIiB5PSIyNjYiIHg9IjAiIGNsYXNzPSJlciBhdHRyaWJ1dGVCb3hFdmVuIj48L3JlY3Q+PHRleHQgc3R5bGU9ImRvbWluYW50LWJhc2VsaW5lOiBtaWRkbGU7IGZvbnQtc2l6ZTogMTAuMnB4OyIgdHJhbnNmb3JtPSJ0cmFuc2xhdGUoNSwyNzcpIiB5PSIwIiB4PSIwIiBpZD0idGV4dC1lbnRpdHktZGVsaXRvc2luZm9ybWF0aWNvcy05MThhYTJkNy1lYzFkLTVjM2UtYTlhMC00M2JlY2ExNzAxNDAtYXR0ci0xMi10eXBlIiBjbGFzcz0iZXIgZW50aXR5TGFiZWwiPklOVEVHRVI8L3RleHQ+PHJlY3QgaGVpZ2h0PSIyMiIgd2lkdGg9IjEwNy44ODQ1MjE0ODQzNzUiIHk9IjI2NiIgeD0iNTAuMDk1MTY5MDY3MzgyODEiIGNsYXNzPSJlciBhdHRyaWJ1dGVCb3hFdmVuIj48L3JlY3Q+PHRleHQgc3R5bGU9ImRvbWluYW50LWJhc2VsaW5lOiBtaWRkbGU7IGZvbnQtc2l6ZTogMTAuMnB4OyIgdHJhbnNmb3JtPSJ0cmFuc2xhdGUoNTUuMDk1MTY5MDY3MzgyODEsMjc3KSIgeT0iMCIgeD0iMCIgaWQ9InRleHQtZW50aXR5LWRlbGl0b3NpbmZvcm1hdGljb3MtOTE4YWEyZDctZWMxZC01YzNlLWE5YTAtNDNiZWNhMTcwMTQwLWF0dHItMTItbmFtZSIgY2xhc3M9ImVyIGVudGl0eUxhYmVsIj5hX29fZW50cmFkYTwvdGV4dD48cmVjdCBoZWlnaHQ9IjIyIiB3aWR0aD0iMjIuNjg3NjgzMTA1NDY4NzUiIHk9IjI2NiIgeD0iMTU3Ljk3OTY5MDU1MTc1NzgiIGNsYXNzPSJlciBhdHRyaWJ1dGVCb3hFdmVuIj48L3JlY3Q+PHRleHQgc3R5bGU9ImRvbWluYW50LWJhc2VsaW5lOiBtaWRkbGU7IGZvbnQtc2l6ZTogMTAuMnB4OyIgdHJhbnNmb3JtPSJ0cmFuc2xhdGUoMTYyLjk3OTY5MDU1MTc1NzgsMjc3KSIgeT0iMCIgeD0iMCIgaWQ9InRleHQtZW50aXR5LWRlbGl0b3NpbmZvcm1hdGljb3MtOTE4YWEyZDctZWMxZC01YzNlLWE5YTAtNDNiZWNhMTcwMTQwLWF0dHItMTIta2V5IiBjbGFzcz0iZXIgZW50aXR5TGFiZWwiPjwvdGV4dD48cmVjdCBoZWlnaHQ9IjIyIiB3aWR0aD0iNTAuMDk1MTY5MDY3MzgyODEiIHk9IjI4OCIgeD0iMCIgY2xhc3M9ImVyIGF0dHJpYnV0ZUJveE9kZCI+PC9yZWN0Pjx0ZXh0IHN0eWxlPSJkb21pbmFudC1iYXNlbGluZTogbWlkZGxlOyBmb250LXNpemU6IDEwLjJweDsiIHRyYW5zZm9ybT0idHJhbnNsYXRlKDUsMjk5KSIgeT0iMCIgeD0iMCIgaWQ9InRleHQtZW50aXR5LWRlbGl0b3NpbmZvcm1hdGljb3MtOTE4YWEyZDctZWMxZC01YzNlLWE5YTAtNDNiZWNhMTcwMTQwLWF0dHItMTMtdHlwZSIgY2xhc3M9ImVyIGVudGl0eUxhYmVsIj5JTlRFR0VSPC90ZXh0PjxyZWN0IGhlaWdodD0iMjIiIHdpZHRoPSIxMDcuODg0NTIxNDg0Mzc1IiB5PSIyODgiIHg9IjUwLjA5NTE2OTA2NzM4MjgxIiBjbGFzcz0iZXIgYXR0cmlidXRlQm94T2RkIj48L3JlY3Q+PHRleHQgc3R5bGU9ImRvbWluYW50LWJhc2VsaW5lOiBtaWRkbGU7IGZvbnQtc2l6ZTogMTAuMnB4OyIgdHJhbnNmb3JtPSJ0cmFuc2xhdGUoNTUuMDk1MTY5MDY3MzgyODEsMjk5KSIgeT0iMCIgeD0iMCIgaWQ9InRleHQtZW50aXR5LWRlbGl0b3NpbmZvcm1hdGljb3MtOTE4YWEyZDctZWMxZC01YzNlLWE5YTAtNDNiZWNhMTcwMTQwLWF0dHItMTMtbmFtZSIgY2xhc3M9ImVyIGVudGl0eUxhYmVsIj5hX29fZGVudW5jaWE8L3RleHQ+PHJlY3QgaGVpZ2h0PSIyMiIgd2lkdGg9IjIyLjY4NzY4MzEwNTQ2ODc1IiB5PSIyODgiIHg9IjE1Ny45Nzk2OTA1NTE3NTc4IiBjbGFzcz0iZXIgYXR0cmlidXRlQm94T2RkIj48L3JlY3Q+PHRleHQgc3R5bGU9ImRvbWluYW50LWJhc2VsaW5lOiBtaWRkbGU7IGZvbnQtc2l6ZTogMTAuMnB4OyIgdHJhbnNmb3JtPSJ0cmFuc2xhdGUoMTYyLjk3OTY5MDU1MTc1NzgsMjk5KSIgeT0iMCIgeD0iMCIgaWQ9InRleHQtZW50aXR5LWRlbGl0b3NpbmZvcm1hdGljb3MtOTE4YWEyZDctZWMxZC01YzNlLWE5YTAtNDNiZWNhMTcwMTQwLWF0dHItMTMta2V5IiBjbGFzcz0iZXIgZW50aXR5TGFiZWwiPjwvdGV4dD48cmVjdCBoZWlnaHQ9IjIyIiB3aWR0aD0iNTAuMDk1MTY5MDY3MzgyODEiIHk9IjMxMCIgeD0iMCIgY2xhc3M9ImVyIGF0dHJpYnV0ZUJveEV2ZW4iPjwvcmVjdD48dGV4dCBzdHlsZT0iZG9taW5hbnQtYmFzZWxpbmU6IG1pZGRsZTsgZm9udC1zaXplOiAxMC4ycHg7IiB0cmFuc2Zvcm09InRyYW5zbGF0ZSg1LDMyMSkiIHk9IjAiIHg9IjAiIGlkPSJ0ZXh0LWVudGl0eS1kZWxpdG9zaW5mb3JtYXRpY29zLTkxOGFhMmQ3LWVjMWQtNWMzZS1hOWEwLTQzYmVjYTE3MDE0MC1hdHRyLTE0LXR5cGUiIGNsYXNzPSJlciBlbnRpdHlMYWJlbCI+VEVYVDwvdGV4dD48cmVjdCBoZWlnaHQ9IjIyIiB3aWR0aD0iMTA3Ljg4NDUyMTQ4NDM3NSIgeT0iMzEwIiB4PSI1MC4wOTUxNjkwNjczODI4MSIgY2xhc3M9ImVyIGF0dHJpYnV0ZUJveEV2ZW4iPjwvcmVjdD48dGV4dCBzdHlsZT0iZG9taW5hbnQtYmFzZWxpbmU6IG1pZGRsZTsgZm9udC1zaXplOiAxMC4ycHg7IiB0cmFuc2Zvcm09InRyYW5zbGF0ZSg1NS4wOTUxNjkwNjczODI4MSwzMjEpIiB5PSIwIiB4PSIwIiBpZD0idGV4dC1lbnRpdHktZGVsaXRvc2luZm9ybWF0aWNvcy05MThhYTJkNy1lYzFkLTVjM2UtYTlhMC00M2JlY2ExNzAxNDAtYXR0ci0xNC1uYW1lIiBjbGFzcz0iZXIgZW50aXR5TGFiZWwiPmRlbGl0bzwvdGV4dD48cmVjdCBoZWlnaHQ9IjIyIiB3aWR0aD0iMjIuNjg3NjgzMTA1NDY4NzUiIHk9IjMxMCIgeD0iMTU3Ljk3OTY5MDU1MTc1NzgiIGNsYXNzPSJlciBhdHRyaWJ1dGVCb3hFdmVuIj48L3JlY3Q+PHRleHQgc3R5bGU9ImRvbWluYW50LWJhc2VsaW5lOiBtaWRkbGU7IGZvbnQtc2l6ZTogMTAuMnB4OyIgdHJhbnNmb3JtPSJ0cmFuc2xhdGUoMTYyLjk3OTY5MDU1MTc1NzgsMzIxKSIgeT0iMCIgeD0iMCIgaWQ9InRleHQtZW50aXR5LWRlbGl0b3NpbmZvcm1hdGljb3MtOTE4YWEyZDctZWMxZC01YzNlLWE5YTAtNDNiZWNhMTcwMTQwLWF0dHItMTQta2V5IiBjbGFzcz0iZXIgZW50aXR5TGFiZWwiPjwvdGV4dD48cmVjdCBoZWlnaHQ9IjIyIiB3aWR0aD0iNTAuMDk1MTY5MDY3MzgyODEiIHk9IjMzMiIgeD0iMCIgY2xhc3M9ImVyIGF0dHJpYnV0ZUJveE9kZCI+PC9yZWN0Pjx0ZXh0IHN0eWxlPSJkb21pbmFudC1iYXNlbGluZTogbWlkZGxlOyBmb250LXNpemU6IDEwLjJweDsiIHRyYW5zZm9ybT0idHJhbnNsYXRlKDUsMzQzKSIgeT0iMCIgeD0iMCIgaWQ9InRleHQtZW50aXR5LWRlbGl0b3NpbmZvcm1hdGljb3MtOTE4YWEyZDctZWMxZC01YzNlLWE5YTAtNDNiZWNhMTcwMTQwLWF0dHItMTUtdHlwZSIgY2xhc3M9ImVyIGVudGl0eUxhYmVsIj5URVhUPC90ZXh0PjxyZWN0IGhlaWdodD0iMjIiIHdpZHRoPSIxMDcuODg0NTIxNDg0Mzc1IiB5PSIzMzIiIHg9IjUwLjA5NTE2OTA2NzM4MjgxIiBjbGFzcz0iZXIgYXR0cmlidXRlQm94T2RkIj48L3JlY3Q+PHRleHQgc3R5bGU9ImRvbWluYW50LWJhc2VsaW5lOiBtaWRkbGU7IGZvbnQtc2l6ZTogMTAuMnB4OyIgdHJhbnNmb3JtPSJ0cmFuc2xhdGUoNTUuMDk1MTY5MDY3MzgyODEsMzQzKSIgeT0iMCIgeD0iMCIgaWQ9InRleHQtZW50aXR5LWRlbGl0b3NpbmZvcm1hdGljb3MtOTE4YWEyZDctZWMxZC01YzNlLWE5YTAtNDNiZWNhMTcwMTQwLWF0dHItMTUtbmFtZSIgY2xhc3M9ImVyIGVudGl0eUxhYmVsIj5ncnVwb19kZWxpdG88L3RleHQ+PHJlY3QgaGVpZ2h0PSIyMiIgd2lkdGg9IjIyLjY4NzY4MzEwNTQ2ODc1IiB5PSIzMzIiIHg9IjE1Ny45Nzk2OTA1NTE3NTc4IiBjbGFzcz0iZXIgYXR0cmlidXRlQm94T2RkIj48L3JlY3Q+PHRleHQgc3R5bGU9ImRvbWluYW50LWJhc2VsaW5lOiBtaWRkbGU7IGZvbnQtc2l6ZTogMTAuMnB4OyIgdHJhbnNmb3JtPSJ0cmFuc2xhdGUoMTYyLjk3OTY5MDU1MTc1NzgsMzQzKSIgeT0iMCIgeD0iMCIgaWQ9InRleHQtZW50aXR5LWRlbGl0b3NpbmZvcm1hdGljb3MtOTE4YWEyZDctZWMxZC01YzNlLWE5YTAtNDNiZWNhMTcwMTQwLWF0dHItMTUta2V5IiBjbGFzcz0iZXIgZW50aXR5TGFiZWwiPjwvdGV4dD48cmVjdCBoZWlnaHQ9IjIyIiB3aWR0aD0iNTAuMDk1MTY5MDY3MzgyODEiIHk9IjM1NCIgeD0iMCIgY2xhc3M9ImVyIGF0dHJpYnV0ZUJveEV2ZW4iPjwvcmVjdD48dGV4dCBzdHlsZT0iZG9taW5hbnQtYmFzZWxpbmU6IG1pZGRsZTsgZm9udC1zaXplOiAxMC4ycHg7IiB0cmFuc2Zvcm09InRyYW5zbGF0ZSg1LDM2NSkiIHk9IjAiIHg9IjAiIGlkPSJ0ZXh0LWVudGl0eS1kZWxpdG9zaW5mb3JtYXRpY29zLTkxOGFhMmQ3LWVjMWQtNWMzZS1hOWEwLTQzYmVjYTE3MDE0MC1hdHRyLTE2LXR5cGUiIGNsYXNzPSJlciBlbnRpdHlMYWJlbCI+VEVYVDwvdGV4dD48cmVjdCBoZWlnaHQ9IjIyIiB3aWR0aD0iMTA3Ljg4NDUyMTQ4NDM3NSIgeT0iMzU0IiB4PSI1MC4wOTUxNjkwNjczODI4MSIgY2xhc3M9ImVyIGF0dHJpYnV0ZUJveEV2ZW4iPjwvcmVjdD48dGV4dCBzdHlsZT0iZG9taW5hbnQtYmFzZWxpbmU6IG1pZGRsZTsgZm9udC1zaXplOiAxMC4ycHg7IiB0cmFuc2Zvcm09InRyYW5zbGF0ZSg1NS4wOTUxNjkwNjczODI4MSwzNjUpIiB5PSIwIiB4PSIwIiBpZD0idGV4dC1lbnRpdHktZGVsaXRvc2luZm9ybWF0aWNvcy05MThhYTJkNy1lYzFkLTVjM2UtYTlhMC00M2JlY2ExNzAxNDAtYXR0ci0xNi1uYW1lIiBjbGFzcz0iZXIgZW50aXR5TGFiZWwiPmNvbnN1bWFkbzwvdGV4dD48cmVjdCBoZWlnaHQ9IjIyIiB3aWR0aD0iMjIuNjg3NjgzMTA1NDY4NzUiIHk9IjM1NCIgeD0iMTU3Ljk3OTY5MDU1MTc1NzgiIGNsYXNzPSJlciBhdHRyaWJ1dGVCb3hFdmVuIj48L3JlY3Q+PHRleHQgc3R5bGU9ImRvbWluYW50LWJhc2VsaW5lOiBtaWRkbGU7IGZvbnQtc2l6ZTogMTAuMnB4OyIgdHJhbnNmb3JtPSJ0cmFuc2xhdGUoMTYyLjk3OTY5MDU1MTc1NzgsMzY1KSIgeT0iMCIgeD0iMCIgaWQ9InRleHQtZW50aXR5LWRlbGl0b3NpbmZvcm1hdGljb3MtOTE4YWEyZDctZWMxZC01YzNlLWE5YTAtNDNiZWNhMTcwMTQwLWF0dHItMTYta2V5IiBjbGFzcz0iZXIgZW50aXR5TGFiZWwiPjwvdGV4dD48cmVjdCBoZWlnaHQ9IjIyIiB3aWR0aD0iNTAuMDk1MTY5MDY3MzgyODEiIHk9IjM3NiIgeD0iMCIgY2xhc3M9ImVyIGF0dHJpYnV0ZUJveE9kZCI+PC9yZWN0Pjx0ZXh0IHN0eWxlPSJkb21pbmFudC1iYXNlbGluZTogbWlkZGxlOyBmb250LXNpemU6IDEwLjJweDsiIHRyYW5zZm9ybT0idHJhbnNsYXRlKDUsMzg3KSIgeT0iMCIgeD0iMCIgaWQ9InRleHQtZW50aXR5LWRlbGl0b3NpbmZvcm1hdGljb3MtOTE4YWEyZDctZWMxZC01YzNlLWE5YTAtNDNiZWNhMTcwMTQwLWF0dHItMTctdHlwZSIgY2xhc3M9ImVyIGVudGl0eUxhYmVsIj5JTlRFR0VSPC90ZXh0PjxyZWN0IGhlaWdodD0iMjIiIHdpZHRoPSIxMDcuODg0NTIxNDg0Mzc1IiB5PSIzNzYiIHg9IjUwLjA5NTE2OTA2NzM4MjgxIiBjbGFzcz0iZXIgYXR0cmlidXRlQm94T2RkIj48L3JlY3Q+PHRleHQgc3R5bGU9ImRvbWluYW50LWJhc2VsaW5lOiBtaWRkbGU7IGZvbnQtc2l6ZTogMTAuMnB4OyIgdHJhbnNmb3JtPSJ0cmFuc2xhdGUoNTUuMDk1MTY5MDY3MzgyODEsMzg3KSIgeT0iMCIgeD0iMCIgaWQ9InRleHQtZW50aXR5LWRlbGl0b3NpbmZvcm1hdGljb3MtOTE4YWEyZDctZWMxZC01YzNlLWE5YTAtNDNiZWNhMTcwMTQwLWF0dHItMTctbmFtZSIgY2xhc3M9ImVyIGVudGl0eUxhYmVsIj50b3RhbF9wcm9jZXNvczwvdGV4dD48cmVjdCBoZWlnaHQ9IjIyIiB3aWR0aD0iMjIuNjg3NjgzMTA1NDY4NzUiIHk9IjM3NiIgeD0iMTU3Ljk3OTY5MDU1MTc1NzgiIGNsYXNzPSJlciBhdHRyaWJ1dGVCb3hPZGQiPjwvcmVjdD48dGV4dCBzdHlsZT0iZG9taW5hbnQtYmFzZWxpbmU6IG1pZGRsZTsgZm9udC1zaXplOiAxMC4ycHg7IiB0cmFuc2Zvcm09InRyYW5zbGF0ZSgxNjIuOTc5NjkwNTUxNzU3OCwzODcpIiB5PSIwIiB4PSIwIiBpZD0idGV4dC1lbnRpdHktZGVsaXRvc2luZm9ybWF0aWNvcy05MThhYTJkNy1lYzFkLTVjM2UtYTlhMC00M2JlY2ExNzAxNDAtYXR0ci0xNy1rZXkiIGNsYXNzPSJlciBlbnRpdHlMYWJlbCI+PC90ZXh0PjwvZz48ZyB0cmFuc2Zvcm09InRyYW5zbGF0ZSgyNS4zMjkwOTM5MzMxMDU0NywxNzcwICkiIGlkPSJlbnRpdHktaW52ZW50YXJpb2Jvdmlub3MtYmVjMDBiYTEtZTkzZC01Mzc0LThjMDUtZDA1NGRhMzg0ZWM1Ij48cmVjdCBoZWlnaHQ9IjQ0MiIgd2lkdGg9IjE5Mi43MDAxNDk1MzYxMzI4IiB5PSIwIiB4PSIwIiBjbGFzcz0iZXIgZW50aXR5Qm94Ij48L3JlY3Q+PHRleHQgc3R5bGU9ImRvbWluYW50LWJhc2VsaW5lOiBtaWRkbGU7IHRleHQtYW5jaG9yOiBtaWRkbGU7IGZvbnQtc2l6ZTogMTJweDsiIHRyYW5zZm9ybT0idHJhbnNsYXRlKDk2LjM1MDA3NDc2ODA2NjQsMTIpIiB5PSIwIiB4PSIwIiBpZD0idGV4dC1lbnRpdHktaW52ZW50YXJpb2Jvdmlub3MtYmVjMDBiYTEtZTkzZC01Mzc0LThjMDUtZDA1NGRhMzg0ZWM1IiBjbGFzcz0iZXIgZW50aXR5TGFiZWwiPmludmVudGFyaW9fYm92aW5vczwvdGV4dD48cmVjdCBoZWlnaHQ9IjIyIiB3aWR0aD0iNTAuMDk1MTY5MDY3MzgyODEiIHk9IjI0IiB4PSIwIiBjbGFzcz0iZXIgYXR0cmlidXRlQm94T2RkIj48L3JlY3Q+PHRleHQgc3R5bGU9ImRvbWluYW50LWJhc2VsaW5lOiBtaWRkbGU7IGZvbnQtc2l6ZTogMTAuMnB4OyIgdHJhbnNmb3JtPSJ0cmFuc2xhdGUoNSwzNSkiIHk9IjAiIHg9IjAiIGlkPSJ0ZXh0LWVudGl0eS1pbnZlbnRhcmlvYm92aW5vcy1iZWMwMGJhMS1lOTNkLTUzNzQtOGMwNS1kMDU0ZGEzODRlYzUtYXR0ci0xLXR5cGUiIGNsYXNzPSJlciBlbnRpdHlMYWJlbCI+SU5URUdFUjwvdGV4dD48cmVjdCBoZWlnaHQ9IjIyIiB3aWR0aD0iMTE5LjkxNzI5NzM2MzI4MTI1IiB5PSIyNCIgeD0iNTAuMDk1MTY5MDY3MzgyODEiIGNsYXNzPSJlciBhdHRyaWJ1dGVCb3hPZGQiPjwvcmVjdD48dGV4dCBzdHlsZT0iZG9taW5hbnQtYmFzZWxpbmU6IG1pZGRsZTsgZm9udC1zaXplOiAxMC4ycHg7IiB0cmFuc2Zvcm09InRyYW5zbGF0ZSg1NS4wOTUxNjkwNjczODI4MSwzNSkiIHk9IjAiIHg9IjAiIGlkPSJ0ZXh0LWVudGl0eS1pbnZlbnRhcmlvYm92aW5vcy1iZWMwMGJhMS1lOTNkLTUzNzQtOGMwNS1kMDU0ZGEzODRlYzUtYXR0ci0xLW5hbWUiIGNsYXNzPSJlciBlbnRpdHlMYWJlbCI+YW5pbzwvdGV4dD48cmVjdCBoZWlnaHQ9IjIyIiB3aWR0aD0iMjIuNjg3NjgzMTA1NDY4NzUiIHk9IjI0IiB4PSIxNzAuMDEyNDY2NDMwNjY0MDYiIGNsYXNzPSJlciBhdHRyaWJ1dGVCb3hPZGQiPjwvcmVjdD48dGV4dCBzdHlsZT0iZG9taW5hbnQtYmFzZWxpbmU6IG1pZGRsZTsgZm9udC1zaXplOiAxMC4ycHg7IiB0cmFuc2Zvcm09InRyYW5zbGF0ZSgxNzUuMDEyNDY2NDMwNjY0MDYsMzUpIiB5PSIwIiB4PSIwIiBpZD0idGV4dC1lbnRpdHktaW52ZW50YXJpb2Jvdmlub3MtYmVjMDBiYTEtZTkzZC01Mzc0LThjMDUtZDA1NGRhMzg0ZWM1LWF0dHItMS1rZXkiIGNsYXNzPSJlciBlbnRpdHlMYWJlbCI+PC90ZXh0PjxyZWN0IGhlaWdodD0iMjIiIHdpZHRoPSI1MC4wOTUxNjkwNjczODI4MSIgeT0iNDYiIHg9IjAiIGNsYXNzPSJlciBhdHRyaWJ1dGVCb3hFdmVuIj48L3JlY3Q+PHRleHQgc3R5bGU9ImRvbWluYW50LWJhc2VsaW5lOiBtaWRkbGU7IGZvbnQtc2l6ZTogMTAuMnB4OyIgdHJhbnNmb3JtPSJ0cmFuc2xhdGUoNSw1NykiIHk9IjAiIHg9IjAiIGlkPSJ0ZXh0LWVudGl0eS1pbnZlbnRhcmlvYm92aW5vcy1iZWMwMGJhMS1lOTNkLTUzNzQtOGMwNS1kMDU0ZGEzODRlYzUtYXR0ci0yLXR5cGUiIGNsYXNzPSJlciBlbnRpdHlMYWJlbCI+VEVYVDwvdGV4dD48cmVjdCBoZWlnaHQ9IjIyIiB3aWR0aD0iMTE5LjkxNzI5NzM2MzI4MTI1IiB5PSI0NiIgeD0iNTAuMDk1MTY5MDY3MzgyODEiIGNsYXNzPSJlciBhdHRyaWJ1dGVCb3hFdmVuIj48L3JlY3Q+PHRleHQgc3R5bGU9ImRvbWluYW50LWJhc2VsaW5lOiBtaWRkbGU7IGZvbnQtc2l6ZTogMTAuMnB4OyIgdHJhbnNmb3JtPSJ0cmFuc2xhdGUoNTUuMDk1MTY5MDY3MzgyODEsNTcpIiB5PSIwIiB4PSIwIiBpZD0idGV4dC1lbnRpdHktaW52ZW50YXJpb2Jvdmlub3MtYmVjMDBiYTEtZTkzZC01Mzc0LThjMDUtZDA1NGRhMzg0ZWM1LWF0dHItMi1uYW1lIiBjbGFzcz0iZXIgZW50aXR5TGFiZWwiPnN1YnJlZ2lvbjwvdGV4dD48cmVjdCBoZWlnaHQ9IjIyIiB3aWR0aD0iMjIuNjg3NjgzMTA1NDY4NzUiIHk9IjQ2IiB4PSIxNzAuMDEyNDY2NDMwNjY0MDYiIGNsYXNzPSJlciBhdHRyaWJ1dGVCb3hFdmVuIj48L3JlY3Q+PHRleHQgc3R5bGU9ImRvbWluYW50LWJhc2VsaW5lOiBtaWRkbGU7IGZvbnQtc2l6ZTogMTAuMnB4OyIgdHJhbnNmb3JtPSJ0cmFuc2xhdGUoMTc1LjAxMjQ2NjQzMDY2NDA2LDU3KSIgeT0iMCIgeD0iMCIgaWQ9InRleHQtZW50aXR5LWludmVudGFyaW9ib3Zpbm9zLWJlYzAwYmExLWU5M2QtNTM3NC04YzA1LWQwNTRkYTM4NGVjNS1hdHRyLTIta2V5IiBjbGFzcz0iZXIgZW50aXR5TGFiZWwiPjwvdGV4dD48cmVjdCBoZWlnaHQ9IjIyIiB3aWR0aD0iNTAuMDk1MTY5MDY3MzgyODEiIHk9IjY4IiB4PSIwIiBjbGFzcz0iZXIgYXR0cmlidXRlQm94T2RkIj48L3JlY3Q+PHRleHQgc3R5bGU9ImRvbWluYW50LWJhc2VsaW5lOiBtaWRkbGU7IGZvbnQtc2l6ZTogMTAuMnB4OyIgdHJhbnNmb3JtPSJ0cmFuc2xhdGUoNSw3OSkiIHk9IjAiIHg9IjAiIGlkPSJ0ZXh0LWVudGl0eS1pbnZlbnRhcmlvYm92aW5vcy1iZWMwMGJhMS1lOTNkLTUzNzQtOGMwNS1kMDU0ZGEzODRlYzUtYXR0ci0zLXR5cGUiIGNsYXNzPSJlciBlbnRpdHlMYWJlbCI+VEVYVDwvdGV4dD48cmVjdCBoZWlnaHQ9IjIyIiB3aWR0aD0iMTE5LjkxNzI5NzM2MzI4MTI1IiB5PSI2OCIgeD0iNTAuMDk1MTY5MDY3MzgyODEiIGNsYXNzPSJlciBhdHRyaWJ1dGVCb3hPZGQiPjwvcmVjdD48dGV4dCBzdHlsZT0iZG9taW5hbnQtYmFzZWxpbmU6IG1pZGRsZTsgZm9udC1zaXplOiAxMC4ycHg7IiB0cmFuc2Zvcm09InRyYW5zbGF0ZSg1NS4wOTUxNjkwNjczODI4MSw3OSkiIHk9IjAiIHg9IjAiIGlkPSJ0ZXh0LWVudGl0eS1pbnZlbnRhcmlvYm92aW5vcy1iZWMwMGJhMS1lOTNkLTUzNzQtOGMwNS1kMDU0ZGEzODRlYzUtYXR0ci0zLW5hbWUiIGNsYXNzPSJlciBlbnRpdHlMYWJlbCI+cnVicm88L3RleHQ+PHJlY3QgaGVpZ2h0PSIyMiIgd2lkdGg9IjIyLjY4NzY4MzEwNTQ2ODc1IiB5PSI2OCIgeD0iMTcwLjAxMjQ2NjQzMDY2NDA2IiBjbGFzcz0iZXIgYXR0cmlidXRlQm94T2RkIj48L3JlY3Q+PHRleHQgc3R5bGU9ImRvbWluYW50LWJhc2VsaW5lOiBtaWRkbGU7IGZvbnQtc2l6ZTogMTAuMnB4OyIgdHJhbnNmb3JtPSJ0cmFuc2xhdGUoMTc1LjAxMjQ2NjQzMDY2NDA2LDc5KSIgeT0iMCIgeD0iMCIgaWQ9InRleHQtZW50aXR5LWludmVudGFyaW9ib3Zpbm9zLWJlYzAwYmExLWU5M2QtNTM3NC04YzA1LWQwNTRkYTM4NGVjNS1hdHRyLTMta2V5IiBjbGFzcz0iZXIgZW50aXR5TGFiZWwiPjwvdGV4dD48cmVjdCBoZWlnaHQ9IjIyIiB3aWR0aD0iNTAuMDk1MTY5MDY3MzgyODEiIHk9IjkwIiB4PSIwIiBjbGFzcz0iZXIgYXR0cmlidXRlQm94RXZlbiI+PC9yZWN0Pjx0ZXh0IHN0eWxlPSJkb21pbmFudC1iYXNlbGluZTogbWlkZGxlOyBmb250LXNpemU6IDEwLjJweDsiIHRyYW5zZm9ybT0idHJhbnNsYXRlKDUsMTAxKSIgeT0iMCIgeD0iMCIgaWQ9InRleHQtZW50aXR5LWludmVudGFyaW9ib3Zpbm9zLWJlYzAwYmExLWU5M2QtNTM3NC04YzA1LWQwNTRkYTM4NGVjNS1hdHRyLTQtdHlwZSIgY2xhc3M9ImVyIGVudGl0eUxhYmVsIj5JTlRFR0VSPC90ZXh0PjxyZWN0IGhlaWdodD0iMjIiIHdpZHRoPSIxMTkuOTE3Mjk3MzYzMjgxMjUiIHk9IjkwIiB4PSI1MC4wOTUxNjkwNjczODI4MSIgY2xhc3M9ImVyIGF0dHJpYnV0ZUJveEV2ZW4iPjwvcmVjdD48dGV4dCBzdHlsZT0iZG9taW5hbnQtYmFzZWxpbmU6IG1pZGRsZTsgZm9udC1zaXplOiAxMC4ycHg7IiB0cmFuc2Zvcm09InRyYW5zbGF0ZSg1NS4wOTUxNjkwNjczODI4MSwxMDEpIiB5PSIwIiB4PSIwIiBpZD0idGV4dC1lbnRpdHktaW52ZW50YXJpb2Jvdmlub3MtYmVjMDBiYTEtZTkzZC01Mzc0LThjMDUtZDA1NGRhMzg0ZWM1LWF0dHItNC1uYW1lIiBjbGFzcz0iZXIgZW50aXR5TGFiZWwiPmJvdmlub3NfY3JpYV9tYWNobzwvdGV4dD48cmVjdCBoZWlnaHQ9IjIyIiB3aWR0aD0iMjIuNjg3NjgzMTA1NDY4NzUiIHk9IjkwIiB4PSIxNzAuMDEyNDY2NDMwNjY0MDYiIGNsYXNzPSJlciBhdHRyaWJ1dGVCb3hFdmVuIj48L3JlY3Q+PHRleHQgc3R5bGU9ImRvbWluYW50LWJhc2VsaW5lOiBtaWRkbGU7IGZvbnQtc2l6ZTogMTAuMnB4OyIgdHJhbnNmb3JtPSJ0cmFuc2xhdGUoMTc1LjAxMjQ2NjQzMDY2NDA2LDEwMSkiIHk9IjAiIHg9IjAiIGlkPSJ0ZXh0LWVudGl0eS1pbnZlbnRhcmlvYm92aW5vcy1iZWMwMGJhMS1lOTNkLTUzNzQtOGMwNS1kMDU0ZGEzODRlYzUtYXR0ci00LWtleSIgY2xhc3M9ImVyIGVudGl0eUxhYmVsIj48L3RleHQ+PHJlY3QgaGVpZ2h0PSIyMiIgd2lkdGg9IjUwLjA5NTE2OTA2NzM4MjgxIiB5PSIxMTIiIHg9IjAiIGNsYXNzPSJlciBhdHRyaWJ1dGVCb3hPZGQiPjwvcmVjdD48dGV4dCBzdHlsZT0iZG9taW5hbnQtYmFzZWxpbmU6IG1pZGRsZTsgZm9udC1zaXplOiAxMC4ycHg7IiB0cmFuc2Zvcm09InRyYW5zbGF0ZSg1LDEyMykiIHk9IjAiIHg9IjAiIGlkPSJ0ZXh0LWVudGl0eS1pbnZlbnRhcmlvYm92aW5vcy1iZWMwMGJhMS1lOTNkLTUzNzQtOGMwNS1kMDU0ZGEzODRlYzUtYXR0ci01LXR5cGUiIGNsYXNzPSJlciBlbnRpdHlMYWJlbCI+SU5URUdFUjwvdGV4dD48cmVjdCBoZWlnaHQ9IjIyIiB3aWR0aD0iMTE5LjkxNzI5NzM2MzI4MTI1IiB5PSIxMTIiIHg9IjUwLjA5NTE2OTA2NzM4MjgxIiBjbGFzcz0iZXIgYXR0cmlidXRlQm94T2RkIj48L3JlY3Q+PHRleHQgc3R5bGU9ImRvbWluYW50LWJhc2VsaW5lOiBtaWRkbGU7IGZvbnQtc2l6ZTogMTAuMnB4OyIgdHJhbnNmb3JtPSJ0cmFuc2xhdGUoNTUuMDk1MTY5MDY3MzgyODEsMTIzKSIgeT0iMCIgeD0iMCIgaWQ9InRleHQtZW50aXR5LWludmVudGFyaW9ib3Zpbm9zLWJlYzAwYmExLWU5M2QtNTM3NC04YzA1LWQwNTRkYTM4NGVjNS1hdHRyLTUtbmFtZSIgY2xhc3M9ImVyIGVudGl0eUxhYmVsIj5ib3Zpbm9zX25vdmlsbG9fbGV2YW50ZTwvdGV4dD48cmVjdCBoZWlnaHQ9IjIyIiB3aWR0aD0iMjIuNjg3NjgzMTA1NDY4NzUiIHk9IjExMiIgeD0iMTcwLjAxMjQ2NjQzMDY2NDA2IiBjbGFzcz0iZXIgYXR0cmlidXRlQm94T2RkIj48L3JlY3Q+PHRleHQgc3R5bGU9ImRvbWluYW50LWJhc2VsaW5lOiBtaWRkbGU7IGZvbnQtc2l6ZTogMTAuMnB4OyIgdHJhbnNmb3JtPSJ0cmFuc2xhdGUoMTc1LjAxMjQ2NjQzMDY2NDA2LDEyMykiIHk9IjAiIHg9IjAiIGlkPSJ0ZXh0LWVudGl0eS1pbnZlbnRhcmlvYm92aW5vcy1iZWMwMGJhMS1lOTNkLTUzNzQtOGMwNS1kMDU0ZGEzODRlYzUtYXR0ci01LWtleSIgY2xhc3M9ImVyIGVudGl0eUxhYmVsIj48L3RleHQ+PHJlY3QgaGVpZ2h0PSIyMiIgd2lkdGg9IjUwLjA5NTE2OTA2NzM4MjgxIiB5PSIxMzQiIHg9IjAiIGNsYXNzPSJlciBhdHRyaWJ1dGVCb3hFdmVuIj48L3JlY3Q+PHRleHQgc3R5bGU9ImRvbWluYW50LWJhc2VsaW5lOiBtaWRkbGU7IGZvbnQtc2l6ZTogMTAuMnB4OyIgdHJhbnNmb3JtPSJ0cmFuc2xhdGUoNSwxNDUpIiB5PSIwIiB4PSIwIiBpZD0idGV4dC1lbnRpdHktaW52ZW50YXJpb2Jvdmlub3MtYmVjMDBiYTEtZTkzZC01Mzc0LThjMDUtZDA1NGRhMzg0ZWM1LWF0dHItNi10eXBlIiBjbGFzcz0iZXIgZW50aXR5TGFiZWwiPklOVEVHRVI8L3RleHQ+PHJlY3QgaGVpZ2h0PSIyMiIgd2lkdGg9IjExOS45MTcyOTczNjMyODEyNSIgeT0iMTM0IiB4PSI1MC4wOTUxNjkwNjczODI4MSIgY2xhc3M9ImVyIGF0dHJpYnV0ZUJveEV2ZW4iPjwvcmVjdD48dGV4dCBzdHlsZT0iZG9taW5hbnQtYmFzZWxpbmU6IG1pZGRsZTsgZm9udC1zaXplOiAxMC4ycHg7IiB0cmFuc2Zvcm09InRyYW5zbGF0ZSg1NS4wOTUxNjkwNjczODI4MSwxNDUpIiB5PSIwIiB4PSIwIiBpZD0idGV4dC1lbnRpdHktaW52ZW50YXJpb2Jvdmlub3MtYmVjMDBiYTEtZTkzZC01Mzc0LThjMDUtZDA1NGRhMzg0ZWM1LWF0dHItNi1uYW1lIiBjbGFzcz0iZXIgZW50aXR5TGFiZWwiPmJvdmlub3Nfbm92aWxsb19jZWJhPC90ZXh0PjxyZWN0IGhlaWdodD0iMjIiIHdpZHRoPSIyMi42ODc2ODMxMDU0Njg3NSIgeT0iMTM0IiB4PSIxNzAuMDEyNDY2NDMwNjY0MDYiIGNsYXNzPSJlciBhdHRyaWJ1dGVCb3hFdmVuIj48L3JlY3Q+PHRleHQgc3R5bGU9ImRvbWluYW50LWJhc2VsaW5lOiBtaWRkbGU7IGZvbnQtc2l6ZTogMTAuMnB4OyIgdHJhbnNmb3JtPSJ0cmFuc2xhdGUoMTc1LjAxMjQ2NjQzMDY2NDA2LDE0NSkiIHk9IjAiIHg9IjAiIGlkPSJ0ZXh0LWVudGl0eS1pbnZlbnRhcmlvYm92aW5vcy1iZWMwMGJhMS1lOTNkLTUzNzQtOGMwNS1kMDU0ZGEzODRlYzUtYXR0ci02LWtleSIgY2xhc3M9ImVyIGVudGl0eUxhYmVsIj48L3RleHQ+PHJlY3QgaGVpZ2h0PSIyMiIgd2lkdGg9IjUwLjA5NTE2OTA2NzM4MjgxIiB5PSIxNTYiIHg9IjAiIGNsYXNzPSJlciBhdHRyaWJ1dGVCb3hPZGQiPjwvcmVjdD48dGV4dCBzdHlsZT0iZG9taW5hbnQtYmFzZWxpbmU6IG1pZGRsZTsgZm9udC1zaXplOiAxMC4ycHg7IiB0cmFuc2Zvcm09InRyYW5zbGF0ZSg1LDE2NykiIHk9IjAiIHg9IjAiIGlkPSJ0ZXh0LWVudGl0eS1pbnZlbnRhcmlvYm92aW5vcy1iZWMwMGJhMS1lOTNkLTUzNzQtOGMwNS1kMDU0ZGEzODRlYzUtYXR0ci03LXR5cGUiIGNsYXNzPSJlciBlbnRpdHlMYWJlbCI+SU5URUdFUjwvdGV4dD48cmVjdCBoZWlnaHQ9IjIyIiB3aWR0aD0iMTE5LjkxNzI5NzM2MzI4MTI1IiB5PSIxNTYiIHg9IjUwLjA5NTE2OTA2NzM4MjgxIiBjbGFzcz0iZXIgYXR0cmlidXRlQm94T2RkIj48L3JlY3Q+PHRleHQgc3R5bGU9ImRvbWluYW50LWJhc2VsaW5lOiBtaWRkbGU7IGZvbnQtc2l6ZTogMTAuMnB4OyIgdHJhbnNmb3JtPSJ0cmFuc2xhdGUoNTUuMDk1MTY5MDY3MzgyODEsMTY3KSIgeT0iMCIgeD0iMCIgaWQ9InRleHQtZW50aXR5LWludmVudGFyaW9ib3Zpbm9zLWJlYzAwYmExLWU5M2QtNTM3NC04YzA1LWQwNTRkYTM4NGVjNS1hdHRyLTctbmFtZSIgY2xhc3M9ImVyIGVudGl0eUxhYmVsIj5ib3Zpbm9zX3Rvcm9zPC90ZXh0PjxyZWN0IGhlaWdodD0iMjIiIHdpZHRoPSIyMi42ODc2ODMxMDU0Njg3NSIgeT0iMTU2IiB4PSIxNzAuMDEyNDY2NDMwNjY0MDYiIGNsYXNzPSJlciBhdHRyaWJ1dGVCb3hPZGQiPjwvcmVjdD48dGV4dCBzdHlsZT0iZG9taW5hbnQtYmFzZWxpbmU6IG1pZGRsZTsgZm9udC1zaXplOiAxMC4ycHg7IiB0cmFuc2Zvcm09InRyYW5zbGF0ZSgxNzUuMDEyNDY2NDMwNjY0MDYsMTY3KSIgeT0iMCIgeD0iMCIgaWQ9InRleHQtZW50aXR5LWludmVudGFyaW9ib3Zpbm9zLWJlYzAwYmExLWU5M2QtNTM3NC04YzA1LWQwNTRkYTM4NGVjNS1hdHRyLTcta2V5IiBjbGFzcz0iZXIgZW50aXR5TGFiZWwiPjwvdGV4dD48cmVjdCBoZWlnaHQ9IjIyIiB3aWR0aD0iNTAuMDk1MTY5MDY3MzgyODEiIHk9IjE3OCIgeD0iMCIgY2xhc3M9ImVyIGF0dHJpYnV0ZUJveEV2ZW4iPjwvcmVjdD48dGV4dCBzdHlsZT0iZG9taW5hbnQtYmFzZWxpbmU6IG1pZGRsZTsgZm9udC1zaXplOiAxMC4ycHg7IiB0cmFuc2Zvcm09InRyYW5zbGF0ZSg1LDE4OSkiIHk9IjAiIHg9IjAiIGlkPSJ0ZXh0LWVudGl0eS1pbnZlbnRhcmlvYm92aW5vcy1iZWMwMGJhMS1lOTNkLTUzNzQtOGMwNS1kMDU0ZGEzODRlYzUtYXR0ci04LXR5cGUiIGNsYXNzPSJlciBlbnRpdHlMYWJlbCI+SU5URUdFUjwvdGV4dD48cmVjdCBoZWlnaHQ9IjIyIiB3aWR0aD0iMTE5LjkxNzI5NzM2MzI4MTI1IiB5PSIxNzgiIHg9IjUwLjA5NTE2OTA2NzM4MjgxIiBjbGFzcz0iZXIgYXR0cmlidXRlQm94RXZlbiI+PC9yZWN0Pjx0ZXh0IHN0eWxlPSJkb21pbmFudC1iYXNlbGluZTogbWlkZGxlOyBmb250LXNpemU6IDEwLjJweDsiIHRyYW5zZm9ybT0idHJhbnNsYXRlKDU1LjA5NTE2OTA2NzM4MjgxLDE4OSkiIHk9IjAiIHg9IjAiIGlkPSJ0ZXh0LWVudGl0eS1pbnZlbnRhcmlvYm92aW5vcy1iZWMwMGJhMS1lOTNkLTUzNzQtOGMwNS1kMDU0ZGEzODRlYzUtYXR0ci04LW5hbWUiIGNsYXNzPSJlciBlbnRpdHlMYWJlbCI+dG90YWxfbWFjaG9zPC90ZXh0PjxyZWN0IGhlaWdodD0iMjIiIHdpZHRoPSIyMi42ODc2ODMxMDU0Njg3NSIgeT0iMTc4IiB4PSIxNzAuMDEyNDY2NDMwNjY0MDYiIGNsYXNzPSJlciBhdHRyaWJ1dGVCb3hFdmVuIj48L3JlY3Q+PHRleHQgc3R5bGU9ImRvbWluYW50LWJhc2VsaW5lOiBtaWRkbGU7IGZvbnQtc2l6ZTogMTAuMnB4OyIgdHJhbnNmb3JtPSJ0cmFuc2xhdGUoMTc1LjAxMjQ2NjQzMDY2NDA2LDE4OSkiIHk9IjAiIHg9IjAiIGlkPSJ0ZXh0LWVudGl0eS1pbnZlbnRhcmlvYm92aW5vcy1iZWMwMGJhMS1lOTNkLTUzNzQtOGMwNS1kMDU0ZGEzODRlYzUtYXR0ci04LWtleSIgY2xhc3M9ImVyIGVudGl0eUxhYmVsIj48L3RleHQ+PHJlY3QgaGVpZ2h0PSIyMiIgd2lkdGg9IjUwLjA5NTE2OTA2NzM4MjgxIiB5PSIyMDAiIHg9IjAiIGNsYXNzPSJlciBhdHRyaWJ1dGVCb3hPZGQiPjwvcmVjdD48dGV4dCBzdHlsZT0iZG9taW5hbnQtYmFzZWxpbmU6IG1pZGRsZTsgZm9udC1zaXplOiAxMC4ycHg7IiB0cmFuc2Zvcm09InRyYW5zbGF0ZSg1LDIxMSkiIHk9IjAiIHg9IjAiIGlkPSJ0ZXh0LWVudGl0eS1pbnZlbnRhcmlvYm92aW5vcy1iZWMwMGJhMS1lOTNkLTUzNzQtOGMwNS1kMDU0ZGEzODRlYzUtYXR0ci05LXR5cGUiIGNsYXNzPSJlciBlbnRpdHlMYWJlbCI+SU5URUdFUjwvdGV4dD48cmVjdCBoZWlnaHQ9IjIyIiB3aWR0aD0iMTE5LjkxNzI5NzM2MzI4MTI1IiB5PSIyMDAiIHg9IjUwLjA5NTE2OTA2NzM4MjgxIiBjbGFzcz0iZXIgYXR0cmlidXRlQm94T2RkIj48L3JlY3Q+PHRleHQgc3R5bGU9ImRvbWluYW50LWJhc2VsaW5lOiBtaWRkbGU7IGZvbnQtc2l6ZTogMTAuMnB4OyIgdHJhbnNmb3JtPSJ0cmFuc2xhdGUoNTUuMDk1MTY5MDY3MzgyODEsMjExKSIgeT0iMCIgeD0iMCIgaWQ9InRleHQtZW50aXR5LWludmVudGFyaW9ib3Zpbm9zLWJlYzAwYmExLWU5M2QtNTM3NC04YzA1LWQwNTRkYTM4NGVjNS1hdHRyLTktbmFtZSIgY2xhc3M9ImVyIGVudGl0eUxhYmVsIj5ib3Zpbm9zX2NyaWFfaGVtYnJhPC90ZXh0PjxyZWN0IGhlaWdodD0iMjIiIHdpZHRoPSIyMi42ODc2ODMxMDU0Njg3NSIgeT0iMjAwIiB4PSIxNzAuMDEyNDY2NDMwNjY0MDYiIGNsYXNzPSJlciBhdHRyaWJ1dGVCb3hPZGQiPjwvcmVjdD48dGV4dCBzdHlsZT0iZG9taW5hbnQtYmFzZWxpbmU6IG1pZGRsZTsgZm9udC1zaXplOiAxMC4ycHg7IiB0cmFuc2Zvcm09InRyYW5zbGF0ZSgxNzUuMDEyNDY2NDMwNjY0MDYsMjExKSIgeT0iMCIgeD0iMCIgaWQ9InRleHQtZW50aXR5LWludmVudGFyaW9ib3Zpbm9zLWJlYzAwYmExLWU5M2QtNTM3NC04YzA1LWQwNTRkYTM4NGVjNS1hdHRyLTkta2V5IiBjbGFzcz0iZXIgZW50aXR5TGFiZWwiPjwvdGV4dD48cmVjdCBoZWlnaHQ9IjIyIiB3aWR0aD0iNTAuMDk1MTY5MDY3MzgyODEiIHk9IjIyMiIgeD0iMCIgY2xhc3M9ImVyIGF0dHJpYnV0ZUJveEV2ZW4iPjwvcmVjdD48dGV4dCBzdHlsZT0iZG9taW5hbnQtYmFzZWxpbmU6IG1pZGRsZTsgZm9udC1zaXplOiAxMC4ycHg7IiB0cmFuc2Zvcm09InRyYW5zbGF0ZSg1LDIzMykiIHk9IjAiIHg9IjAiIGlkPSJ0ZXh0LWVudGl0eS1pbnZlbnRhcmlvYm92aW5vcy1iZWMwMGJhMS1lOTNkLTUzNzQtOGMwNS1kMDU0ZGEzODRlYzUtYXR0ci0xMC10eXBlIiBjbGFzcz0iZXIgZW50aXR5TGFiZWwiPklOVEVHRVI8L3RleHQ+PHJlY3QgaGVpZ2h0PSIyMiIgd2lkdGg9IjExOS45MTcyOTczNjMyODEyNSIgeT0iMjIyIiB4PSI1MC4wOTUxNjkwNjczODI4MSIgY2xhc3M9ImVyIGF0dHJpYnV0ZUJveEV2ZW4iPjwvcmVjdD48dGV4dCBzdHlsZT0iZG9taW5hbnQtYmFzZWxpbmU6IG1pZGRsZTsgZm9udC1zaXplOiAxMC4ycHg7IiB0cmFuc2Zvcm09InRyYW5zbGF0ZSg1NS4wOTUxNjkwNjczODI4MSwyMzMpIiB5PSIwIiB4PSIwIiBpZD0idGV4dC1lbnRpdHktaW52ZW50YXJpb2Jvdmlub3MtYmVjMDBiYTEtZTkzZC01Mzc0LThjMDUtZDA1NGRhMzg0ZWM1LWF0dHItMTAtbmFtZSIgY2xhc3M9ImVyIGVudGl0eUxhYmVsIj5ib3Zpbm9zX25vdmlsbGFfbGV2YW50ZTwvdGV4dD48cmVjdCBoZWlnaHQ9IjIyIiB3aWR0aD0iMjIuNjg3NjgzMTA1NDY4NzUiIHk9IjIyMiIgeD0iMTcwLjAxMjQ2NjQzMDY2NDA2IiBjbGFzcz0iZXIgYXR0cmlidXRlQm94RXZlbiI+PC9yZWN0Pjx0ZXh0IHN0eWxlPSJkb21pbmFudC1iYXNlbGluZTogbWlkZGxlOyBmb250LXNpemU6IDEwLjJweDsiIHRyYW5zZm9ybT0idHJhbnNsYXRlKDE3NS4wMTI0NjY0MzA2NjQwNiwyMzMpIiB5PSIwIiB4PSIwIiBpZD0idGV4dC1lbnRpdHktaW52ZW50YXJpb2Jvdmlub3MtYmVjMDBiYTEtZTkzZC01Mzc0LThjMDUtZDA1NGRhMzg0ZWM1LWF0dHItMTAta2V5IiBjbGFzcz0iZXIgZW50aXR5TGFiZWwiPjwvdGV4dD48cmVjdCBoZWlnaHQ9IjIyIiB3aWR0aD0iNTAuMDk1MTY5MDY3MzgyODEiIHk9IjI0NCIgeD0iMCIgY2xhc3M9ImVyIGF0dHJpYnV0ZUJveE9kZCI+PC9yZWN0Pjx0ZXh0IHN0eWxlPSJkb21pbmFudC1iYXNlbGluZTogbWlkZGxlOyBmb250LXNpemU6IDEwLjJweDsiIHRyYW5zZm9ybT0idHJhbnNsYXRlKDUsMjU1KSIgeT0iMCIgeD0iMCIgaWQ9InRleHQtZW50aXR5LWludmVudGFyaW9ib3Zpbm9zLWJlYzAwYmExLWU5M2QtNTM3NC04YzA1LWQwNTRkYTM4NGVjNS1hdHRyLTExLXR5cGUiIGNsYXNzPSJlciBlbnRpdHlMYWJlbCI+SU5URUdFUjwvdGV4dD48cmVjdCBoZWlnaHQ9IjIyIiB3aWR0aD0iMTE5LjkxNzI5NzM2MzI4MTI1IiB5PSIyNDQiIHg9IjUwLjA5NTE2OTA2NzM4MjgxIiBjbGFzcz0iZXIgYXR0cmlidXRlQm94T2RkIj48L3JlY3Q+PHRleHQgc3R5bGU9ImRvbWluYW50LWJhc2VsaW5lOiBtaWRkbGU7IGZvbnQtc2l6ZTogMTAuMnB4OyIgdHJhbnNmb3JtPSJ0cmFuc2xhdGUoNTUuMDk1MTY5MDY3MzgyODEsMjU1KSIgeT0iMCIgeD0iMCIgaWQ9InRleHQtZW50aXR5LWludmVudGFyaW9ib3Zpbm9zLWJlYzAwYmExLWU5M2QtNTM3NC04YzA1LWQwNTRkYTM4NGVjNS1hdHRyLTExLW5hbWUiIGNsYXNzPSJlciBlbnRpdHlMYWJlbCI+Ym92aW5vc19ub3ZpbGxhX3ZpZW50cmU8L3RleHQ+PHJlY3QgaGVpZ2h0PSIyMiIgd2lkdGg9IjIyLjY4NzY4MzEwNTQ2ODc1IiB5PSIyNDQiIHg9IjE3MC4wMTI0NjY0MzA2NjQwNiIgY2xhc3M9ImVyIGF0dHJpYnV0ZUJveE9kZCI+PC9yZWN0Pjx0ZXh0IHN0eWxlPSJkb21pbmFudC1iYXNlbGluZTogbWlkZGxlOyBmb250LXNpemU6IDEwLjJweDsiIHRyYW5zZm9ybT0idHJhbnNsYXRlKDE3NS4wMTI0NjY0MzA2NjQwNiwyNTUpIiB5PSIwIiB4PSIwIiBpZD0idGV4dC1lbnRpdHktaW52ZW50YXJpb2Jvdmlub3MtYmVjMDBiYTEtZTkzZC01Mzc0LThjMDUtZDA1NGRhMzg0ZWM1LWF0dHItMTEta2V5IiBjbGFzcz0iZXIgZW50aXR5TGFiZWwiPjwvdGV4dD48cmVjdCBoZWlnaHQ9IjIyIiB3aWR0aD0iNTAuMDk1MTY5MDY3MzgyODEiIHk9IjI2NiIgeD0iMCIgY2xhc3M9ImVyIGF0dHJpYnV0ZUJveEV2ZW4iPjwvcmVjdD48dGV4dCBzdHlsZT0iZG9taW5hbnQtYmFzZWxpbmU6IG1pZGRsZTsgZm9udC1zaXplOiAxMC4ycHg7IiB0cmFuc2Zvcm09InRyYW5zbGF0ZSg1LDI3NykiIHk9IjAiIHg9IjAiIGlkPSJ0ZXh0LWVudGl0eS1pbnZlbnRhcmlvYm92aW5vcy1iZWMwMGJhMS1lOTNkLTUzNzQtOGMwNS1kMDU0ZGEzODRlYzUtYXR0ci0xMi10eXBlIiBjbGFzcz0iZXIgZW50aXR5TGFiZWwiPklOVEVHRVI8L3RleHQ+PHJlY3QgaGVpZ2h0PSIyMiIgd2lkdGg9IjExOS45MTcyOTczNjMyODEyNSIgeT0iMjY2IiB4PSI1MC4wOTUxNjkwNjczODI4MSIgY2xhc3M9ImVyIGF0dHJpYnV0ZUJveEV2ZW4iPjwvcmVjdD48dGV4dCBzdHlsZT0iZG9taW5hbnQtYmFzZWxpbmU6IG1pZGRsZTsgZm9udC1zaXplOiAxMC4ycHg7IiB0cmFuc2Zvcm09InRyYW5zbGF0ZSg1NS4wOTUxNjkwNjczODI4MSwyNzcpIiB5PSIwIiB4PSIwIiBpZD0idGV4dC1lbnRpdHktaW52ZW50YXJpb2Jvdmlub3MtYmVjMDBiYTEtZTkzZC01Mzc0LThjMDUtZDA1NGRhMzg0ZWM1LWF0dHItMTItbmFtZSIgY2xhc3M9ImVyIGVudGl0eUxhYmVsIj5ib3Zpbm9zX3ZhY2E8L3RleHQ+PHJlY3QgaGVpZ2h0PSIyMiIgd2lkdGg9IjIyLjY4NzY4MzEwNTQ2ODc1IiB5PSIyNjYiIHg9IjE3MC4wMTI0NjY0MzA2NjQwNiIgY2xhc3M9ImVyIGF0dHJpYnV0ZUJveEV2ZW4iPjwvcmVjdD48dGV4dCBzdHlsZT0iZG9taW5hbnQtYmFzZWxpbmU6IG1pZGRsZTsgZm9udC1zaXplOiAxMC4ycHg7IiB0cmFuc2Zvcm09InRyYW5zbGF0ZSgxNzUuMDEyNDY2NDMwNjY0MDYsMjc3KSIgeT0iMCIgeD0iMCIgaWQ9InRleHQtZW50aXR5LWludmVudGFyaW9ib3Zpbm9zLWJlYzAwYmExLWU5M2QtNTM3NC04YzA1LWQwNTRkYTM4NGVjNS1hdHRyLTEyLWtleSIgY2xhc3M9ImVyIGVudGl0eUxhYmVsIj48L3RleHQ+PHJlY3QgaGVpZ2h0PSIyMiIgd2lkdGg9IjUwLjA5NTE2OTA2NzM4MjgxIiB5PSIyODgiIHg9IjAiIGNsYXNzPSJlciBhdHRyaWJ1dGVCb3hPZGQiPjwvcmVjdD48dGV4dCBzdHlsZT0iZG9taW5hbnQtYmFzZWxpbmU6IG1pZGRsZTsgZm9udC1zaXplOiAxMC4ycHg7IiB0cmFuc2Zvcm09InRyYW5zbGF0ZSg1LDI5OSkiIHk9IjAiIHg9IjAiIGlkPSJ0ZXh0LWVudGl0eS1pbnZlbnRhcmlvYm92aW5vcy1iZWMwMGJhMS1lOTNkLTUzNzQtOGMwNS1kMDU0ZGEzODRlYzUtYXR0ci0xMy10eXBlIiBjbGFzcz0iZXIgZW50aXR5TGFiZWwiPklOVEVHRVI8L3RleHQ+PHJlY3QgaGVpZ2h0PSIyMiIgd2lkdGg9IjExOS45MTcyOTczNjMyODEyNSIgeT0iMjg4IiB4PSI1MC4wOTUxNjkwNjczODI4MSIgY2xhc3M9ImVyIGF0dHJpYnV0ZUJveE9kZCI+PC9yZWN0Pjx0ZXh0IHN0eWxlPSJkb21pbmFudC1iYXNlbGluZTogbWlkZGxlOyBmb250LXNpemU6IDEwLjJweDsiIHRyYW5zZm9ybT0idHJhbnNsYXRlKDU1LjA5NTE2OTA2NzM4MjgxLDI5OSkiIHk9IjAiIHg9IjAiIGlkPSJ0ZXh0LWVudGl0eS1pbnZlbnRhcmlvYm92aW5vcy1iZWMwMGJhMS1lOTNkLTUzNzQtOGMwNS1kMDU0ZGEzODRlYzUtYXR0ci0xMy1uYW1lIiBjbGFzcz0iZXIgZW50aXR5TGFiZWwiPnRvdGFsX2hlbWJyYXM8L3RleHQ+PHJlY3QgaGVpZ2h0PSIyMiIgd2lkdGg9IjIyLjY4NzY4MzEwNTQ2ODc1IiB5PSIyODgiIHg9IjE3MC4wMTI0NjY0MzA2NjQwNiIgY2xhc3M9ImVyIGF0dHJpYnV0ZUJveE9kZCI+PC9yZWN0Pjx0ZXh0IHN0eWxlPSJkb21pbmFudC1iYXNlbGluZTogbWlkZGxlOyBmb250LXNpemU6IDEwLjJweDsiIHRyYW5zZm9ybT0idHJhbnNsYXRlKDE3NS4wMTI0NjY0MzA2NjQwNiwyOTkpIiB5PSIwIiB4PSIwIiBpZD0idGV4dC1lbnRpdHktaW52ZW50YXJpb2Jvdmlub3MtYmVjMDBiYTEtZTkzZC01Mzc0LThjMDUtZDA1NGRhMzg0ZWM1LWF0dHItMTMta2V5IiBjbGFzcz0iZXIgZW50aXR5TGFiZWwiPjwvdGV4dD48cmVjdCBoZWlnaHQ9IjIyIiB3aWR0aD0iNTAuMDk1MTY5MDY3MzgyODEiIHk9IjMxMCIgeD0iMCIgY2xhc3M9ImVyIGF0dHJpYnV0ZUJveEV2ZW4iPjwvcmVjdD48dGV4dCBzdHlsZT0iZG9taW5hbnQtYmFzZWxpbmU6IG1pZGRsZTsgZm9udC1zaXplOiAxMC4ycHg7IiB0cmFuc2Zvcm09InRyYW5zbGF0ZSg1LDMyMSkiIHk9IjAiIHg9IjAiIGlkPSJ0ZXh0LWVudGl0eS1pbnZlbnRhcmlvYm92aW5vcy1iZWMwMGJhMS1lOTNkLTUzNzQtOGMwNS1kMDU0ZGEzODRlYzUtYXR0ci0xNC10eXBlIiBjbGFzcz0iZXIgZW50aXR5TGFiZWwiPklOVEVHRVI8L3RleHQ+PHJlY3QgaGVpZ2h0PSIyMiIgd2lkdGg9IjExOS45MTcyOTczNjMyODEyNSIgeT0iMzEwIiB4PSI1MC4wOTUxNjkwNjczODI4MSIgY2xhc3M9ImVyIGF0dHJpYnV0ZUJveEV2ZW4iPjwvcmVjdD48dGV4dCBzdHlsZT0iZG9taW5hbnQtYmFzZWxpbmU6IG1pZGRsZTsgZm9udC1zaXplOiAxMC4ycHg7IiB0cmFuc2Zvcm09InRyYW5zbGF0ZSg1NS4wOTUxNjkwNjczODI4MSwzMjEpIiB5PSIwIiB4PSIwIiBpZD0idGV4dC1lbnRpdHktaW52ZW50YXJpb2Jvdmlub3MtYmVjMDBiYTEtZTkzZC01Mzc0LThjMDUtZDA1NGRhMzg0ZWM1LWF0dHItMTQtbmFtZSIgY2xhc3M9ImVyIGVudGl0eUxhYmVsIj50b3RhbF9ib3Zpbm9zPC90ZXh0PjxyZWN0IGhlaWdodD0iMjIiIHdpZHRoPSIyMi42ODc2ODMxMDU0Njg3NSIgeT0iMzEwIiB4PSIxNzAuMDEyNDY2NDMwNjY0MDYiIGNsYXNzPSJlciBhdHRyaWJ1dGVCb3hFdmVuIj48L3JlY3Q+PHRleHQgc3R5bGU9ImRvbWluYW50LWJhc2VsaW5lOiBtaWRkbGU7IGZvbnQtc2l6ZTogMTAuMnB4OyIgdHJhbnNmb3JtPSJ0cmFuc2xhdGUoMTc1LjAxMjQ2NjQzMDY2NDA2LDMyMSkiIHk9IjAiIHg9IjAiIGlkPSJ0ZXh0LWVudGl0eS1pbnZlbnRhcmlvYm92aW5vcy1iZWMwMGJhMS1lOTNkLTUzNzQtOGMwNS1kMDU0ZGEzODRlYzUtYXR0ci0xNC1rZXkiIGNsYXNzPSJlciBlbnRpdHlMYWJlbCI+PC90ZXh0PjxyZWN0IGhlaWdodD0iMjIiIHdpZHRoPSI1MC4wOTUxNjkwNjczODI4MSIgeT0iMzMyIiB4PSIwIiBjbGFzcz0iZXIgYXR0cmlidXRlQm94T2RkIj48L3JlY3Q+PHRleHQgc3R5bGU9ImRvbWluYW50LWJhc2VsaW5lOiBtaWRkbGU7IGZvbnQtc2l6ZTogMTAuMnB4OyIgdHJhbnNmb3JtPSJ0cmFuc2xhdGUoNSwzNDMpIiB5PSIwIiB4PSIwIiBpZD0idGV4dC1lbnRpdHktaW52ZW50YXJpb2Jvdmlub3MtYmVjMDBiYTEtZTkzZC01Mzc0LThjMDUtZDA1NGRhMzg0ZWM1LWF0dHItMTUtdHlwZSIgY2xhc3M9ImVyIGVudGl0eUxhYmVsIj5GTE9BVDwvdGV4dD48cmVjdCBoZWlnaHQ9IjIyIiB3aWR0aD0iMTE5LjkxNzI5NzM2MzI4MTI1IiB5PSIzMzIiIHg9IjUwLjA5NTE2OTA2NzM4MjgxIiBjbGFzcz0iZXIgYXR0cmlidXRlQm94T2RkIj48L3JlY3Q+PHRleHQgc3R5bGU9ImRvbWluYW50LWJhc2VsaW5lOiBtaWRkbGU7IGZvbnQtc2l6ZTogMTAuMnB4OyIgdHJhbnNmb3JtPSJ0cmFuc2xhdGUoNTUuMDk1MTY5MDY3MzgyODEsMzQzKSIgeT0iMCIgeD0iMCIgaWQ9InRleHQtZW50aXR5LWludmVudGFyaW9ib3Zpbm9zLWJlYzAwYmExLWU5M2QtNTM3NC04YzA1LWQwNTRkYTM4NGVjNS1hdHRyLTE1LW5hbWUiIGNsYXNzPSJlciBlbnRpdHlMYWJlbCI+dG90YWxfcGFzdG9zPC90ZXh0PjxyZWN0IGhlaWdodD0iMjIiIHdpZHRoPSIyMi42ODc2ODMxMDU0Njg3NSIgeT0iMzMyIiB4PSIxNzAuMDEyNDY2NDMwNjY0MDYiIGNsYXNzPSJlciBhdHRyaWJ1dGVCb3hPZGQiPjwvcmVjdD48dGV4dCBzdHlsZT0iZG9taW5hbnQtYmFzZWxpbmU6IG1pZGRsZTsgZm9udC1zaXplOiAxMC4ycHg7IiB0cmFuc2Zvcm09InRyYW5zbGF0ZSgxNzUuMDEyNDY2NDMwNjY0MDYsMzQzKSIgeT0iMCIgeD0iMCIgaWQ9InRleHQtZW50aXR5LWludmVudGFyaW9ib3Zpbm9zLWJlYzAwYmExLWU5M2QtNTM3NC04YzA1LWQwNTRkYTM4NGVjNS1hdHRyLTE1LWtleSIgY2xhc3M9ImVyIGVudGl0eUxhYmVsIj48L3RleHQ+PHJlY3QgaGVpZ2h0PSIyMiIgd2lkdGg9IjUwLjA5NTE2OTA2NzM4MjgxIiB5PSIzNTQiIHg9IjAiIGNsYXNzPSJlciBhdHRyaWJ1dGVCb3hFdmVuIj48L3JlY3Q+PHRleHQgc3R5bGU9ImRvbWluYW50LWJhc2VsaW5lOiBtaWRkbGU7IGZvbnQtc2l6ZTogMTAuMnB4OyIgdHJhbnNmb3JtPSJ0cmFuc2xhdGUoNSwzNjUpIiB5PSIwIiB4PSIwIiBpZD0idGV4dC1lbnRpdHktaW52ZW50YXJpb2Jvdmlub3MtYmVjMDBiYTEtZTkzZC01Mzc0LThjMDUtZDA1NGRhMzg0ZWM1LWF0dHItMTYtdHlwZSIgY2xhc3M9ImVyIGVudGl0eUxhYmVsIj5GTE9BVDwvdGV4dD48cmVjdCBoZWlnaHQ9IjIyIiB3aWR0aD0iMTE5LjkxNzI5NzM2MzI4MTI1IiB5PSIzNTQiIHg9IjUwLjA5NTE2OTA2NzM4MjgxIiBjbGFzcz0iZXIgYXR0cmlidXRlQm94RXZlbiI+PC9yZWN0Pjx0ZXh0IHN0eWxlPSJkb21pbmFudC1iYXNlbGluZTogbWlkZGxlOyBmb250LXNpemU6IDEwLjJweDsiIHRyYW5zZm9ybT0idHJhbnNsYXRlKDU1LjA5NTE2OTA2NzM4MjgxLDM2NSkiIHk9IjAiIHg9IjAiIGlkPSJ0ZXh0LWVudGl0eS1pbnZlbnRhcmlvYm92aW5vcy1iZWMwMGJhMS1lOTNkLTUzNzQtOGMwNS1kMDU0ZGEzODRlYzUtYXR0ci0xNi1uYW1lIiBjbGFzcz0iZXIgZW50aXR5TGFiZWwiPnBhc3RvX2NvcnRlPC90ZXh0PjxyZWN0IGhlaWdodD0iMjIiIHdpZHRoPSIyMi42ODc2ODMxMDU0Njg3NSIgeT0iMzU0IiB4PSIxNzAuMDEyNDY2NDMwNjY0MDYiIGNsYXNzPSJlciBhdHRyaWJ1dGVCb3hFdmVuIj48L3JlY3Q+PHRleHQgc3R5bGU9ImRvbWluYW50LWJhc2VsaW5lOiBtaWRkbGU7IGZvbnQtc2l6ZTogMTAuMnB4OyIgdHJhbnNmb3JtPSJ0cmFuc2xhdGUoMTc1LjAxMjQ2NjQzMDY2NDA2LDM2NSkiIHk9IjAiIHg9IjAiIGlkPSJ0ZXh0LWVudGl0eS1pbnZlbnRhcmlvYm92aW5vcy1iZWMwMGJhMS1lOTNkLTUzNzQtOGMwNS1kMDU0ZGEzODRlYzUtYXR0ci0xNi1rZXkiIGNsYXNzPSJlciBlbnRpdHlMYWJlbCI+PC90ZXh0PjxyZWN0IGhlaWdodD0iMjIiIHdpZHRoPSI1MC4wOTUxNjkwNjczODI4MSIgeT0iMzc2IiB4PSIwIiBjbGFzcz0iZXIgYXR0cmlidXRlQm94T2RkIj48L3JlY3Q+PHRleHQgc3R5bGU9ImRvbWluYW50LWJhc2VsaW5lOiBtaWRkbGU7IGZvbnQtc2l6ZTogMTAuMnB4OyIgdHJhbnNmb3JtPSJ0cmFuc2xhdGUoNSwzODcpIiB5PSIwIiB4PSIwIiBpZD0idGV4dC1lbnRpdHktaW52ZW50YXJpb2Jvdmlub3MtYmVjMDBiYTEtZTkzZC01Mzc0LThjMDUtZDA1NGRhMzg0ZWM1LWF0dHItMTctdHlwZSIgY2xhc3M9ImVyIGVudGl0eUxhYmVsIj5GTE9BVDwvdGV4dD48cmVjdCBoZWlnaHQ9IjIyIiB3aWR0aD0iMTE5LjkxNzI5NzM2MzI4MTI1IiB5PSIzNzYiIHg9IjUwLjA5NTE2OTA2NzM4MjgxIiBjbGFzcz0iZXIgYXR0cmlidXRlQm94T2RkIj48L3JlY3Q+PHRleHQgc3R5bGU9ImRvbWluYW50LWJhc2VsaW5lOiBtaWRkbGU7IGZvbnQtc2l6ZTogMTAuMnB4OyIgdHJhbnNmb3JtPSJ0cmFuc2xhdGUoNTUuMDk1MTY5MDY3MzgyODEsMzg3KSIgeT0iMCIgeD0iMCIgaWQ9InRleHQtZW50aXR5LWludmVudGFyaW9ib3Zpbm9zLWJlYzAwYmExLWU5M2QtNTM3NC04YzA1LWQwNTRkYTM4NGVjNS1hdHRyLTE3LW5hbWUiIGNsYXNzPSJlciBlbnRpdHlMYWJlbCI+cGFzdG9fbmF0dXJhbDwvdGV4dD48cmVjdCBoZWlnaHQ9IjIyIiB3aWR0aD0iMjIuNjg3NjgzMTA1NDY4NzUiIHk9IjM3NiIgeD0iMTcwLjAxMjQ2NjQzMDY2NDA2IiBjbGFzcz0iZXIgYXR0cmlidXRlQm94T2RkIj48L3JlY3Q+PHRleHQgc3R5bGU9ImRvbWluYW50LWJhc2VsaW5lOiBtaWRkbGU7IGZvbnQtc2l6ZTogMTAuMnB4OyIgdHJhbnNmb3JtPSJ0cmFuc2xhdGUoMTc1LjAxMjQ2NjQzMDY2NDA2LDM4NykiIHk9IjAiIHg9IjAiIGlkPSJ0ZXh0LWVudGl0eS1pbnZlbnRhcmlvYm92aW5vcy1iZWMwMGJhMS1lOTNkLTUzNzQtOGMwNS1kMDU0ZGEzODRlYzUtYXR0ci0xNy1rZXkiIGNsYXNzPSJlciBlbnRpdHlMYWJlbCI+PC90ZXh0PjxyZWN0IGhlaWdodD0iMjIiIHdpZHRoPSI1MC4wOTUxNjkwNjczODI4MSIgeT0iMzk4IiB4PSIwIiBjbGFzcz0iZXIgYXR0cmlidXRlQm94RXZlbiI+PC9yZWN0Pjx0ZXh0IHN0eWxlPSJkb21pbmFudC1iYXNlbGluZTogbWlkZGxlOyBmb250LXNpemU6IDEwLjJweDsiIHRyYW5zZm9ybT0idHJhbnNsYXRlKDUsNDA5KSIgeT0iMCIgeD0iMCIgaWQ9InRleHQtZW50aXR5LWludmVudGFyaW9ib3Zpbm9zLWJlYzAwYmExLWU5M2QtNTM3NC04YzA1LWQwNTRkYTM4NGVjNS1hdHRyLTE4LXR5cGUiIGNsYXNzPSJlciBlbnRpdHlMYWJlbCI+RkxPQVQ8L3RleHQ+PHJlY3QgaGVpZ2h0PSIyMiIgd2lkdGg9IjExOS45MTcyOTczNjMyODEyNSIgeT0iMzk4IiB4PSI1MC4wOTUxNjkwNjczODI4MSIgY2xhc3M9ImVyIGF0dHJpYnV0ZUJveEV2ZW4iPjwvcmVjdD48dGV4dCBzdHlsZT0iZG9taW5hbnQtYmFzZWxpbmU6IG1pZGRsZTsgZm9udC1zaXplOiAxMC4ycHg7IiB0cmFuc2Zvcm09InRyYW5zbGF0ZSg1NS4wOTUxNjkwNjczODI4MSw0MDkpIiB5PSIwIiB4PSIwIiBpZD0idGV4dC1lbnRpdHktaW52ZW50YXJpb2Jvdmlub3MtYmVjMDBiYTEtZTkzZC01Mzc0LThjMDUtZDA1NGRhMzg0ZWM1LWF0dHItMTgtbmFtZSIgY2xhc3M9ImVyIGVudGl0eUxhYmVsIj5wYXN0b19tZWpvcmFkbzwvdGV4dD48cmVjdCBoZWlnaHQ9IjIyIiB3aWR0aD0iMjIuNjg3NjgzMTA1NDY4NzUiIHk9IjM5OCIgeD0iMTcwLjAxMjQ2NjQzMDY2NDA2IiBjbGFzcz0iZXIgYXR0cmlidXRlQm94RXZlbiI+PC9yZWN0Pjx0ZXh0IHN0eWxlPSJkb21pbmFudC1iYXNlbGluZTogbWlkZGxlOyBmb250LXNpemU6IDEwLjJweDsiIHRyYW5zZm9ybT0idHJhbnNsYXRlKDE3NS4wMTI0NjY0MzA2NjQwNiw0MDkpIiB5PSIwIiB4PSIwIiBpZD0idGV4dC1lbnRpdHktaW52ZW50YXJpb2Jvdmlub3MtYmVjMDBiYTEtZTkzZC01Mzc0LThjMDUtZDA1NGRhMzg0ZWM1LWF0dHItMTgta2V5IiBjbGFzcz0iZXIgZW50aXR5TGFiZWwiPjwvdGV4dD48cmVjdCBoZWlnaHQ9IjIyIiB3aWR0aD0iNTAuMDk1MTY5MDY3MzgyODEiIHk9IjQyMCIgeD0iMCIgY2xhc3M9ImVyIGF0dHJpYnV0ZUJveE9kZCI+PC9yZWN0Pjx0ZXh0IHN0eWxlPSJkb21pbmFudC1iYXNlbGluZTogbWlkZGxlOyBmb250LXNpemU6IDEwLjJweDsiIHRyYW5zZm9ybT0idHJhbnNsYXRlKDUsNDMxKSIgeT0iMCIgeD0iMCIgaWQ9InRleHQtZW50aXR5LWludmVudGFyaW9ib3Zpbm9zLWJlYzAwYmExLWU5M2QtNTM3NC04YzA1LWQwNTRkYTM4NGVjNS1hdHRyLTE5LXR5cGUiIGNsYXNzPSJlciBlbnRpdHlMYWJlbCI+VEVYVDwvdGV4dD48cmVjdCBoZWlnaHQ9IjIyIiB3aWR0aD0iMTE5LjkxNzI5NzM2MzI4MTI1IiB5PSI0MjAiIHg9IjUwLjA5NTE2OTA2NzM4MjgxIiBjbGFzcz0iZXIgYXR0cmlidXRlQm94T2RkIj48L3JlY3Q+PHRleHQgc3R5bGU9ImRvbWluYW50LWJhc2VsaW5lOiBtaWRkbGU7IGZvbnQtc2l6ZTogMTAuMnB4OyIgdHJhbnNmb3JtPSJ0cmFuc2xhdGUoNTUuMDk1MTY5MDY3MzgyODEsNDMxKSIgeT0iMCIgeD0iMCIgaWQ9InRleHQtZW50aXR5LWludmVudGFyaW9ib3Zpbm9zLWJlYzAwYmExLWU5M2QtNTM3NC04YzA1LWQwNTRkYTM4NGVjNS1hdHRyLTE5LW5hbWUiIGNsYXNzPSJlciBlbnRpdHlMYWJlbCI+bXVuaWNpcGlvPC90ZXh0PjxyZWN0IGhlaWdodD0iMjIiIHdpZHRoPSIyMi42ODc2ODMxMDU0Njg3NSIgeT0iNDIwIiB4PSIxNzAuMDEyNDY2NDMwNjY0MDYiIGNsYXNzPSJlciBhdHRyaWJ1dGVCb3hPZGQiPjwvcmVjdD48dGV4dCBzdHlsZT0iZG9taW5hbnQtYmFzZWxpbmU6IG1pZGRsZTsgZm9udC1zaXplOiAxMC4ycHg7IiB0cmFuc2Zvcm09InRyYW5zbGF0ZSgxNzUuMDEyNDY2NDMwNjY0MDYsNDMxKSIgeT0iMCIgeD0iMCIgaWQ9InRleHQtZW50aXR5LWludmVudGFyaW9ib3Zpbm9zLWJlYzAwYmExLWU5M2QtNTM3NC04YzA1LWQwNTRkYTM4NGVjNS1hdHRyLTE5LWtleSIgY2xhc3M9ImVyIGVudGl0eUxhYmVsIj5QSzwvdGV4dD48L2c+PHJlY3QgaGVpZ2h0PSIxNCIgd2lkdGg9IjExMC40ODgyODEyNSIgeT0iMjg1IiB4PSI2Ni40MzQ4NjAyMjk0OTIxOSIgY2xhc3M9ImVyIHJlbGF0aW9uc2hpcExhYmVsQm94Ij48L3JlY3Q+PHRleHQgc3R5bGU9InRleHQtYW5jaG9yOiBtaWRkbGU7IGRvbWluYW50LWJhc2VsaW5lOiBtaWRkbGU7IGZvbnQtc2l6ZTogMTJweDsiIHk9IjI5MiIgeD0iMTIxLjY3OTAwMDg1NDQ5MjE5IiBpZD0icmVsMSIgY2xhc3M9ImVyIHJlbGF0aW9uc2hpcExhYmVsIj5TaW11bGF0ZXMgRGlydHkgRGF0YTwvdGV4dD48cmVjdCBoZWlnaHQ9IjE0IiB3aWR0aD0iMTIwLjA3MjI2NTYyNSIgeT0iNzYxIiB4PSI2MS42NDI4NjgwNDE5OTIxOSIgY2xhc3M9ImVyIHJlbGF0aW9uc2hpcExhYmVsQm94Ij48L3JlY3Q+PHRleHQgc3R5bGU9InRleHQtYW5jaG9yOiBtaWRkbGU7IGRvbWluYW50LWJhc2VsaW5lOiBtaWRkbGU7IGZvbnQtc2l6ZTogMTJweDsiIHk9Ijc2OCIgeD0iMTIxLjY3OTAwMDg1NDQ5MjE5IiBpZD0icmVsMiIgY2xhc3M9ImVyIHJlbGF0aW9uc2hpcExhYmVsIj5DbGVhbnMgYW5kIFRyYW5zZm9ybXM8L3RleHQ+PHJlY3QgaGVpZ2h0PSIxNCIgd2lkdGg9IjE1NC4zOTA2MjUiIHk9IjEyMTMuNjE4MTY0MDYyNSIgeD0iMTM1Ljg1ODc0OTM4OTY0ODQ0IiBjbGFzcz0iZXIgcmVsYXRpb25zaGlwTGFiZWxCb3giPjwvcmVjdD48dGV4dCBzdHlsZT0idGV4dC1hbmNob3I6IG1pZGRsZTsgZG9taW5hbnQtYmFzZWxpbmU6IG1pZGRsZTsgZm9udC1zaXplOiAxMnB4OyIgeT0iMTIyMC42MTgxNjQwNjI1IiB4PSIyMTMuMDU0MDYxODg5NjQ4NDQiIGlkPSJyZWwzIiBjbGFzcz0iZXIgcmVsYXRpb25zaGlwTGFiZWwiPkVucmljaGVzICh2aWEgQ29uY2F0ZW5hdGlvbik8L3RleHQ+PHJlY3QgaGVpZ2h0PSIxNCIgd2lkdGg9IjE1NC4zOTA2MjUiIHk9IjE0NjMuNjQ5MDQ3ODUxNTYyNSIgeD0iLTUwLjY4MzIzNzA3NTgwNTY2NCIgY2xhc3M9ImVyIHJlbGF0aW9uc2hpcExhYmVsQm94Ij48L3JlY3Q+PHRleHQgc3R5bGU9InRleHQtYW5jaG9yOiBtaWRkbGU7IGRvbWluYW50LWJhc2VsaW5lOiBtaWRkbGU7IGZvbnQtc2l6ZTogMTJweDsiIHk9IjE0NzAuNjQ5MDQ3ODUxNTYyNSIgeD0iMjYuNTEyMDc1NDI0MTk0MzM2IiBpZD0icmVsNCIgY2xhc3M9ImVyIHJlbGF0aW9uc2hpcExhYmVsIj5FbnJpY2hlcyAodmlhIENvbmNhdGVuYXRpb24pPC90ZXh0PjxyZWN0IGhlaWdodD0iMTQiIHdpZHRoPSIxMTEuMzQxNzk2ODc1IiB5PSIxNzEzLjk4NjIwNjA1NDY4NzUiIHg9IjE1OC4wNzIxMTMwMzcxMDkzOCIgY2xhc3M9ImVyIHJlbGF0aW9uc2hpcExhYmVsQm94Ij48L3JlY3Q+PHRleHQgc3R5bGU9InRleHQtYW5jaG9yOiBtaWRkbGU7IGRvbWluYW50LWJhc2VsaW5lOiBtaWRkbGU7IGZvbnQtc2l6ZTogMTJweDsiIHk9IjE3MjAuOTg2MjA2MDU0Njg3NSIgeD0iMjEzLjc0MzAxMTQ3NDYwOTM4IiBpZD0icmVsNSIgY2xhc3M9ImVyIHJlbGF0aW9uc2hpcExhYmVsIj5NZXJnZXMgb24gbXVuaWNpcGlvPC90ZXh0Pjwvc3ZnPg==;" parent="1" vertex="1">
                        <mxGeometry x="100" y="-1180" width="397.8629150390625" height="2232" as="geometry"/>
                    </mxCell>
                </UserObject>
            </root>
        </mxGraphModel>
    </diagram>
</mxfile>